<svg width="564" height="348" viewBox="0 0 564 348" fill="none" xmlns="http://www.w3.org/2000/svg">
<g clip-path="url(#clip0)">
<path d="M310.32 286.79C315 283.68 306.14 267.93 282.26 261.85C257.06 255.45 211.45 255.11 195.17 257.44C178.89 259.77 129.39 291.37 139.17 291.19C156.63 290.87 234.03 294.19 267.17 290.19C297.39 286.54 305.65 289.9 310.32 286.79Z" stroke="white" stroke-width="1.6" stroke-miterlimit="10"/>
<path d="M388.44 326.92L386.44 307.27C386.215 304.977 385.343 302.794 383.927 300.977C382.511 299.159 380.608 297.78 378.44 297L344 284.86C344 284.86 314.67 262.38 287 256.37C259.33 250.36 224.8 249.18 194.53 250.75C176.58 251.67 124.68 289.19 124.68 289.19L116.21 289.08C116.21 289.08 93.0001 289.08 58.0001 294.34C23.0001 299.6 29.4501 301.56 19.7601 313.61C12.4501 322.7 25.7601 345.81 32.7601 356.61C33.881 358.354 35.4211 359.789 37.2395 360.785C39.058 361.781 41.0969 362.305 43.1701 362.31H56.5001C55.9769 359.841 55.7121 357.324 55.7101 354.8C55.7101 335.12 71.4401 319.16 90.8401 319.16C110.24 319.16 126 335.1 126 354.78C126.003 357.304 125.738 359.822 125.21 362.29H271.21C270.687 359.821 270.422 357.304 270.42 354.78C270.42 335.1 286.15 319.14 305.55 319.14C324.95 319.14 340.67 335.14 340.67 354.78C340.668 357.304 340.403 359.821 339.88 362.29H363.88C366.454 362.283 368.979 361.591 371.197 360.285C373.415 358.98 375.245 357.107 376.5 354.86L386.23 337.6C388.05 334.353 388.822 330.623 388.44 326.92V326.92Z" stroke="white" stroke-width="1.6" stroke-miterlimit="10"/>
<path d="M305.81 380.93C321.064 380.93 333.43 368.385 333.43 352.91C333.43 337.435 321.064 324.89 305.81 324.89C290.556 324.89 278.19 337.435 278.19 352.91C278.19 368.385 290.556 380.93 305.81 380.93Z" stroke="white" stroke-width="1.6" stroke-miterlimit="10"/>
<path d="M90.85 380.93C106.104 380.93 118.47 368.385 118.47 352.91C118.47 337.435 106.104 324.89 90.85 324.89C75.5959 324.89 63.23 337.435 63.23 352.91C63.23 368.385 75.5959 380.93 90.85 380.93Z" stroke="white" stroke-width="1.6" stroke-miterlimit="10"/>
<path d="M226.06 304.7H246.05" stroke="white" stroke-width="1.6" stroke-miterlimit="10" stroke-linecap="round"/>
<path d="M23.6401 316.52C23.7601 316.52 38.1801 316.71 46.6401 309.21C50.1201 306.11 49.8601 303.09 44.5301 301.99C39.2001 300.89 31.5301 304.49 31.5301 304.49" stroke="white" stroke-width="1.6" stroke-miterlimit="10" stroke-linecap="round"/>
<path d="M138.29 290.23C124.67 302.5 126.42 325.82 135.99 354.78L263.4 354" stroke="white" stroke-width="1.6" stroke-miterlimit="10" stroke-linecap="round"/>
<path d="M380.34 302.25C380.34 302.25 374 305 374.94 311C375.88 317 383.75 317.09 383.75 317.09" stroke="white" stroke-width="1.6" stroke-miterlimit="10" stroke-linecap="round"/>
<path d="M490.91 205.87H464.51V380.58H490.91V205.87Z" stroke="white" stroke-width="1.6"/>
<path d="M464.51 250.46H438.11V380.59H464.51V250.46Z" stroke="white" stroke-width="1.6"/>
<path d="M438.1 144.94H411.7V380.59H438.1V144.94Z" stroke="white" stroke-width="1.6"/>
<path d="M411.71 163.29H340.85V380.59H411.71V163.29Z" stroke="white" stroke-width="1.6"/>
<path d="M349.48 184.32H401.23" stroke="white" stroke-width="1.6"/>
<path d="M349.48 197.2H401.23" stroke="white" stroke-width="1.6"/>
<path d="M349.48 210.07H401.23" stroke="white" stroke-width="1.6"/>
<path d="M349.48 222.95H401.23" stroke="white" stroke-width="1.6"/>
<path d="M349.48 235.83H401.23" stroke="white" stroke-width="1.6"/>
<path d="M484.69 308.39H470.74" stroke="white" stroke-width="1.6"/>
<path d="M484.69 321.26H470.74" stroke="white" stroke-width="1.6"/>
<path d="M484.69 216.51H470.74" stroke="white" stroke-width="1.6"/>
<path d="M484.69 229.39H470.74" stroke="white" stroke-width="1.6"/>
<path d="M484.69 334.14H470.74" stroke="white" stroke-width="1.6"/>
<path d="M484.69 347.02H470.74" stroke="white" stroke-width="1.6"/>
<path d="M401.23 250.46H349.48" stroke="white" stroke-width="1.6"/>
<path d="M513.51 151.85C513.33 151.85 513.16 151.85 512.98 151.85C512.225 150.931 511.257 150.212 510.159 149.755C509.061 149.299 507.867 149.12 506.684 149.233C505.5 149.347 504.363 149.75 503.371 150.407C502.38 151.064 501.566 151.954 501 153C499.009 152.29 496.837 152.266 494.831 152.933C492.825 153.6 491.1 154.919 489.93 156.68C489.013 156.248 488.014 156.016 487 156C485.849 156.005 484.716 156.285 483.695 156.815C482.673 157.345 481.793 158.111 481.126 159.048C480.459 159.986 480.025 161.069 479.859 162.208C479.694 163.347 479.802 164.509 480.175 165.598C480.548 166.687 481.174 167.671 482.003 168.47C482.831 169.268 483.838 169.858 484.94 170.191C486.042 170.523 487.207 170.589 488.339 170.382C489.471 170.175 490.537 169.701 491.45 169C492.44 169.9 493.609 170.581 494.88 170.998C496.151 171.414 497.496 171.557 498.827 171.418C500.157 171.278 501.443 170.858 502.6 170.187C503.757 169.515 504.759 168.606 505.54 167.52C506.532 168.883 507.856 169.969 509.387 170.675C510.918 171.38 512.604 171.682 514.285 171.55C515.965 171.418 517.584 170.857 518.986 169.922C520.388 168.986 521.527 167.707 522.294 166.206C523.061 164.704 523.43 163.032 523.367 161.347C523.303 159.663 522.808 158.023 521.93 156.584C521.052 155.145 519.82 153.955 518.351 153.128C516.882 152.301 515.226 151.865 513.54 151.86L513.51 151.85Z" stroke="white" stroke-width="1.6" stroke-miterlimit="10"/>
<path d="M528.64 168.09H543.05" stroke="white" stroke-width="1.6" stroke-linecap="round" stroke-linejoin="round"/>
<path d="M531.08 161.41H539.35" stroke="white" stroke-width="1.6" stroke-linecap="round" stroke-linejoin="round"/>
<path d="M459.23 164.06H472.35" stroke="white" stroke-width="1.6" stroke-linecap="round" stroke-linejoin="round"/>
<path d="M465.09 169.09H473.36" stroke="white" stroke-width="1.6" stroke-linecap="round" stroke-linejoin="round"/>
<path d="M466.2 77.73C465.95 77.73 465.71 77.73 465.47 77.73C464.427 76.4477 463.084 75.4415 461.561 74.7996C460.037 74.1578 458.38 73.9002 456.733 74.0493C455.087 74.1984 453.502 74.7498 452.119 75.6549C450.736 76.56 449.596 77.7911 448.8 79.24C446.033 78.259 443.018 78.2277 440.231 79.1513C437.444 80.0749 435.044 81.9005 433.41 84.34C431.78 83.6227 429.989 83.3502 428.219 83.5501C426.449 83.7501 424.764 84.4153 423.335 85.4783C421.906 86.5412 420.784 87.9638 420.083 89.6012C419.383 91.2387 419.128 93.0325 419.346 94.8002C419.564 96.5678 420.247 98.2462 421.324 99.6644C422.402 101.083 423.836 102.19 425.48 102.874C427.125 103.558 428.921 103.794 430.686 103.557C432.452 103.321 434.123 102.622 435.53 101.53C436.908 102.781 438.534 103.726 440.302 104.305C442.07 104.884 443.941 105.082 445.791 104.888C447.642 104.693 449.43 104.11 451.039 103.177C452.649 102.243 454.043 100.98 455.13 99.47C456.506 101.374 458.348 102.892 460.479 103.88C462.611 104.867 464.96 105.291 467.302 105.109C469.644 104.927 471.9 104.147 473.854 102.843C475.808 101.539 477.394 99.7543 478.46 97.661C479.526 95.5677 480.036 93.2356 479.941 90.8885C479.847 88.5413 479.151 86.2578 477.92 84.257C476.689 82.2561 474.965 80.6051 472.913 79.4621C470.861 78.3192 468.549 77.7228 466.2 77.73V77.73Z" stroke="white" stroke-width="1.6" stroke-miterlimit="10"/>
<path d="M227.48 43.7219C227.23 43.7219 226.99 43.7219 226.75 43.7219C225.707 42.4396 224.364 41.4333 222.841 40.7915C221.317 40.1497 219.659 39.892 218.013 40.0411C216.367 40.1903 214.782 40.7416 213.399 41.6467C212.016 42.5519 210.876 43.783 210.08 45.2319C207.313 44.2508 204.297 44.2196 201.51 45.1432C198.723 46.0667 196.324 47.8924 194.69 50.3319C193.06 49.6146 191.268 49.342 189.499 49.542C187.729 49.7419 186.044 50.4072 184.615 51.4701C183.185 52.533 182.064 53.9556 181.363 55.5931C180.662 57.2305 180.408 59.0244 180.626 60.792C180.844 62.5597 181.527 64.238 182.604 65.6562C183.681 67.0744 185.115 68.1818 186.76 68.8656C188.404 69.5495 190.201 69.7854 191.966 69.5493C193.731 69.3133 195.403 68.6137 196.81 67.5219C198.187 68.7726 199.813 69.7183 201.582 70.297C203.35 70.8757 205.221 71.0743 207.071 70.8798C208.921 70.6853 210.71 70.1021 212.319 69.1685C213.929 68.2348 215.323 66.9717 216.41 65.4619C217.786 67.3658 219.628 68.8843 221.759 69.8718C223.891 70.8592 226.24 71.2824 228.582 71.1008C230.924 70.9192 233.18 70.1388 235.134 68.8347C237.088 67.5305 238.674 65.7462 239.739 63.6529C240.805 61.5596 241.316 59.2275 241.221 56.8803C241.127 54.5332 240.431 52.2497 239.2 50.2488C237.969 48.248 236.245 46.5969 234.193 45.454C232.14 44.3111 229.829 43.7146 227.48 43.7219V43.7219Z" stroke="white" stroke-width="1.6" stroke-miterlimit="10"/>
<path d="M487.25 100.31H507.29" stroke="white" stroke-width="1.6" stroke-linecap="round" stroke-linejoin="round"/>
<path d="M248.53 66.3018H268.57" stroke="white" stroke-width="1.6" stroke-linecap="round" stroke-linejoin="round"/>
<path d="M490.63 91.02H502.13" stroke="white" stroke-width="1.6" stroke-linecap="round" stroke-linejoin="round"/>
<path d="M251.91 57.0119H263.41" stroke="white" stroke-width="1.6" stroke-linecap="round" stroke-linejoin="round"/>
<path d="M390.72 94.71H408.96" stroke="white" stroke-width="1.6" stroke-linecap="round" stroke-linejoin="round"/>
<path d="M152 60.7019H170.24" stroke="white" stroke-width="1.6" stroke-linecap="round" stroke-linejoin="round"/>
<path d="M398.87 101.7H410.37" stroke="white" stroke-width="1.6" stroke-linecap="round" stroke-linejoin="round"/>
<path d="M160.15 67.6919H171.65" stroke="white" stroke-width="1.6" stroke-linecap="round" stroke-linejoin="round"/>
<path d="M331.84 121.64C330.84 124.02 329.69 126.15 328.57 128.25C327.45 130.35 326.21 132.5 324.97 134.59C322.439 138.8 319.658 142.854 316.64 146.73C315.85 147.63 315.09 148.6 314.26 149.55L313 151L312.68 151.37L312.23 151.83C311.917 152.158 311.583 152.465 311.23 152.75C309.688 154.112 307.838 155.08 305.84 155.57C303.71 156.097 301.471 155.975 299.41 155.22C297.762 154.625 296.245 153.719 294.94 152.55C293.826 151.593 292.82 150.517 291.94 149.34C291.127 148.26 290.401 147.116 289.77 145.92C289.129 144.751 288.571 143.538 288.1 142.29L293.73 139.16C294.41 139.82 295.19 140.66 295.96 141.38C296.73 142.1 297.53 142.77 298.31 143.38C299.431 144.407 300.816 145.1 302.31 145.38C302.72 145.38 302.75 145.21 302.8 145.11C302.85 145.01 303.04 144.82 303.37 144.39L304.96 142.22C305.61 141.36 306.2 140.41 306.84 139.51C309.31 135.86 311.62 131.96 313.84 128.05C316.06 124.14 318.21 120.05 320.15 116.16L331.84 121.64Z" fill="#E08585"/>
<path d="M316.6 115.6C312.162 121.564 308.377 127.988 305.31 134.76L321.61 145.25C321.61 145.25 337.77 123.95 335.47 116.13C333 107.54 323.27 107.09 316.6 115.6Z" fill="white"/>
<path opacity="0.2" d="M332 129C328.95 134.688 325.473 140.137 321.6 145.3L314.69 140.86C317.26 134.86 322.2 126.75 325.54 125.34C327.31 124.56 329.81 126.55 332 129Z" fill="black"/>
<path d="M289.36 144C286.969 143.203 284.959 141.545 283.72 139.35L288.87 131.13L294.77 140.66L289.36 144Z" fill="#E08585"/>
<path d="M280.77 130.49C280.863 130.222 281.008 129.976 281.197 129.764C281.386 129.553 281.615 129.381 281.87 129.258C282.126 129.135 282.403 129.064 282.687 129.049C282.97 129.034 283.253 129.075 283.52 129.17L288.84 131.11L283.69 139.33L281.55 136.68C280.964 135.967 280.642 135.073 280.64 134.15V131.15C280.645 130.924 280.689 130.701 280.77 130.49Z" fill="#E08585"/>
<path d="M371.48 120C371.682 118.984 371.683 117.938 371.48 116.923C371.278 115.907 370.878 114.941 370.302 114.08C369.726 113.219 368.986 112.48 368.125 111.905C367.263 111.33 366.296 110.931 365.28 110.73H365.16L361.94 110.13C360.74 109.94 359.51 109.77 358.3 109.61C351.9 108.757 345.456 108.273 339 108.16C338.2 108.16 337.42 108.24 336.65 108.24C335.25 108.31 333.9 108.43 332.65 108.55C328.65 108.96 325.77 109.55 325.77 109.55C325.77 109.55 315.44 134.26 319.77 182.93L365.19 186.32C365.96 179.91 364.45 150.2 371.4 120.26C371.435 120.176 371.462 120.089 371.48 120Z" fill="white"/>
<path opacity="0.2" d="M367.23 146.8C367.66 142.51 368.23 138.06 368.95 133.52V133.26L363.73 126.56C363 129.5 362.22 140.63 367.23 146.8Z" fill="black"/>
<path d="M356.08 95.4C355.94 94.9617 355.632 94.5966 355.223 94.3849C354.815 94.1731 354.339 94.1318 353.9 94.27L347 96.5C346.573 96.6363 346.198 96.9018 345.927 97.26C345.657 97.6182 345.504 98.0514 345.49 98.5C345.44 103.01 345.42 107.12 339.11 108.14C336.96 110.66 335.3 115.66 342.7 115.94C350.1 116.22 354.79 112.68 358.42 109.58C355.15 105.94 355.08 100.86 356.16 96.28C356.21 95.9847 356.183 95.6815 356.08 95.4Z" fill="#E08585"/>
<path opacity="0.2" d="M344.62 104.63C347.62 104.12 350.55 102.73 351.88 100.63C352.06 100.33 352.26 100.04 352.41 99.73L345.41 98.82C345.537 100.79 345.268 102.765 344.62 104.63Z" fill="black"/>
<path d="M336.37 72.91C336.37 72.91 329.1 73.83 326.93 71.1C325.24 76.97 332.49 81.38 336.37 80.73V72.91Z" fill="#263238"/>
<path d="M359.33 86.47C359.33 86.47 358.88 93.79 361.7 95.8C355.94 97.8 351.1 90.86 351.53 86.94L359.33 86.47Z" fill="#263238"/>
<path d="M355.43 74.39C354.606 73.1204 353.541 72.0256 352.294 71.1681C351.047 70.3106 349.643 69.7072 348.163 69.3924C346.682 69.0775 345.154 69.0575 343.666 69.3333C342.178 69.6092 340.759 70.1755 339.49 71C331.98 75.83 333.15 88.4 336.33 95.45C339.86 103.31 350.81 105.25 355.9 97.67C359.3 92.58 358.26 87.67 357.21 79.32C357.01 77.5602 356.4 75.8718 355.43 74.39Z" fill="#E08585"/>
<path d="M362.53 70C364.1 56.94 349.9 63.48 346.22 64.25C342.54 65.02 340.74 64.25 341.42 62.43C335.78 62.91 329.99 67.5 330.13 73.57C330.27 79.64 339.46 76.95 345.8 73.57C345.54 77.07 349.61 78.84 351.72 77.91C350.72 81.13 356.32 89.91 358.37 87.79C368.53 77 367.84 70.3 362.53 70Z" fill="#263238"/>
<path d="M362.51 83C362.307 82.0681 361.741 81.2551 360.939 80.7395C360.137 80.2239 359.162 80.0479 358.23 80.25C355.53 80.89 355.34 84.64 355.53 87.04C355.74 89.7 357.16 91.47 359.41 89.79C360.251 89.1563 360.959 88.3628 361.492 87.455C362.026 86.5473 362.375 85.543 362.52 84.5C362.622 84.0048 362.618 83.4938 362.51 83Z" fill="#E08585"/>
<path d="M349.76 185.15C349.76 185.15 342.27 237.15 342.27 272.92C342.27 299.46 343.41 363.75 343.41 363.75L329 363.53C329 363.53 316.59 297.24 316.3 270.21C316 244.21 319.87 182.94 319.87 182.94L349.73 185.15" fill="#FFBA60"/>
<path opacity="0.2" d="M317.9 291.77C319.22 303.77 321.19 317.25 323.09 329.31C326.67 300.31 337.78 250.63 338.18 248.87L317.9 291.77Z" fill="black"/>
<path d="M365.24 186.32C364 208.61 334.56 255.22 327.14 284.66C320.61 310.48 308.94 361.04 308.94 361.04L293.51 358.64C293.51 358.64 302.51 291.01 308.12 264.26C313.24 239.84 335.97 184.15 335.97 184.15L365.24 186.32Z" fill="#FFBA60"/>
<path d="M344.51 82.59C344.06 82.72 343.81 83.32 343.93 84C344.05 84.68 344.53 85.2 344.93 85.07C345.33 84.94 345.63 84.34 345.5 83.66C345.37 82.98 345 82.46 344.51 82.59Z" fill="#263238"/>
<path d="M336.14 84.37C335.71 84.48 335.45 85.1 335.58 85.78C335.71 86.46 336.17 86.98 336.58 86.85C336.824 86.7183 337.014 86.5048 337.117 86.2469C337.219 85.9891 337.227 85.7034 337.14 85.44C337.05 84.76 336.58 84.25 336.14 84.37Z" fill="#263238"/>
<path d="M341.13 91.65C340.605 91.8922 340.033 92.0176 339.455 92.0176C338.877 92.0176 338.305 91.8922 337.78 91.65C338.783 89.6306 339.506 87.4843 339.93 85.27L341.13 91.65Z" fill="#A54E49"/>
<path d="M341.63 93.86C341.594 93.8506 341.561 93.8317 341.535 93.8053C341.508 93.779 341.489 93.7461 341.48 93.71C341.467 93.6557 341.476 93.5987 341.504 93.5504C341.532 93.5022 341.577 93.4663 341.63 93.45C342.484 93.3924 343.312 93.1354 344.049 92.6994C344.785 92.2635 345.409 91.6609 345.87 90.94C345.895 90.8963 345.936 90.8638 345.984 90.849C346.033 90.8342 346.085 90.8381 346.13 90.86C346.179 90.8856 346.215 90.9293 346.232 90.9816C346.249 91.034 346.245 91.0908 346.22 91.14C345.819 91.7994 345.286 92.3689 344.654 92.8128C344.023 93.2568 343.306 93.5656 342.55 93.72C342.249 93.7966 341.941 93.8435 341.63 93.86Z" fill="#263238"/>
<path d="M346 80.56C345.634 80.2011 345.186 79.9356 344.695 79.7859C344.204 79.6362 343.685 79.6068 343.18 79.7C343.078 79.7217 342.972 79.7038 342.883 79.6499C342.794 79.596 342.728 79.5103 342.7 79.41C342.675 79.308 342.69 79.2003 342.742 79.1092C342.795 79.018 342.88 78.9503 342.98 78.92C343.607 78.7913 344.256 78.8149 344.872 78.9889C345.488 79.1629 346.053 79.4822 346.52 79.92C346.593 79.9992 346.633 80.1027 346.633 80.21C346.633 80.3173 346.593 80.4208 346.52 80.5C346.465 80.5447 346.405 80.5817 346.34 80.61C346.283 80.6261 346.223 80.63 346.165 80.6214C346.106 80.6128 346.05 80.5918 346 80.56Z" fill="#263238"/>
<path d="M332.45 83.39H332.4C332.305 83.3581 332.226 83.2896 332.181 83.1996C332.136 83.1096 332.129 83.0055 332.16 82.91C332.306 82.2782 332.604 81.6914 333.027 81.2001C333.451 80.7088 333.987 80.3279 334.59 80.09C334.641 80.0729 334.694 80.0661 334.747 80.07C334.801 80.0739 334.852 80.0884 334.9 80.1126C334.948 80.1368 334.99 80.1703 335.024 80.2111C335.058 80.2518 335.084 80.2991 335.1 80.35C335.131 80.4534 335.121 80.565 335.07 80.6606C335.02 80.7561 334.933 80.8277 334.83 80.86C334.362 81.0485 333.946 81.3467 333.617 81.7295C333.288 82.1124 333.056 82.5687 332.94 83.06C332.921 83.1261 332.887 83.1868 332.84 83.2371C332.793 83.2875 332.735 83.3261 332.67 83.35C332.604 83.3885 332.526 83.4027 332.45 83.39Z" fill="#263238"/>
<path d="M369 116.29C372.259 121.712 375.181 127.329 377.75 133.11C380.433 138.991 382.578 145.102 384.16 151.37C384.34 152.17 384.5 153.04 384.67 153.85C384.75 154.31 384.84 154.6 384.91 155.18C385.004 155.763 385.064 156.35 385.09 156.94C385.171 159.109 384.87 161.275 384.2 163.34C383.035 166.794 381.283 170.022 379.02 172.88C374.963 178.01 370.116 182.462 364.66 186.07L360.56 181.16C364.409 176.904 367.822 172.275 370.75 167.34C372.01 165.202 372.941 162.886 373.51 160.47C373.673 159.589 373.697 158.688 373.58 157.8C373.55 157.635 373.51 157.471 373.46 157.31C373.46 157.11 373.29 156.69 373.22 156.39C373.03 155.74 372.87 155.1 372.66 154.39C370.85 148.936 368.658 143.616 366.1 138.47C363.56 133.21 360.73 127.86 357.91 122.85L369 116.29Z" fill="#E08585"/>
<path d="M355.46 125.7C357.361 131.086 360.007 136.178 363.32 140.83L382.25 135.58C382.25 135.58 374.58 113.49 366.72 111.33C357.21 108.74 351.48 115 355.46 125.7Z" fill="white"/>
<path d="M366.64 184.24C366.64 188.46 358.93 190.09 358.93 190.09L355.51 182L364.14 179.73L366.64 184.24Z" fill="#E08585"/>
<path d="M355.5 181.98L358.93 190.09L354.74 193.9L352.19 187.48L355.5 181.98Z" fill="#E08585"/>
<path d="M341.13 91.65C340.62 91.9421 340.043 92.0958 339.455 92.0958C338.867 92.0958 338.29 91.9421 337.78 91.65C338.783 89.6306 339.506 87.4843 339.93 85.27" fill="#A54E49"/>
<path d="M288.69 118.62L289.47 111.43" stroke="white" stroke-width="0.8" stroke-miterlimit="10" stroke-linecap="round"/>
<path d="M294.74 121.87L297.86 120.33" stroke="white" stroke-width="0.8" stroke-miterlimit="10" stroke-linecap="round"/>
<path d="M292.52 118.62L294.74 114.45" stroke="white" stroke-width="0.8" stroke-miterlimit="10" stroke-linecap="round"/>
<path d="M281.26 121.56L290.55 121.42L295.69 140.65L286.4 140.79L281.26 121.56Z" fill="#263238"/>
<path d="M280.32 121.56L289.6 121.42L294.74 140.65L285.45 140.79L280.32 121.56Z" fill="#263238"/>
<path d="M151.07 121.88C150.888 121.892 150.706 121.867 150.534 121.807C150.362 121.747 150.205 121.653 150.07 121.53C149.827 121.255 149.701 120.896 149.72 120.53V112.93C149.71 112.748 149.735 112.567 149.795 112.395C149.855 112.223 149.949 112.065 150.07 111.93C150.204 111.807 150.362 111.712 150.534 111.652C150.706 111.592 150.888 111.567 151.07 111.58C151.252 111.566 151.435 111.59 151.607 111.65C151.779 111.711 151.937 111.806 152.07 111.93C152.191 112.065 152.285 112.223 152.345 112.395C152.405 112.567 152.43 112.748 152.42 112.93V119.65H156C156.152 119.64 156.305 119.66 156.449 119.71C156.594 119.76 156.727 119.838 156.84 119.94C157.04 120.168 157.151 120.461 157.151 120.765C157.151 121.069 157.04 121.362 156.84 121.59C156.728 121.694 156.595 121.774 156.451 121.824C156.306 121.874 156.153 121.893 156 121.88H151.07ZM159.37 113.52C158.986 113.546 158.606 113.433 158.3 113.2C158.069 112.947 157.941 112.617 157.941 112.275C157.941 111.933 158.069 111.603 158.3 111.35C158.606 111.117 158.986 111.004 159.37 111.03C160.37 111.03 160.82 111.44 160.82 112.27C160.831 112.444 160.803 112.618 160.737 112.779C160.671 112.94 160.57 113.084 160.44 113.2C160.135 113.435 159.754 113.549 159.37 113.52ZM159.37 122.02C159.186 122.037 159.001 122.012 158.828 121.948C158.655 121.884 158.499 121.782 158.37 121.65C158.131 121.354 158.013 120.979 158.04 120.6V116C158.026 115.638 158.143 115.283 158.37 115C158.633 114.762 158.975 114.63 159.33 114.63C159.685 114.63 160.027 114.762 160.29 115C160.535 115.274 160.664 115.633 160.65 116V120.62C160.674 121.001 160.553 121.376 160.31 121.67C160.184 121.786 160.035 121.874 159.874 121.931C159.712 121.988 159.541 122.011 159.37 122V122.02ZM165.86 122.02C165.127 122.033 164.402 121.876 163.74 121.56C163.162 121.272 162.682 120.82 162.36 120.26C162.014 119.652 161.841 118.96 161.86 118.26C161.838 117.56 162.011 116.867 162.36 116.26C162.682 115.705 163.163 115.26 163.74 114.98C164.676 114.544 165.726 114.414 166.74 114.61C167.084 114.664 167.42 114.761 167.74 114.9C167.943 114.977 168.113 115.122 168.22 115.31C168.316 115.484 168.357 115.682 168.34 115.88C168.332 116.08 168.27 116.273 168.16 116.44C168.069 116.601 167.918 116.72 167.74 116.77C167.64 116.799 167.536 116.808 167.433 116.796C167.33 116.784 167.23 116.752 167.14 116.7C166.828 116.552 166.486 116.477 166.14 116.48C165.918 116.468 165.696 116.503 165.489 116.584C165.282 116.665 165.095 116.79 164.94 116.95C164.64 117.318 164.491 117.786 164.52 118.26C164.491 118.746 164.64 119.226 164.94 119.61C165.095 119.77 165.282 119.895 165.489 119.976C165.696 120.057 165.918 120.092 166.14 120.08C166.3 120.095 166.46 120.095 166.62 120.08C166.792 120.041 166.96 119.984 167.12 119.91C167.21 119.858 167.31 119.826 167.414 119.815C167.517 119.805 167.622 119.817 167.72 119.85C167.894 119.909 168.04 120.03 168.13 120.19C168.238 120.35 168.297 120.537 168.3 120.73C168.319 120.93 168.281 121.131 168.19 121.31C168.076 121.498 167.899 121.64 167.69 121.71C167.386 121.843 167.067 121.941 166.74 122C166.449 122.046 166.154 122.062 165.86 122.05V122.02ZM173.05 122.02C172.265 122.036 171.487 121.879 170.77 121.56C170.165 121.277 169.657 120.821 169.31 120.25C168.97 119.638 168.792 118.95 168.792 118.25C168.792 117.55 168.97 116.862 169.31 116.25C169.63 115.7 170.093 115.247 170.65 114.94C171.26 114.6 171.951 114.43 172.65 114.45C173.303 114.432 173.949 114.591 174.52 114.91C175.056 115.204 175.486 115.659 175.75 116.21C176.061 116.83 176.212 117.517 176.19 118.21C176.19 118.59 175.96 118.78 175.51 118.78H171.35C171.375 118.977 171.439 119.167 171.538 119.339C171.638 119.511 171.771 119.661 171.93 119.78C172.309 120.008 172.748 120.116 173.19 120.09C173.435 120.088 173.679 120.064 173.92 120.02C174.195 119.972 174.464 119.891 174.72 119.78C174.845 119.726 174.979 119.699 175.115 119.699C175.251 119.699 175.385 119.726 175.51 119.78C175.615 119.83 175.708 119.903 175.783 119.992C175.857 120.082 175.911 120.187 175.94 120.3C176.024 120.526 176.024 120.774 175.94 121C175.839 121.244 175.644 121.439 175.4 121.54C175.05 121.704 174.68 121.822 174.3 121.89C173.891 121.991 173.471 122.044 173.05 122.05V122.02ZM172.7 116.18C172.334 116.162 171.975 116.288 171.7 116.53C171.442 116.806 171.278 117.156 171.23 117.53H174C173.997 117.162 173.862 116.807 173.62 116.53C173.499 116.413 173.354 116.324 173.195 116.269C173.036 116.214 172.867 116.193 172.7 116.21V116.18ZM178.52 121.99C178.339 122.005 178.157 121.983 177.985 121.924C177.812 121.866 177.654 121.772 177.52 121.65C177.286 121.372 177.171 121.012 177.2 120.65V115.81C177.174 115.636 177.189 115.458 177.243 115.291C177.297 115.123 177.389 114.97 177.512 114.844C177.635 114.718 177.786 114.623 177.952 114.565C178.118 114.507 178.295 114.488 178.47 114.51C178.629 114.49 178.791 114.504 178.944 114.552C179.097 114.6 179.238 114.68 179.358 114.787C179.477 114.895 179.573 115.026 179.637 115.173C179.701 115.32 179.733 115.48 179.73 115.64C179.978 115.269 180.324 114.974 180.73 114.79C181.153 114.583 181.619 114.477 182.09 114.48C182.444 114.452 182.799 114.506 183.129 114.638C183.458 114.77 183.753 114.976 183.99 115.24C184.462 115.925 184.684 116.751 184.62 117.58V120.65C184.64 120.827 184.621 121.005 184.563 121.173C184.505 121.341 184.41 121.494 184.286 121.621C184.161 121.747 184.01 121.845 183.842 121.905C183.675 121.965 183.497 121.988 183.32 121.97C183.142 121.992 182.962 121.972 182.793 121.913C182.624 121.854 182.471 121.757 182.346 121.629C182.22 121.502 182.125 121.347 182.069 121.178C182.013 121.008 181.996 120.827 182.02 120.65V117.65C182.05 117.322 181.966 116.993 181.78 116.72C181.703 116.624 181.603 116.549 181.49 116.5C181.376 116.451 181.253 116.43 181.13 116.44C180.955 116.433 180.781 116.463 180.619 116.529C180.457 116.594 180.311 116.693 180.19 116.82C179.946 117.094 179.82 117.454 179.84 117.82V120.63C179.874 120.813 179.863 121.001 179.81 121.179C179.756 121.357 179.661 121.52 179.532 121.654C179.403 121.788 179.244 121.889 179.068 121.949C178.892 122.01 178.704 122.027 178.52 122V121.99ZM189.77 121.99C189.037 122.004 188.311 121.847 187.65 121.53C187.069 121.243 186.585 120.791 186.26 120.23C185.918 119.62 185.746 118.929 185.76 118.23C185.743 117.53 185.916 116.839 186.26 116.23C186.586 115.675 187.07 115.23 187.65 114.95C188.31 114.629 189.037 114.471 189.77 114.49C190.069 114.492 190.367 114.522 190.66 114.58C191.004 114.635 191.34 114.732 191.66 114.87C191.867 114.944 192.041 115.089 192.15 115.28C192.242 115.455 192.281 115.653 192.26 115.85C192.256 116.049 192.197 116.243 192.09 116.41C191.995 116.572 191.841 116.69 191.66 116.74C191.562 116.769 191.459 116.778 191.358 116.766C191.256 116.754 191.158 116.721 191.07 116.67C190.757 116.523 190.416 116.448 190.07 116.45C189.848 116.437 189.626 116.472 189.419 116.553C189.211 116.635 189.024 116.76 188.87 116.92C188.568 117.287 188.414 117.755 188.44 118.23C188.414 118.717 188.567 119.198 188.87 119.58C189.024 119.74 189.211 119.865 189.419 119.947C189.626 120.028 189.848 120.063 190.07 120.05C190.23 120.064 190.39 120.064 190.55 120.05C190.722 120.01 190.889 119.953 191.05 119.88C191.138 119.828 191.237 119.796 191.338 119.785C191.44 119.775 191.543 119.787 191.64 119.82C191.727 119.847 191.809 119.89 191.879 119.949C191.95 120.007 192.008 120.079 192.05 120.16C192.161 120.319 192.224 120.506 192.23 120.7C192.25 120.901 192.208 121.103 192.11 121.28C192.003 121.47 191.828 121.613 191.62 121.68C191.315 121.812 190.997 121.909 190.67 121.97C190.373 122.026 190.072 122.053 189.77 122.05V121.99ZM194.47 113.46C194.086 113.488 193.705 113.374 193.4 113.14C193.162 112.891 193.03 112.559 193.03 112.215C193.03 111.871 193.162 111.539 193.4 111.29C193.705 111.056 194.086 110.942 194.47 110.97C195.47 110.97 195.91 111.38 195.91 112.21C195.923 112.384 195.896 112.559 195.83 112.72C195.764 112.881 195.661 113.025 195.53 113.14C195.238 113.397 194.859 113.533 194.47 113.52V113.46ZM194.47 121.96C194.287 121.974 194.102 121.948 193.93 121.884C193.757 121.82 193.6 121.72 193.47 121.59C193.239 121.291 193.125 120.917 193.15 120.54V116C193.137 115.64 193.25 115.286 193.47 115C193.599 114.868 193.755 114.766 193.928 114.702C194.101 114.638 194.286 114.613 194.47 114.63C194.654 114.612 194.839 114.636 195.013 114.7C195.186 114.764 195.342 114.867 195.47 115C195.708 115.278 195.833 115.635 195.82 116V120.62C195.847 120.999 195.729 121.374 195.49 121.67C195.353 121.794 195.192 121.888 195.016 121.945C194.84 122.002 194.654 122.021 194.47 122V121.96ZM199.79 121.96C199.28 121.967 198.774 121.861 198.31 121.65C197.91 121.465 197.566 121.179 197.31 120.82C197.077 120.452 196.956 120.025 196.96 119.59C196.936 119.143 197.083 118.703 197.37 118.36C197.725 118.006 198.184 117.775 198.68 117.7C199.474 117.552 200.282 117.485 201.09 117.5H201.65V117.29C201.666 117.153 201.649 117.015 201.6 116.886C201.551 116.757 201.473 116.642 201.37 116.55C201.098 116.374 200.773 116.296 200.45 116.33C200.181 116.333 199.913 116.363 199.65 116.42C199.309 116.48 198.975 116.57 198.65 116.69C198.526 116.752 198.389 116.785 198.25 116.785C198.111 116.785 197.974 116.752 197.85 116.69C197.644 116.572 197.493 116.378 197.43 116.15C197.368 115.909 197.393 115.654 197.5 115.43C197.569 115.301 197.663 115.187 197.776 115.094C197.889 115.001 198.02 114.932 198.16 114.89C198.926 114.623 199.729 114.475 200.54 114.45C201.492 114.374 202.44 114.651 203.2 115.23C203.514 115.549 203.756 115.932 203.908 116.354C204.059 116.775 204.118 117.224 204.08 117.67V120.67C204.08 121.55 203.68 121.99 202.88 121.99C202.72 122.008 202.557 121.991 202.405 121.939C202.252 121.887 202.112 121.802 201.996 121.691C201.88 121.579 201.789 121.443 201.731 121.293C201.673 121.142 201.649 120.981 201.66 120.82C201.533 121.182 201.286 121.489 200.96 121.69C200.614 121.922 200.207 122.048 199.79 122.05V121.96ZM200.37 120.26C200.708 120.268 201.035 120.142 201.28 119.91C201.406 119.793 201.504 119.65 201.57 119.491C201.635 119.333 201.666 119.162 201.66 118.99V118.73H201.1C200.668 118.706 200.236 118.77 199.83 118.92C199.713 118.961 199.611 119.038 199.541 119.141C199.471 119.243 199.435 119.366 199.44 119.49C199.439 119.593 199.458 119.694 199.498 119.789C199.538 119.883 199.596 119.969 199.67 120.04C199.761 120.135 199.869 120.211 199.989 120.265C200.109 120.318 200.239 120.347 200.37 120.35V120.26ZM206.91 121.93C206.729 121.946 206.546 121.925 206.374 121.866C206.202 121.808 206.044 121.713 205.91 121.59C205.792 121.454 205.702 121.295 205.647 121.123C205.592 120.951 205.573 120.77 205.59 120.59V115.75C205.564 115.576 205.579 115.398 205.633 115.231C205.687 115.063 205.779 114.91 205.902 114.784C206.025 114.658 206.176 114.563 206.342 114.505C206.508 114.447 206.685 114.428 206.86 114.45C207.017 114.428 207.178 114.441 207.33 114.487C207.482 114.533 207.622 114.612 207.741 114.717C207.859 114.823 207.954 114.953 208.018 115.098C208.081 115.244 208.113 115.401 208.11 115.56C208.326 115.211 208.629 114.925 208.99 114.73C209.398 114.52 209.851 114.414 210.31 114.42C210.748 114.41 211.181 114.521 211.56 114.74C211.937 114.973 212.225 115.325 212.38 115.74C212.611 115.318 212.958 114.971 213.38 114.74C213.802 114.506 214.278 114.386 214.76 114.39C215.108 114.363 215.457 114.418 215.78 114.55C216.103 114.682 216.391 114.887 216.62 115.15C217.083 115.838 217.298 116.663 217.23 117.49V120.56C217.248 120.742 217.226 120.926 217.165 121.099C217.105 121.271 217.007 121.429 216.88 121.56C216.696 121.76 216.454 121.897 216.188 121.952C215.922 122.006 215.645 121.977 215.397 121.866C215.148 121.756 214.941 121.571 214.803 121.336C214.666 121.102 214.605 120.831 214.63 120.56V117.56C214.656 117.248 214.59 116.935 214.44 116.66C214.37 116.561 214.274 116.483 214.163 116.434C214.052 116.385 213.93 116.366 213.81 116.38C213.651 116.373 213.493 116.404 213.349 116.47C213.205 116.536 213.078 116.635 212.98 116.76C212.777 117.082 212.679 117.46 212.7 117.84V120.56C212.724 120.737 212.708 120.918 212.651 121.088C212.595 121.257 212.5 121.412 212.374 121.539C212.249 121.667 212.096 121.764 211.927 121.823C211.758 121.882 211.578 121.902 211.4 121.88C211.223 121.898 211.045 121.875 210.878 121.815C210.711 121.755 210.559 121.657 210.434 121.531C210.31 121.404 210.215 121.251 210.157 121.083C210.099 120.915 210.08 120.737 210.1 120.56V117.56C210.126 117.248 210.06 116.935 209.91 116.66C209.84 116.561 209.744 116.483 209.633 116.434C209.522 116.385 209.4 116.366 209.28 116.38C209.123 116.375 208.967 116.406 208.825 116.472C208.682 116.538 208.557 116.637 208.46 116.76C208.26 117.083 208.166 117.461 208.19 117.84V120.56C208.235 120.744 208.235 120.936 208.189 121.12C208.144 121.304 208.054 121.475 207.928 121.616C207.802 121.758 207.644 121.867 207.466 121.934C207.289 122.001 207.098 122.023 206.91 122V121.93ZM222.7 121.93C221.915 121.946 221.137 121.789 220.42 121.47C219.817 121.184 219.31 120.729 218.96 120.16C218.627 119.546 218.452 118.859 218.452 118.16C218.452 117.461 218.627 116.774 218.96 116.16C219.281 115.607 219.748 115.154 220.31 114.85C220.905 114.515 221.578 114.346 222.26 114.36C222.914 114.341 223.56 114.5 224.13 114.82C224.666 115.114 225.096 115.569 225.36 116.12C225.671 116.74 225.822 117.427 225.8 118.12C225.8 118.5 225.58 118.69 225.13 118.69H220.96C220.986 118.888 221.052 119.078 221.154 119.25C221.255 119.422 221.39 119.571 221.55 119.69C221.925 119.918 222.362 120.026 222.8 120C223.045 119.998 223.289 119.975 223.53 119.93C223.809 119.883 224.081 119.803 224.34 119.69C224.465 119.636 224.599 119.609 224.735 119.609C224.871 119.609 225.005 119.636 225.13 119.69C225.233 119.742 225.323 119.816 225.395 119.905C225.468 119.995 225.52 120.099 225.55 120.21C225.634 120.436 225.634 120.684 225.55 120.91C225.449 121.154 225.254 121.349 225.01 121.45C224.664 121.614 224.297 121.732 223.92 121.8C223.524 121.928 223.115 122.012 222.7 122.05V121.93ZM222.35 116.09C222.168 116.079 221.987 116.104 221.815 116.164C221.643 116.225 221.485 116.318 221.35 116.44C221.089 116.713 220.924 117.064 220.88 117.44H223.6C223.593 117.073 223.458 116.719 223.22 116.44C222.971 116.253 222.659 116.171 222.35 116.21V116.09ZM228.18 121.9C227.999 121.913 227.817 121.89 227.645 121.832C227.474 121.773 227.315 121.681 227.18 121.56C226.946 121.282 226.831 120.922 226.86 120.56V115.72C226.834 115.546 226.849 115.368 226.903 115.201C226.957 115.033 227.049 114.88 227.172 114.754C227.295 114.628 227.446 114.533 227.612 114.475C227.778 114.417 227.955 114.398 228.13 114.42C228.289 114.4 228.451 114.414 228.604 114.462C228.757 114.51 228.898 114.59 229.018 114.697C229.137 114.805 229.233 114.936 229.297 115.083C229.361 115.23 229.393 115.39 229.39 115.55C229.638 115.179 229.984 114.884 230.39 114.7C230.814 114.494 231.279 114.388 231.75 114.39C232.104 114.362 232.459 114.416 232.789 114.548C233.118 114.68 233.413 114.886 233.65 115.15C234.122 115.835 234.344 116.661 234.28 117.49V120.56C234.325 120.744 234.325 120.936 234.279 121.12C234.234 121.304 234.144 121.475 234.018 121.616C233.892 121.758 233.734 121.867 233.556 121.934C233.379 122.001 233.188 122.023 233 122C232.823 122.018 232.645 121.995 232.478 121.935C232.311 121.875 232.159 121.777 232.034 121.651C231.91 121.524 231.815 121.371 231.757 121.203C231.699 121.035 231.68 120.857 231.7 120.68V117.68C231.728 117.353 231.647 117.026 231.47 116.75C231.39 116.655 231.288 116.579 231.174 116.531C231.059 116.482 230.934 116.461 230.81 116.47C230.635 116.464 230.461 116.494 230.299 116.56C230.137 116.625 229.991 116.724 229.87 116.85C229.626 117.124 229.5 117.484 229.52 117.85V120.66C229.552 120.843 229.539 121.031 229.482 121.208C229.426 121.385 229.328 121.546 229.197 121.677C229.066 121.808 228.905 121.906 228.728 121.962C228.551 122.019 228.363 122.032 228.18 122V121.9ZM239.52 121.9C238.645 121.969 237.778 121.697 237.1 121.14C236.818 120.831 236.603 120.467 236.467 120.072C236.331 119.676 236.278 119.257 236.31 118.84V116.46H235.81C235.661 116.503 235.504 116.512 235.351 116.484C235.198 116.456 235.054 116.393 234.93 116.3C234.806 116.207 234.705 116.086 234.636 115.947C234.566 115.808 234.53 115.655 234.53 115.5C234.53 115.345 234.566 115.192 234.636 115.053C234.705 114.914 234.806 114.793 234.93 114.7C235.054 114.607 235.198 114.544 235.351 114.516C235.504 114.488 235.661 114.497 235.81 114.54H236.31V113.64C236.294 113.459 236.315 113.276 236.374 113.104C236.432 112.932 236.527 112.774 236.65 112.64C236.782 112.514 236.94 112.419 237.113 112.36C237.285 112.301 237.469 112.281 237.65 112.3C237.828 112.276 238.009 112.294 238.179 112.353C238.349 112.411 238.503 112.508 238.629 112.636C238.755 112.764 238.85 112.919 238.905 113.09C238.961 113.261 238.976 113.442 238.95 113.62V114.52H240.15C240.81 114.52 241.15 114.84 241.15 115.52C241.175 115.657 241.166 115.798 241.125 115.93C241.083 116.063 241.01 116.184 240.912 116.282C240.814 116.38 240.693 116.453 240.56 116.495C240.428 116.536 240.287 116.545 240.15 116.52H238.95V118.81C238.921 118.961 238.926 119.116 238.966 119.264C239.006 119.412 239.08 119.549 239.182 119.664C239.283 119.779 239.41 119.869 239.552 119.927C239.694 119.986 239.847 120.011 240 120C240.13 120.015 240.26 120.015 240.39 120C240.506 119.987 240.624 119.987 240.74 120C240.81 119.992 240.881 120.001 240.947 120.025C241.013 120.049 241.072 120.089 241.12 120.14C241.248 120.346 241.301 120.59 241.27 120.83C241.278 121.086 241.234 121.341 241.14 121.58C241.043 121.775 240.875 121.925 240.67 122C240.488 122.06 240.3 122.1 240.11 122.12C239.912 122.114 239.714 122.09 239.52 122.05V121.9ZM245.52 121.9C244.797 121.912 244.081 121.754 243.43 121.44C242.852 121.152 242.372 120.7 242.05 120.14C241.701 119.533 241.528 118.84 241.55 118.14C241.526 117.44 241.699 116.747 242.05 116.14C242.372 115.58 242.852 115.128 243.43 114.84C244.08 114.521 244.797 114.363 245.52 114.38C246.244 114.361 246.961 114.519 247.61 114.84C248.192 115.122 248.674 115.576 248.99 116.14C249.333 116.749 249.502 117.441 249.48 118.14C249.5 118.839 249.331 119.53 248.99 120.14C248.674 120.704 248.192 121.158 247.61 121.44C246.979 121.806 246.269 122.015 245.54 122.05L245.52 121.9ZM245.52 119.98C245.709 119.988 245.898 119.952 246.071 119.876C246.244 119.8 246.398 119.685 246.52 119.54C246.807 119.132 246.941 118.637 246.9 118.14C246.945 117.643 246.81 117.146 246.52 116.74C246.4 116.593 246.247 116.476 246.073 116.4C245.899 116.323 245.71 116.289 245.52 116.3C245.331 116.292 245.142 116.328 244.969 116.404C244.796 116.48 244.642 116.595 244.52 116.74C244.23 117.146 244.095 117.643 244.14 118.14C244.099 118.637 244.233 119.132 244.52 119.54C244.63 119.713 244.78 119.858 244.957 119.96C245.135 120.063 245.335 120.121 245.54 120.13L245.52 119.98Z" fill="white"/>
<path d="M193.56 157.62C193.37 157.648 193.177 157.632 192.995 157.572C192.813 157.513 192.647 157.411 192.511 157.276C192.375 157.141 192.273 156.977 192.212 156.795C192.151 156.613 192.133 156.42 192.16 156.23V148.7C192.133 148.51 192.151 148.317 192.212 148.135C192.273 147.954 192.375 147.789 192.511 147.654C192.647 147.519 192.813 147.417 192.995 147.358C193.177 147.298 193.37 147.282 193.56 147.31H196.42C197.925 147.214 199.41 147.697 200.57 148.66C201.078 149.148 201.473 149.741 201.729 150.397C201.984 151.053 202.094 151.757 202.05 152.46C202.091 153.164 201.981 153.869 201.725 154.526C201.47 155.184 201.076 155.779 200.57 156.27C199.41 157.233 197.925 157.716 196.42 157.62H193.56ZM194.84 155.44H196.25C196.656 155.473 197.065 155.425 197.453 155.3C197.84 155.175 198.2 154.974 198.51 154.71C198.778 154.404 198.983 154.047 199.112 153.661C199.241 153.274 199.291 152.866 199.26 152.46C199.293 152.055 199.244 151.648 199.115 151.263C198.986 150.878 198.78 150.523 198.51 150.22C198.2 149.955 197.841 149.754 197.453 149.629C197.065 149.504 196.656 149.457 196.25 149.49H194.84V155.44ZM205 157.75C204.817 157.769 204.632 157.747 204.459 157.685C204.286 157.623 204.129 157.524 203.999 157.393C203.87 157.263 203.771 157.105 203.711 156.931C203.65 156.758 203.63 156.573 203.65 156.39V148.67C203.631 148.487 203.654 148.302 203.715 148.128C203.777 147.955 203.877 147.797 204.007 147.667C204.137 147.536 204.295 147.437 204.468 147.375C204.642 147.313 204.827 147.291 205.01 147.31H208.61C209.098 147.277 209.587 147.34 210.051 147.496C210.514 147.652 210.942 147.898 211.31 148.22C211.646 148.534 211.909 148.918 212.082 149.345C212.255 149.771 212.333 150.23 212.31 150.69C212.331 151.151 212.253 151.611 212.081 152.039C211.908 152.467 211.645 152.853 211.31 153.17C210.561 153.809 209.592 154.128 208.61 154.06H206.34V156.39C206.352 156.572 206.327 156.754 206.267 156.926C206.207 157.098 206.113 157.256 205.99 157.39C205.859 157.515 205.703 157.612 205.533 157.674C205.362 157.736 205.181 157.762 205 157.75ZM206.34 152H208.14C209.19 152 209.72 151.56 209.72 150.69C209.72 149.82 209.19 149.37 208.14 149.37H206.34V152ZM218 157.75C217.682 157.765 217.368 157.681 217.1 157.51C216.843 157.323 216.645 157.066 216.53 156.77L213 149C212.849 148.719 212.796 148.395 212.85 148.08C212.9 147.825 213.047 147.599 213.26 147.45C213.499 147.291 213.783 147.21 214.07 147.22C214.388 147.201 214.703 147.293 214.96 147.48C215.189 147.698 215.367 147.965 215.48 148.26L218.06 154.26L220.63 148.26C220.742 147.97 220.92 147.709 221.15 147.5C221.401 147.315 221.709 147.224 222.02 147.24C222.291 147.233 222.558 147.314 222.78 147.47C222.987 147.629 223.123 147.862 223.16 148.12C223.213 148.428 223.16 148.745 223.01 149.02L219.46 156.83C219.345 157.126 219.147 157.383 218.89 157.57C218.619 157.721 218.308 157.783 218 157.75ZM223.86 157.75C223.66 157.772 223.457 157.737 223.276 157.648C223.095 157.559 222.943 157.421 222.838 157.248C222.733 157.076 222.679 156.878 222.683 156.676C222.687 156.474 222.748 156.278 222.86 156.11L226.5 148.28C226.639 147.951 226.859 147.662 227.14 147.44C227.404 147.266 227.714 147.176 228.03 147.18C228.343 147.174 228.65 147.265 228.91 147.44C229.195 147.658 229.416 147.948 229.55 148.28L233.19 156.11C233.298 156.288 233.355 156.492 233.355 156.7C233.355 156.908 233.298 157.112 233.19 157.29C233.082 157.452 232.932 157.58 232.755 157.662C232.579 157.743 232.383 157.773 232.19 157.75C231.864 157.77 231.542 157.674 231.28 157.48C231.034 157.247 230.845 156.959 230.73 156.64L230.26 155.53H225.66L225.19 156.64C225.063 156.951 224.88 157.235 224.65 157.48C224.433 157.658 224.16 157.754 223.88 157.75H223.86ZM228 150.12L226.59 153.46H229.43L228 150.12ZM237.14 157.75C236.957 157.771 236.771 157.75 236.597 157.689C236.423 157.628 236.265 157.528 236.135 157.397C236.005 157.267 235.907 157.108 235.847 156.933C235.787 156.759 235.768 156.573 235.79 156.39V149.5H233.5C233.347 149.515 233.193 149.497 233.048 149.449C232.903 149.4 232.769 149.322 232.655 149.219C232.542 149.116 232.451 148.99 232.389 148.85C232.327 148.71 232.295 148.558 232.295 148.405C232.295 148.252 232.327 148.1 232.389 147.96C232.451 147.82 232.542 147.694 232.655 147.591C232.769 147.488 232.903 147.41 233.048 147.361C233.193 147.313 233.347 147.295 233.5 147.31H240.78C240.933 147.295 241.087 147.313 241.232 147.361C241.377 147.41 241.511 147.488 241.625 147.591C241.738 147.694 241.829 147.82 241.891 147.96C241.953 148.1 241.985 148.252 241.985 148.405C241.985 148.558 241.953 148.71 241.891 148.85C241.829 148.99 241.738 149.116 241.625 149.219C241.511 149.322 241.377 149.4 241.232 149.449C241.087 149.497 240.933 149.515 240.78 149.5H238.48V156.39C238.492 156.572 238.467 156.754 238.407 156.926C238.347 157.098 238.253 157.256 238.13 157.39C238.001 157.513 237.849 157.608 237.682 157.67C237.515 157.732 237.338 157.759 237.16 157.75H237.14Z" fill="white"/>
<path d="M80.6201 121.59C80.4382 121.605 80.2551 121.582 80.0828 121.521C79.9106 121.461 79.7529 121.365 79.6201 121.24C79.376 120.966 79.2502 120.606 79.2701 120.24V112.4C79.2502 112.034 79.376 111.674 79.6201 111.4C79.7529 111.275 79.9106 111.179 80.0828 111.119C80.2551 111.058 80.4382 111.035 80.6201 111.05C80.8018 111.037 80.9842 111.062 81.1562 111.122C81.3281 111.182 81.486 111.277 81.6201 111.4C81.8642 111.674 81.99 112.034 81.9701 112.4V120.22C81.99 120.586 81.8642 120.946 81.6201 121.22C81.4887 121.348 81.3317 121.448 81.1595 121.511C80.9872 121.575 80.8034 121.602 80.6201 121.59ZM85.1801 121.59C84.9984 121.603 84.816 121.578 84.6441 121.518C84.4721 121.458 84.3143 121.363 84.1801 121.24C84.0588 121.105 83.9654 120.947 83.9053 120.775C83.8453 120.603 83.8197 120.422 83.8301 120.24V112.53C83.8197 112.348 83.8453 112.167 83.9053 111.995C83.9654 111.823 84.0588 111.665 84.1801 111.53C84.3146 111.407 84.4725 111.313 84.6444 111.253C84.8162 111.193 84.9984 111.168 85.1801 111.18H88.7801C89.763 111.117 90.7317 111.44 91.4801 112.08C91.8134 112.396 92.0751 112.781 92.2476 113.207C92.4201 113.633 92.4994 114.091 92.4801 114.55C92.4997 115.012 92.4206 115.473 92.2482 115.903C92.0758 116.332 91.814 116.72 91.4801 117.04C90.7281 117.673 89.7611 117.992 88.7801 117.93H86.5201V120.25C86.5305 120.432 86.505 120.613 86.4449 120.785C86.3849 120.957 86.2915 121.115 86.1701 121.25C86.038 121.373 85.8817 121.466 85.7112 121.525C85.5406 121.583 85.3597 121.606 85.1801 121.59ZM86.5201 115.85H88.3201C89.3701 115.85 89.9001 115.41 89.9001 114.53C89.9001 113.65 89.3701 113.22 88.3201 113.22H86.5201V115.85ZM98.2101 121.59C97.8911 121.601 97.5754 121.522 97.3001 121.36C97.0502 121.162 96.8542 120.904 96.7301 120.61L93.2001 112.81C93.0495 112.528 92.9967 112.205 93.0501 111.89C93.0997 111.635 93.2467 111.409 93.4601 111.26C93.7129 111.1 94.0059 111.015 94.3051 111.015C94.6043 111.015 94.8973 111.1 95.1501 111.26C95.3851 111.471 95.5668 111.735 95.6801 112.03L98.2501 118.03L100.83 112.03C100.938 111.737 101.116 111.476 101.35 111.27C101.595 111.081 101.901 110.988 102.21 111.01C102.483 110.996 102.751 111.077 102.97 111.24C103.174 111.396 103.311 111.626 103.35 111.88C103.403 112.19 103.354 112.51 103.21 112.79L99.6601 120.59C99.5427 120.888 99.3455 121.147 99.0901 121.34C98.8281 121.509 98.5218 121.596 98.2101 121.59ZM104.07 121.59C103.877 121.605 103.683 121.569 103.508 121.487C103.333 121.405 103.182 121.278 103.07 121.12C102.961 120.946 102.903 120.745 102.903 120.54C102.903 120.335 102.961 120.134 103.07 119.96L106.71 112.12C106.843 111.79 107.064 111.502 107.35 111.29C107.614 111.121 107.921 111.031 108.235 111.031C108.549 111.031 108.856 111.121 109.12 111.29C109.406 111.502 109.627 111.79 109.76 112.12L113.4 119.96C113.506 120.139 113.561 120.342 113.561 120.55C113.561 120.758 113.506 120.961 113.4 121.14C113.289 121.297 113.137 121.422 112.961 121.501C112.786 121.58 112.592 121.611 112.4 121.59C112.076 121.609 111.755 121.517 111.49 121.33C111.243 121.092 111.052 120.801 110.93 120.48L110.47 119.37H105.86L105.39 120.48C105.267 120.796 105.084 121.085 104.85 121.33C104.629 121.507 104.353 121.599 104.07 121.59ZM108.2 114L106.8 117.35H109.63L108.23 114H108.2Z" fill="white"/>
<path d="M103.7 157.75C103.535 157.759 103.369 157.735 103.213 157.681C103.057 157.626 102.913 157.54 102.79 157.43C102.574 157.177 102.463 156.852 102.48 156.52V148.41C102.47 148.243 102.495 148.076 102.554 147.919C102.612 147.762 102.703 147.62 102.82 147.5C102.957 147.383 103.116 147.294 103.288 147.239C103.459 147.184 103.641 147.164 103.82 147.18C104.102 147.167 104.381 147.24 104.62 147.39C104.86 147.55 105.053 147.771 105.18 148.03L108.06 153.22L110.94 148.03C111.07 147.776 111.259 147.557 111.49 147.39C111.736 147.24 112.022 147.167 112.31 147.18C112.472 147.171 112.635 147.194 112.788 147.249C112.941 147.304 113.081 147.39 113.2 147.5C113.314 147.621 113.401 147.764 113.456 147.921C113.512 148.078 113.533 148.244 113.52 148.41V156.52C113.54 156.85 113.432 157.176 113.22 157.43C112.964 157.637 112.645 157.75 112.315 157.75C111.986 157.75 111.666 157.637 111.41 157.43C111.191 157.18 111.079 156.852 111.1 156.52V152L109.1 155.56C108.991 155.754 108.841 155.921 108.66 156.05C108.485 156.164 108.279 156.22 108.07 156.21C107.859 156.217 107.65 156.161 107.47 156.05C107.293 155.92 107.146 155.753 107.04 155.56L105.04 152.06V156.5C105.061 156.832 104.95 157.16 104.73 157.41C104.598 157.544 104.435 157.645 104.256 157.704C104.077 157.763 103.886 157.779 103.7 157.75ZM117.89 157.75C117.509 157.78 117.126 157.728 116.767 157.597C116.408 157.466 116.082 157.259 115.81 156.99C115.319 156.306 115.085 155.47 115.15 154.63V151.56C115.125 151.383 115.141 151.204 115.198 151.034C115.254 150.865 115.349 150.712 115.476 150.585C115.602 150.459 115.755 150.364 115.924 150.308C116.094 150.251 116.274 150.235 116.45 150.26C116.631 150.247 116.813 150.27 116.985 150.328C117.157 150.387 117.315 150.479 117.45 150.6C117.571 150.735 117.662 150.894 117.719 151.066C117.776 151.238 117.797 151.42 117.78 151.6V154.75C117.78 155.45 118.09 155.75 118.69 155.75C118.853 155.754 119.014 155.722 119.163 155.657C119.311 155.591 119.444 155.493 119.55 155.37C119.785 155.091 119.907 154.734 119.89 154.37V151.56C119.865 151.383 119.881 151.204 119.938 151.034C119.994 150.865 120.089 150.712 120.216 150.585C120.342 150.459 120.495 150.364 120.664 150.308C120.834 150.251 121.014 150.235 121.19 150.26C121.371 150.244 121.554 150.265 121.726 150.324C121.898 150.382 122.057 150.477 122.19 150.6C122.315 150.733 122.409 150.891 122.468 151.063C122.527 151.236 122.548 151.419 122.53 151.6V156.44C122.53 157.32 122.11 157.76 121.27 157.76C121.116 157.779 120.96 157.767 120.811 157.723C120.662 157.68 120.524 157.606 120.404 157.506C120.285 157.407 120.188 157.284 120.118 157.145C120.049 157.007 120.009 156.855 120 156.7C119.781 157.056 119.469 157.345 119.096 157.536C118.724 157.726 118.307 157.811 117.89 157.78V157.75ZM126.71 157.75C126.33 157.783 125.947 157.734 125.587 157.604C125.228 157.475 124.902 157.269 124.63 157C124.144 156.344 123.91 155.535 123.97 154.72V148.5C123.942 148.323 123.956 148.142 124.01 147.971C124.064 147.8 124.158 147.644 124.283 147.516C124.409 147.388 124.562 147.29 124.732 147.232C124.902 147.174 125.082 147.156 125.26 147.18C125.437 147.163 125.616 147.185 125.784 147.245C125.951 147.306 126.103 147.403 126.228 147.529C126.354 147.655 126.45 147.808 126.509 147.976C126.568 148.144 126.589 148.323 126.57 148.5V154.66C126.546 154.94 126.62 155.219 126.78 155.45C126.847 155.53 126.932 155.594 127.027 155.637C127.122 155.681 127.226 155.702 127.33 155.7H127.54L127.79 155.65C127.864 155.646 127.939 155.662 128.005 155.695C128.072 155.728 128.129 155.778 128.17 155.84C128.267 156.088 128.304 156.355 128.28 156.62C128.303 156.892 128.232 157.164 128.08 157.39C127.916 157.57 127.692 157.684 127.45 157.71C127.342 157.736 127.231 157.753 127.12 157.76L126.71 157.75ZM132.58 157.75C131.706 157.819 130.838 157.547 130.16 156.99C129.878 156.681 129.663 156.317 129.527 155.922C129.391 155.526 129.338 155.107 129.37 154.69V152.31H128.87C128.721 152.353 128.564 152.362 128.411 152.334C128.259 152.306 128.114 152.243 127.99 152.15C127.866 152.057 127.765 151.936 127.696 151.797C127.626 151.658 127.59 151.505 127.59 151.35C127.59 151.195 127.626 151.042 127.696 150.903C127.765 150.764 127.866 150.643 127.99 150.55C128.114 150.457 128.259 150.394 128.411 150.366C128.564 150.338 128.721 150.347 128.87 150.39H129.37V149.49C129.346 149.313 129.363 149.132 129.419 148.962C129.476 148.793 129.57 148.638 129.696 148.511C129.821 148.383 129.974 148.286 130.143 148.227C130.312 148.168 130.492 148.148 130.67 148.17C130.848 148.146 131.029 148.164 131.199 148.223C131.369 148.281 131.523 148.378 131.649 148.506C131.775 148.634 131.87 148.789 131.925 148.96C131.981 149.131 131.996 149.312 131.97 149.49V150.39H133.17C133.83 150.39 134.17 150.71 134.17 151.39C134.195 151.527 134.186 151.668 134.145 151.8C134.103 151.933 134.03 152.054 133.932 152.152C133.834 152.25 133.713 152.323 133.58 152.365C133.448 152.406 133.307 152.415 133.17 152.39H132V154.68C131.98 154.825 131.994 154.972 132.04 155.111C132.087 155.25 132.166 155.375 132.269 155.478C132.373 155.581 132.5 155.658 132.639 155.704C132.778 155.749 132.926 155.762 133.07 155.74C133.202 155.738 133.332 155.721 133.46 155.69C133.576 155.676 133.694 155.676 133.81 155.69C133.88 155.683 133.95 155.692 134.016 155.716C134.082 155.74 134.142 155.779 134.19 155.83C134.318 156.036 134.371 156.28 134.34 156.52C134.343 156.776 134.299 157.03 134.21 157.27C134.113 157.465 133.945 157.615 133.74 157.69C133.558 157.75 133.371 157.79 133.18 157.81C132.98 157.817 132.779 157.807 132.58 157.78V157.75ZM137.53 157.75C137.023 157.756 136.521 157.65 136.06 157.44C135.663 157.251 135.319 156.966 135.06 156.61C134.826 156.243 134.705 155.815 134.71 155.38C134.686 154.933 134.833 154.493 135.12 154.15C135.478 153.794 135.941 153.563 136.44 153.49C137.235 153.341 138.042 153.274 138.85 153.29H139.4V153.08C139.415 152.944 139.398 152.807 139.351 152.679C139.305 152.55 139.229 152.434 139.13 152.34C138.856 152.167 138.533 152.089 138.21 152.12C137.938 152.122 137.666 152.153 137.4 152.21C137.06 152.271 136.725 152.361 136.4 152.48C136.274 152.543 136.136 152.575 135.995 152.575C135.855 152.575 135.716 152.543 135.59 152.48C135.387 152.359 135.237 152.166 135.17 151.94C135.113 151.699 135.138 151.446 135.24 151.22C135.382 150.961 135.619 150.768 135.9 150.68C136.318 150.528 136.75 150.418 137.19 150.35C137.55 150.282 137.914 150.245 138.28 150.24C139.25 150.141 140.222 150.412 141 151C141.315 151.318 141.558 151.701 141.71 152.123C141.861 152.544 141.92 152.994 141.88 153.44V156.44C141.88 157.32 141.48 157.76 140.68 157.76C140.52 157.778 140.358 157.761 140.206 157.709C140.054 157.657 139.915 157.572 139.799 157.461C139.683 157.349 139.594 157.213 139.537 157.062C139.48 156.912 139.457 156.75 139.47 156.59C139.34 156.95 139.094 157.256 138.77 157.46C138.399 157.69 137.966 157.801 137.53 157.78V157.75ZM138.12 156.05C138.286 156.054 138.451 156.026 138.605 155.965C138.76 155.905 138.901 155.815 139.02 155.7C139.148 155.584 139.248 155.442 139.314 155.283C139.38 155.124 139.409 154.952 139.4 154.78V154.52H138.85C138.418 154.494 137.986 154.559 137.58 154.71C137.46 154.747 137.355 154.824 137.283 154.927C137.211 155.03 137.174 155.154 137.18 155.28C137.178 155.384 137.198 155.487 137.239 155.582C137.281 155.677 137.342 155.761 137.42 155.83C137.613 156 137.863 156.09 138.12 156.08V156.05ZM146.21 157.75C145.768 157.748 145.327 157.711 144.89 157.64C144.477 157.583 144.074 157.472 143.69 157.31C143.561 157.27 143.441 157.204 143.338 157.117C143.235 157.029 143.15 156.921 143.09 156.8C143.02 156.579 143.02 156.341 143.09 156.12C143.166 155.909 143.31 155.729 143.5 155.61C143.61 155.56 143.729 155.534 143.85 155.534C143.971 155.534 144.09 155.56 144.2 155.61C144.557 155.749 144.925 155.856 145.3 155.93C145.613 155.988 145.931 156.018 146.25 156.02C146.514 156.038 146.779 155.99 147.02 155.88C147.092 155.838 147.151 155.778 147.193 155.706C147.235 155.634 147.258 155.553 147.26 155.47C147.267 155.407 147.256 155.343 147.227 155.286C147.199 155.23 147.155 155.182 147.1 155.15C146.973 155.057 146.826 154.995 146.67 154.97L145.05 154.71C144.525 154.646 144.034 154.415 143.65 154.05C143.482 153.873 143.352 153.664 143.266 153.436C143.18 153.207 143.141 152.964 143.15 152.72C143.136 152.25 143.288 151.789 143.58 151.42C143.886 151.031 144.295 150.737 144.76 150.57C145.315 150.358 145.906 150.253 146.5 150.26C146.903 150.258 147.305 150.295 147.7 150.37C148.063 150.436 148.415 150.547 148.75 150.7C148.865 150.741 148.97 150.807 149.057 150.893C149.143 150.98 149.209 151.085 149.25 151.2C149.327 151.417 149.327 151.653 149.25 151.87C149.174 152.082 149.025 152.259 148.83 152.37C148.718 152.425 148.595 152.453 148.47 152.453C148.345 152.453 148.222 152.425 148.11 152.37C147.831 152.255 147.543 152.162 147.25 152.09C147.025 152.032 146.793 152.002 146.56 152C146.265 151.975 145.97 152.038 145.71 152.18C145.64 152.219 145.581 152.276 145.539 152.344C145.497 152.412 145.474 152.49 145.47 152.57C145.47 152.84 145.65 153 146.01 153.06L147.63 153.33C148.145 153.408 148.623 153.642 149 154C149.173 154.17 149.307 154.375 149.395 154.601C149.483 154.826 149.522 155.068 149.51 155.31C149.525 155.667 149.45 156.023 149.293 156.344C149.136 156.665 148.901 156.942 148.61 157.15C147.895 157.603 147.056 157.824 146.21 157.78V157.75Z" fill="white"/>
<path d="M159.1 188.89C158.918 188.901 158.735 188.874 158.563 188.813C158.391 188.751 158.234 188.655 158.1 188.53C157.979 188.395 157.885 188.237 157.825 188.065C157.765 187.893 157.74 187.712 157.75 187.53V180.6H155.44C155.286 180.615 155.131 180.597 154.984 180.548C154.837 180.499 154.703 180.42 154.588 180.316C154.474 180.212 154.382 180.085 154.32 179.944C154.257 179.803 154.225 179.65 154.225 179.495C154.225 179.34 154.257 179.187 154.32 179.046C154.382 178.905 154.474 178.778 154.588 178.674C154.703 178.57 154.837 178.491 154.984 178.442C155.131 178.393 155.286 178.375 155.44 178.39H162.77C162.924 178.375 163.079 178.393 163.226 178.442C163.373 178.491 163.508 178.57 163.622 178.674C163.736 178.778 163.828 178.905 163.89 179.046C163.953 179.187 163.985 179.34 163.985 179.495C163.985 179.65 163.953 179.803 163.89 179.944C163.828 180.085 163.736 180.212 163.622 180.316C163.508 180.42 163.373 180.499 163.226 180.548C163.079 180.597 162.924 180.615 162.77 180.6H160.46V187.53C160.471 187.712 160.445 187.893 160.385 188.065C160.325 188.237 160.231 188.395 160.11 188.53C159.976 188.656 159.816 188.753 159.643 188.815C159.469 188.877 159.284 188.903 159.1 188.89Z" fill="white"/>
<path d="M166 188.92C165.49 188.927 164.984 188.821 164.52 188.61C164.116 188.422 163.77 188.129 163.52 187.76C163.277 187.396 163.152 186.967 163.16 186.53C163.139 186.08 163.285 185.638 163.57 185.29C163.933 184.936 164.398 184.705 164.9 184.63C165.698 184.481 166.509 184.414 167.32 184.43H167.88V184.22C167.893 184.083 167.876 183.944 167.829 183.815C167.783 183.685 167.708 183.567 167.61 183.47C167.331 183.3 167.006 183.223 166.68 183.25C166.408 183.254 166.137 183.281 165.87 183.33C165.529 183.398 165.194 183.495 164.87 183.62C164.744 183.68 164.605 183.712 164.465 183.712C164.325 183.712 164.186 183.68 164.06 183.62C163.954 183.562 163.862 183.482 163.79 183.385C163.717 183.289 163.666 183.178 163.64 183.06C163.573 182.82 163.598 182.563 163.71 182.34C163.775 182.209 163.867 182.093 163.981 182.002C164.095 181.91 164.228 181.845 164.37 181.81C164.792 181.656 165.227 181.539 165.67 181.46C166.031 181.403 166.395 181.373 166.76 181.37C167.721 181.297 168.677 181.574 169.45 182.15C169.763 182.472 170.002 182.857 170.152 183.28C170.303 183.703 170.36 184.153 170.32 184.6V187.6C170.32 188.49 169.92 188.93 169.12 188.93C168.959 188.948 168.796 188.931 168.642 188.878C168.489 188.826 168.348 188.74 168.232 188.628C168.115 188.515 168.025 188.378 167.968 188.226C167.91 188.074 167.887 187.912 167.9 187.75C167.767 188.113 167.517 188.423 167.19 188.63C166.83 188.84 166.416 188.94 166 188.92ZM166.59 187.21C166.93 187.216 167.26 187.091 167.51 186.86C167.633 186.74 167.73 186.595 167.794 186.434C167.858 186.274 167.887 186.102 167.88 185.93V185.67H167.32C166.889 185.648 166.458 185.709 166.05 185.85C165.931 185.892 165.828 185.971 165.756 186.075C165.684 186.179 165.647 186.304 165.65 186.43C165.647 186.535 165.667 186.64 165.709 186.736C165.75 186.833 165.812 186.919 165.89 186.99C166.077 187.14 166.311 187.218 166.55 187.21H166.59Z" fill="white"/>
<path d="M172.81 188.87C172.527 188.884 172.248 188.792 172.03 188.61C171.936 188.523 171.862 188.418 171.81 188.301C171.758 188.184 171.731 188.058 171.73 187.93C171.744 187.621 171.86 187.326 172.06 187.09L173.77 185.02L172.24 183.16C172.025 182.937 171.903 182.64 171.9 182.33C171.901 182.202 171.928 182.076 171.98 181.959C172.032 181.842 172.106 181.737 172.2 181.65C172.42 181.464 172.703 181.371 172.99 181.39C173.255 181.38 173.518 181.432 173.76 181.54C173.99 181.663 174.189 181.838 174.34 182.05L175.26 183.22L176.17 182.05C176.322 181.835 176.525 181.66 176.76 181.54C176.999 181.433 177.259 181.382 177.52 181.39C177.804 181.37 178.084 181.464 178.3 181.65C178.397 181.734 178.474 181.839 178.526 181.956C178.578 182.074 178.603 182.202 178.6 182.33C178.592 182.639 178.471 182.934 178.26 183.16L176.73 185L178.45 187.07C178.66 187.3 178.781 187.598 178.79 187.91C178.788 188.039 178.758 188.167 178.703 188.284C178.647 188.401 178.568 188.506 178.47 188.59C178.247 188.77 177.966 188.863 177.68 188.85C177.419 188.857 177.159 188.806 176.92 188.7C176.687 188.577 176.485 188.403 176.33 188.19L175.24 186.81L174.15 188.19C173.996 188.394 173.802 188.564 173.58 188.69C173.343 188.815 173.078 188.877 172.81 188.87Z" fill="white"/>
<path d="M182.71 188.92C182.203 188.927 181.701 188.821 181.24 188.61C180.836 188.422 180.49 188.129 180.24 187.76C179.997 187.396 179.872 186.967 179.88 186.53C179.854 186.08 180 185.636 180.29 185.29C180.648 184.934 181.111 184.703 181.61 184.63C182.411 184.481 183.225 184.414 184.04 184.43H184.6V184.22C184.613 184.083 184.596 183.944 184.549 183.815C184.503 183.685 184.428 183.567 184.33 183.47C184.047 183.302 183.718 183.225 183.39 183.25C183.122 183.254 182.854 183.281 182.59 183.33C182.249 183.398 181.914 183.495 181.59 183.62C181.462 183.677 181.324 183.706 181.185 183.706C181.045 183.706 180.908 183.677 180.78 183.62C180.572 183.496 180.421 183.295 180.36 183.06C180.296 182.818 180.324 182.562 180.44 182.34C180.503 182.21 180.595 182.095 180.707 182.004C180.819 181.912 180.95 181.846 181.09 181.81C181.513 181.657 181.948 181.54 182.39 181.46C182.754 181.403 183.122 181.373 183.49 181.37C184.449 181.292 185.403 181.57 186.17 182.15C186.486 182.47 186.729 182.855 186.881 183.278C187.033 183.701 187.09 184.152 187.05 184.6V187.6C187.05 188.49 186.65 188.93 185.84 188.93C185.679 188.948 185.516 188.931 185.362 188.878C185.208 188.826 185.068 188.74 184.952 188.628C184.835 188.515 184.745 188.378 184.688 188.226C184.63 188.074 184.607 187.912 184.62 187.75C184.49 188.113 184.244 188.422 183.92 188.63C183.553 188.842 183.133 188.942 182.71 188.92ZM183.3 187.21C183.641 187.218 183.971 187.093 184.22 186.86C184.345 186.74 184.443 186.595 184.508 186.435C184.574 186.275 184.605 186.103 184.6 185.93V185.67H184C183.569 185.647 183.138 185.708 182.73 185.85C182.61 185.892 182.505 185.97 182.432 186.074C182.358 186.178 182.319 186.303 182.32 186.43C182.317 186.535 182.337 186.64 182.379 186.736C182.42 186.833 182.482 186.919 182.56 186.99C182.663 187.074 182.781 187.137 182.908 187.174C183.035 187.212 183.168 187.224 183.3 187.21Z" fill="white"/>
<path d="M191.44 188.92C190.998 188.918 190.556 188.881 190.12 188.81C189.704 188.754 189.297 188.643 188.91 188.48C188.788 188.446 188.674 188.387 188.575 188.308C188.476 188.228 188.395 188.129 188.336 188.016C188.277 187.904 188.241 187.78 188.232 187.654C188.222 187.527 188.239 187.4 188.28 187.28C188.351 187.066 188.497 186.885 188.69 186.77C188.798 186.715 188.918 186.686 189.04 186.686C189.162 186.686 189.282 186.715 189.39 186.77C189.752 186.904 190.123 187.011 190.5 187.09C190.813 187.148 191.131 187.178 191.45 187.18C191.719 187.202 191.989 187.15 192.23 187.03C192.302 186.988 192.362 186.929 192.404 186.857C192.446 186.785 192.469 186.703 192.47 186.62C192.473 186.556 192.46 186.492 192.433 186.434C192.405 186.377 192.362 186.327 192.31 186.29C192.18 186.205 192.033 186.147 191.88 186.12L190.25 185.86C189.721 185.799 189.226 185.567 188.84 185.2C188.671 185.022 188.54 184.811 188.454 184.581C188.368 184.351 188.329 184.105 188.34 183.86C188.328 183.385 188.476 182.921 188.76 182.54C189.072 182.153 189.483 181.859 189.95 181.69C190.51 181.482 191.103 181.38 191.7 181.39C192.106 181.385 192.511 181.418 192.91 181.49C193.276 181.559 193.632 181.673 193.97 181.83C194.087 181.871 194.193 181.937 194.281 182.023C194.369 182.11 194.437 182.214 194.48 182.33C194.557 182.547 194.557 182.783 194.48 183C194.404 183.212 194.255 183.389 194.06 183.5C193.946 183.555 193.821 183.583 193.695 183.583C193.569 183.583 193.444 183.555 193.33 183.5C193.05 183.39 192.763 183.299 192.47 183.23C192.241 183.173 192.006 183.143 191.77 183.14C191.476 183.112 191.18 183.171 190.92 183.31C190.846 183.348 190.784 183.405 190.74 183.476C190.696 183.546 190.672 183.627 190.67 183.71C190.67 183.98 190.85 184.14 191.21 184.2L192.84 184.48C193.377 184.534 193.884 184.755 194.29 185.11C194.463 185.286 194.597 185.496 194.685 185.727C194.773 185.957 194.812 186.204 194.8 186.45C194.815 186.808 194.739 187.165 194.58 187.486C194.421 187.808 194.184 188.084 193.89 188.29C193.161 188.755 192.303 188.976 191.44 188.92Z" fill="white"/>
<path d="M104.4 209.75H103.77C102.877 208.653 101.728 207.793 100.425 207.244C99.121 206.696 97.7026 206.476 96.2941 206.604C94.8856 206.733 93.5302 207.205 92.3472 207.98C91.1643 208.756 90.19 209.81 89.5101 211.05C88.3033 210.619 87.0314 210.399 85.7501 210.4C83.89 210.395 82.0574 210.849 80.4144 211.721C78.7714 212.593 77.3686 213.857 76.3301 215.4C75.2406 214.917 74.0618 214.668 72.8701 214.67C71.4944 214.666 70.1378 214.991 68.9133 215.618C67.6888 216.245 66.6319 217.156 65.8308 218.274C65.0296 219.392 64.5074 220.686 64.3077 222.047C64.108 223.408 64.2366 224.797 64.6828 226.099C65.1289 227.4 65.8797 228.576 66.8725 229.528C67.8653 230.48 69.0714 231.182 70.3901 231.573C71.7089 231.965 73.1022 232.035 74.4538 231.779C75.8054 231.523 77.0761 230.947 78.1601 230.1C79.3367 231.172 80.7269 231.983 82.2393 232.479C83.7516 232.976 85.3519 233.146 86.935 232.98C88.518 232.814 90.0479 232.314 91.4242 231.515C92.8004 230.715 93.9918 229.633 94.9201 228.34C96.1019 229.961 97.6797 231.252 99.5028 232.089C101.326 232.927 103.333 233.283 105.333 233.123C107.333 232.963 109.258 232.293 110.925 231.177C112.592 230.061 113.945 228.536 114.854 226.747C115.764 224.959 116.199 222.968 116.119 220.963C116.04 218.959 115.447 217.008 114.398 215.298C113.35 213.588 111.88 212.175 110.129 211.195C108.379 210.215 106.406 209.7 104.4 209.7V209.75Z" stroke="white" stroke-width="1.6" stroke-miterlimit="10"/>
<path d="M122.41 229.08H139.56" stroke="white" stroke-width="1.6" stroke-linecap="round" stroke-linejoin="round"/>
<path d="M125.31 221.12H135.15" stroke="white" stroke-width="1.6" stroke-linecap="round" stroke-linejoin="round"/>
<path d="M39.8101 224.29H55.4201" stroke="white" stroke-width="1.6" stroke-linecap="round" stroke-linejoin="round"/>
<path d="M46.78 230.26H56.62" stroke="white" stroke-width="1.6" stroke-linecap="round" stroke-linejoin="round"/>
</g>
<defs>
<clipPath id="clip0">
<rect width="564" height="348" fill="white"/>
</clipPath>
</defs>
</svg>
