<svg xmlns="http://www.w3.org/2000/svg" width="468" height="368" viewBox="0 0 468 368">
    <defs>
        <style>
            .cls-1{fill:#fff}.cls-3{fill:#f2f2f2}.cls-4{fill:#ccc}.cls-6{fill:#fe0060}.cls-8{fill:#991451}.cls-9{fill:#666}
        </style>
    </defs>
    <g id="ilustration_step_02" transform="translate(-2010.929 -1076.36)">
        <path id="Rectangle_682" d="M0 0H468V368H0z" class="cls-1" transform="translate(2010.929 1076.36)"/>
        <g id="Group_557" transform="translate(-4.044 -3.644)">
            <path id="Path_5257" fill="#f06" d="M2413.706 1115.591c28.022 17.8 28.775 69.932 28.6 121.213s-1.283 101.713-28.665 120.816-80.749 7.279-131.543 19.916c-50.741 12.292-98.857 48.7-142.239 45.5s-82.031-46-84.308-90.584 31.815-90.957 55.028-133.354c23.56-42.344 35.949-81.114 61.3-91.686s64.06 6.761 111.035 7.331c47.024.227 102.425-17.003 130.792.848z" opacity="0.1" transform="translate(0.093 0)"/>
            <rect id="Rectangle_683" width="396" height="255.75" class="cls-3" rx="6.061" transform="translate(2050.973 1139.421)"/>
            <rect id="Rectangle_684" width="73.387" height="220.894" class="cls-1" rx="4.452" transform="translate(2058.395 1165.165)"/>
            <rect id="Rectangle_685" width="23.283" height="5.197" class="cls-3" rx="2.546" transform="translate(2090.613 1177.231)"/>
            <rect id="Rectangle_686" width="28.295" height="5.197" class="cls-3" rx="2.546" transform="translate(2090.613 1186.512)"/>
            <rect id="Rectangle_687" width="59.027" height="5.197" class="cls-3" rx="2.546" transform="translate(2065.821 1241.3)"/>
            <rect id="Rectangle_688" width="38.939" height="5.197" class="cls-3" rx="2.068" transform="translate(2065.821 1255.143)"/>
            <rect id="Rectangle_689" width="38.939" height="5.197" class="cls-3" rx="2.068" transform="translate(2065.821 1227.457)"/>
            <rect id="Rectangle_690" width="59.027" height="5.197" class="cls-3" rx="2.546" transform="translate(2065.821 1213.613)"/>
            <rect id="Rectangle_691" width="20.109" height="20.109" class="cls-4" rx="2.02" transform="translate(2064.149 1172.837)"/>
            <rect id="Rectangle_692" width="196.573" height="23.28" fill="#4e9c82" rx="2.727" transform="translate(2139.142 1194.285)"/>
            <rect id="Rectangle_693" width="93.374" height="82.667" class="cls-1" rx="3.542" transform="translate(2344.794 1194.073)"/>
            <rect id="Rectangle_694" width="67.444" height="17.56" class="cls-6" rx="7.845" transform="translate(2269.309 1318.164)"/>
            <rect id="Rectangle_695" width="29.391" height="3.601" fill="#f2f2f2" opacity="0.8" rx="1.709" transform="translate(2288.336 1325.144)"/>
            <rect id="Rectangle_696" width="11.64" height="11.64" class="cls-3" rx="5.701" transform="translate(2144.923 1200.105)"/>
            <path id="Rectangle_697" d="M6.061 0h383.878A6.061 6.061 0 0 1 396 6.061V16.5H0V6.061A6.061 6.061 0 0 1 6.061 0z" class="cls-6" transform="translate(2050.973 1139.421)"/>
            <path id="Path_5258" d="M2185.84 1143.748h-72.605a4.442 4.442 0 0 0-4.442 4.443v7.978h81.489v-7.978a4.443 4.443 0 0 0-4.442-4.443z" class="cls-3" transform="translate(1.205 0.829)"/>
            <rect id="Rectangle_698" width="26.727" height="2.801" class="cls-4" rx="1.372" transform="translate(2123.676 1149.387)"/>
            <rect id="Rectangle_699" width="6.868" height="6.868" class="cls-6" rx="1.916" transform="translate(2113.432 1147.353)"/>
            <path id="Path_5259" d="M2115.326 1150.993h1.682a.557.557 0 1 1 .006 1.113c-.43.005-.861 0-1.29 0h-1.56a.6.6 0 0 1-.458-1.03l2.013-2.225.065-.073c-.032-.037-.073-.019-.109-.019h-1.431a.556.556 0 0 1-.325-1.012.565.565 0 0 1 .331-.1h2.72a.589.589 0 0 1 .633.618.655.655 0 0 1-.188.417q-1.009 1.11-2.014 2.223z" class="cls-1" transform="translate(1.304 0.91)"/>
            <g id="Group_555" transform="translate(2059.796 1145.465)">
                <path id="Path_5260" d="M2082.342 1147.987l.332-.752.948-2.163a.664.664 0 0 1 1.258.06.715.715 0 0 1-.054.506q-.738 1.609-1.471 3.223c-.329.721-.656 1.441-.986 2.16a.664.664 0 0 1-.976.314.657.657 0 0 1-.248-.826c.134-.311.274-.62.419-.926a.21.21 0 0 0 0-.2q-.857-1.87-1.711-3.742a.67.67 0 0 1 .233-.892.66.66 0 0 1 .961.306c.25.555.493 1.114.74 1.671z" class="cls-1" transform="translate(-2059.196 -1144.617)"/>
                <path id="Path_5261" d="M2061.577 1148.312h1.827a.606.606 0 1 1 .006 1.21c-.467.005-.934 0-1.4 0h-1.695a.653.653 0 0 1-.5-1.12l2.187-2.416.071-.08c-.035-.04-.08-.021-.118-.021h-1.554a.6.6 0 0 1-.353-1.1.618.618 0 0 1 .359-.11c.985 0 1.97-.005 2.957 0a.64.64 0 0 1 .687.671.719.719 0 0 1-.205.453q-1.095 1.206-2.187 2.415c-.022.029-.042.053-.082.098z" class="cls-1" transform="translate(-2059.615 -1144.617)"/>
                <path id="Path_5262" d="M2074.1 1145.521a2.027 2.027 0 0 0-3.041-.383c-.018.015-.033.039-.064.036l-.017-.047a.665.665 0 0 0-1.293.245v5.332a.664.664 0 1 0 1.327 0V1149.032l.082.067a2.014 2.014 0 0 0 2.75-.11 2.821 2.821 0 0 0 .256-3.468zm-1.06 2.288a1.013 1.013 0 0 1-1 .561 1.078 1.078 0 0 1-.98-.75 1.339 1.339 0 0 1-.09-.481 1.42 1.42 0 0 1 .205-.791 1.064 1.064 0 0 1 1.832 0 1.384 1.384 0 0 1 .029 1.461z" class="cls-1" transform="translate(-2059.406 -1144.618)"/>
                <path id="Path_5263" d="M2069.151 1145.368a.666.666 0 0 0-1.3-.237l-.024.052-.082-.067a2.021 2.021 0 0 0-2.856.2 2.852 2.852 0 0 0-.285 3.17 2.04 2.04 0 0 0 3.183.563c.012-.01.022-.028.053-.011a.685.685 0 0 0 .115.228.666.666 0 0 0 1.19-.412v-1.2c.006-.759.008-1.522.006-2.286zm-1.538 2.544a1.063 1.063 0 0 1-1.7.075 1.44 1.44 0 0 1 0-1.767 1.02 1.02 0 0 1 1.048-.366 1.109 1.109 0 0 1 .843.832 1.163 1.163 0 0 1 .057.374 1.413 1.413 0 0 1-.248.852z" class="cls-1" transform="translate(-2059.519 -1144.618)"/>
                <path id="Path_5264" d="M2079.668 1145.321a.621.621 0 0 0-.375-.576.673.673 0 0 0-.938.442l-.077-.065a2.013 2.013 0 0 0-2.759.088 2.825 2.825 0 0 0-.321 3.387 2.033 2.033 0 0 0 3.107.459c.016-.013.034-.022.052-.035.019.045.033.085.051.123a.666.666 0 0 0 .753.361.655.655 0 0 0 .508-.624q.005-1.781-.001-3.56zm-1.557 2.625a1.064 1.064 0 0 1-1.725-.023 1.449 1.449 0 0 1-.005-1.636 1.064 1.064 0 0 1 1.762.012 1.353 1.353 0 0 1 .238.8 1.333 1.333 0 0 1-.27.847z" class="cls-1" transform="translate(-2059.299 -1144.618)"/>
            </g>
            <g id="Group_556" transform="translate(2412.613 1144.577)">
                <circle id="Ellipse_311" cx="3.094" cy="3.094" r="3.094" class="cls-8"/>
                <circle id="Ellipse_312" cx="3.094" cy="3.094" r="3.094" class="cls-8" transform="translate(11.23)"/>
                <circle id="Ellipse_313" cx="3.094" cy="3.094" r="3.094" class="cls-8" transform="translate(22.46)"/>
            </g>
            <rect id="Rectangle_700" width="71.074" height="5.197" class="cls-3" rx="2.174" transform="translate(2161.974 1203.326)"/>
            <rect id="Rectangle_701" width="31.881" height="10.15" class="cls-3" rx="4.971" transform="translate(2296.88 1200.85)"/>
            <rect id="Rectangle_702" width="196.573" height="23.28" class="cls-1" rx="2.727" transform="translate(2139.142 1224.017)"/>
            <rect id="Rectangle_703" width="11.64" height="11.64" class="cls-3" rx="5.701" transform="translate(2144.923 1229.837)"/>
            <rect id="Rectangle_704" width="83.994" height="5.197" class="cls-3" rx="2.364" transform="translate(2161.974 1233.059)"/>
            <rect id="Rectangle_705" width="196.573" height="23.28" class="cls-1" rx="2.727" transform="translate(2139.142 1253.459)"/>
            <rect id="Rectangle_706" width="11.64" height="11.64" class="cls-3" rx="5.701" transform="translate(2144.923 1259.279)"/>
            <rect id="Rectangle_707" width="51.344" height="5.197" class="cls-3" rx="1.848" transform="translate(2161.974 1262.501)"/>
            <rect id="Rectangle_708" width="196.573" height="23.28" class="cls-1" rx="2.727" transform="translate(2138.967 1282.902)"/>
            <rect id="Rectangle_709" width="11.64" height="11.64" class="cls-3" rx="5.701" transform="translate(2144.748 1288.722)"/>
            <rect id="Rectangle_710" width="71.248" height="5.197" class="cls-3" rx="2.177" transform="translate(2161.8 1291.943)"/>
            <rect id="Rectangle_711" width="59.027" height="5.197" class="cls-3" rx="2.546" transform="translate(2353.586 1231.181)"/>
            <rect id="Rectangle_712" width="38.939" height="5.197" class="cls-3" rx="2.068" transform="translate(2353.586 1217.337)"/>
            <rect id="Rectangle_713" width="40.402" height="5.197" class="cls-3" rx="2.546" transform="translate(2353.586 1262.501)"/>
            <rect id="Rectangle_714" width="59.027" height="5.197" class="cls-4" rx="2.546" transform="translate(2353.586 1203.494)"/>
            <rect id="Rectangle_715" width="31.881" height="10.15" class="cls-3" rx="4.971" transform="translate(2296.88 1231.304)"/>
            <rect id="Rectangle_716" width="31.881" height="10.15" class="cls-3" rx="4.971" transform="translate(2296.88 1260.025)"/>
            <rect id="Rectangle_717" width="31.881" height="10.15" class="cls-3" rx="4.971" transform="translate(2296.88 1289.467)"/>
            <path id="Path_5265" d="M2143.369 1174.108a4.025 4.025 0 0 1 1.552 1.547 4.759 4.759 0 0 1 0 4.513 4.034 4.034 0 0 1-1.552 1.548 4.412 4.412 0 0 1-2.2.554h-2.025a.882.882 0 0 1-.877-.877v-6.963a.834.834 0 0 1 .258-.625.85.85 0 0 1 .618-.252h2.025a4.4 4.4 0 0 1 2.201.555zm-.877 6.214a2.412 2.412 0 0 0 .915-.973 3.305 3.305 0 0 0 0-2.875 2.412 2.412 0 0 0-.915-.975 2.546 2.546 0 0 0-1.322-.348h-1.148v5.52h1.148a2.537 2.537 0 0 0 1.322-.349z" class="cls-9" transform="translate(1.82 1.45)"/>
            <path id="Path_5266" d="M2148.062 1181.948a2.71 2.71 0 0 1-1.056-1.1 3.38 3.38 0 0 1-.376-1.617 3.555 3.555 0 0 1 .388-1.67 2.89 2.89 0 0 1 1.058-1.155 2.869 2.869 0 0 1 2.984.012 2.888 2.888 0 0 1 1.032 1.155 3.548 3.548 0 0 1 .369 1.618.687.687 0 0 1-.208.5.671.671 0 0 1-.5.213h-3.353a1.2 1.2 0 0 0 .458.658 1.435 1.435 0 0 0 .844.231 3.292 3.292 0 0 0 1.252-.245 1.119 1.119 0 0 1 .283-.051.771.771 0 0 1 .774.774.767.767 0 0 1-.142.457.736.736 0 0 1-.374.278 5.366 5.366 0 0 1-1.857.335 3.109 3.109 0 0 1-1.576-.393zm2.592-3.464a1.149 1.149 0 0 0-.411-.67 1.094 1.094 0 0 0-.7-.258 1.168 1.168 0 0 0-.716.258 1.117 1.117 0 0 0-.433.67zm-1.58-3.339a.552.552 0 0 1-.2-.463.755.755 0 0 1 .154-.439l.839-1.147a.884.884 0 0 1 .722-.426.72.72 0 0 1 .535.232.819.819 0 0 1 .226.594.8.8 0 0 1-.284.605l-1.1 1.006a.713.713 0 0 1-.478.193.68.68 0 0 1-.414-.155z" class="cls-9" transform="translate(1.995 1.432)"/>
            <path id="Path_5267" d="M2158.573 1176.4a2.869 2.869 0 0 1 1.006 1.14 3.807 3.807 0 0 1 0 3.264 2.847 2.847 0 0 1-1.006 1.14 2.58 2.58 0 0 1-2.379.221 2.814 2.814 0 0 1-.837-.542.831.831 0 0 1-.3.47.815.815 0 0 1-.529.188.858.858 0 0 1-.85-.851v-7.4a.851.851 0 0 1 1.7 0v2.683a2.576 2.576 0 0 1 .82-.536 2.6 2.6 0 0 1 2.372.226zm-.774 3.946a1.848 1.848 0 0 0 0-2.347 1.365 1.365 0 0 0-2.05 0 1.853 1.853 0 0 0 0 2.347 1.365 1.365 0 0 0 2.05 0z" class="cls-9" transform="translate(2.142 1.442)"/>
            <path id="Path_5268" d="M2161.39 1175.135a.983.983 0 1 1 .683.277.939.939 0 0 1-.683-.277zm.084 6.886a.814.814 0 0 1-.251-.6v-4.513a.848.848 0 0 1 1.451-.6.825.825 0 0 1 .251.6v4.513a.848.848 0 0 1-1.45.6z" class="cls-9" transform="translate(2.296 1.448)"/>
            <path id="Path_5269" d="M2169.213 1181.868a.874.874 0 0 1-.394.278 2.87 2.87 0 0 1-1.031.193 2.421 2.421 0 0 1-1.154-.278 1.961 1.961 0 0 1-.819-.832 2.5 2.5 0 0 1-.278-.825 8.157 8.157 0 0 1-.058-1.1v-1.636h-.619a.774.774 0 1 1 0-1.549h.619v-1.264a.857.857 0 0 1 .851-.85.81.81 0 0 1 .605.251.828.828 0 0 1 .246.6v1.264h1.16a.774.774 0 1 1 0 1.549h-1.16v2.063a1.33 1.33 0 0 0 .232.837.644.644 0 0 0 .554.245 1.593 1.593 0 0 0 .465-.077 1.046 1.046 0 0 1 .193-.026.72.72 0 0 1 .517.211.706.706 0 0 1 .219.523.659.659 0 0 1-.148.423z" class="cls-9" transform="translate(2.359 1.46)"/>
            <path id="Path_5270" d="M2171.66 1181.885a3.071 3.071 0 0 1-1.148-1.14 3.342 3.342 0 0 1 0-3.264 3.1 3.1 0 0 1 1.148-1.14 3.3 3.3 0 0 1 3.2 0 3.1 3.1 0 0 1 1.147 1.14 3.342 3.342 0 0 1 0 3.264 3.076 3.076 0 0 1-1.147 1.14 3.3 3.3 0 0 1-3.2 0zm2.623-1.6a1.847 1.847 0 0 0 0-2.347 1.364 1.364 0 0 0-2.049 0 1.851 1.851 0 0 0 0 2.347 1.364 1.364 0 0 0 2.049 0z" class="cls-9" transform="translate(2.483 1.5)"/>
            <path id="Path_5271" d="M2177.863 1181.769a.814.814 0 0 1-.252-.265.689.689 0 0 1 .109-.844.687.687 0 0 1 .5-.206.641.641 0 0 1 .284.052 3.612 3.612 0 0 0 1.5.374 1.143 1.143 0 0 0 .554-.115.385.385 0 0 0 .219-.323.4.4 0 0 0-.258-.374 5.866 5.866 0 0 0-.85-.31 8.555 8.555 0 0 1-1.065-.361 1.937 1.937 0 0 1-.722-.541 1.436 1.436 0 0 1-.3-.954 1.75 1.75 0 0 1 .671-1.431 2.724 2.724 0 0 1 1.767-.542 3.86 3.86 0 0 1 .967.116 4.641 4.641 0 0 1 .916.348.721.721 0 0 1 .29.263.7.7 0 0 1 .109.381.69.69 0 0 1-.206.5.672.672 0 0 1-.5.213.774.774 0 0 1-.3-.064 4.624 4.624 0 0 0-.689-.246 2.357 2.357 0 0 0-.587-.09.938.938 0 0 0-.542.142.424.424 0 0 0-.206.361.394.394 0 0 0 .257.36 4.448 4.448 0 0 0 .826.271 8.651 8.651 0 0 1 1.077.36 2 2 0 0 1 .729.542 1.438 1.438 0 0 1 .308.967 1.7 1.7 0 0 1-.663 1.412 3 3 0 0 1-1.889.523 3.962 3.962 0 0 1-2.054-.519z" class="cls-9" transform="translate(2.639 1.5)"/>
            <path id="Path_5272" d="M2193.634 1173.425a.815.815 0 0 1 .251.6v7.4a.85.85 0 0 1-1.677.194 2.826 2.826 0 0 1-.838.542 2.549 2.549 0 0 1-.98.193 2.522 2.522 0 0 1-1.4-.413 2.843 2.843 0 0 1-1.006-1.14 3.8 3.8 0 0 1 0-3.264 2.865 2.865 0 0 1 1.006-1.14 2.6 2.6 0 0 1 2.371-.226 2.57 2.57 0 0 1 .82.536v-2.683a.848.848 0 0 1 1.45-.6zm-1.818 6.918a1.85 1.85 0 0 0 0-2.347 1.365 1.365 0 0 0-2.05 0 1.852 1.852 0 0 0 0 2.347 1.365 1.365 0 0 0 2.05 0z" class="cls-9" transform="translate(2.849 1.442)"/>
            <path id="Path_5273" d="M2196.67 1181.885a3.07 3.07 0 0 1-1.148-1.14 3.34 3.34 0 0 1 0-3.264 3.093 3.093 0 0 1 1.148-1.14 3.306 3.306 0 0 1 3.2 0 3.1 3.1 0 0 1 1.147 1.14 3.34 3.34 0 0 1 0 3.264 3.072 3.072 0 0 1-1.147 1.14 3.3 3.3 0 0 1-3.2 0zm2.624-1.6a1.852 1.852 0 0 0 0-2.347 1.365 1.365 0 0 0-2.05 0 1.856 1.856 0 0 0 0 2.347 1.365 1.365 0 0 0 2.05 0z" class="cls-9" transform="translate(3.005 1.5)"/>
            <path id="Path_5274" d="M2212.135 1176.229a.807.807 0 0 1 .251.587.679.679 0 0 1-.078.311l-2.114 4.642a.918.918 0 0 1-.348.406.848.848 0 0 1-.5.135.82.82 0 0 1-.489-.135.923.923 0 0 1-.349-.406l-2.128-4.642a.883.883 0 0 1-.064-.311.847.847 0 0 1 .851-.838.84.84 0 0 1 .477.148.888.888 0 0 1 .323.394l1.379 3.249 1.38-3.249a.88.88 0 0 1 .322-.394.861.861 0 0 1 1.09.1z" class="cls-9" transform="translate(3.239 1.501)"/>
            <path id="Path_5275" d="M2214.4 1181.88a2.72 2.72 0 0 1-1.057-1.1 3.391 3.391 0 0 1-.375-1.617 3.546 3.546 0 0 1 .388-1.67 2.883 2.883 0 0 1 1.056-1.155 2.87 2.87 0 0 1 2.985.012 2.889 2.889 0 0 1 1.032 1.155 3.546 3.546 0 0 1 .367 1.618.687.687 0 0 1-.206.5.672.672 0 0 1-.5.213h-3.353a1.205 1.205 0 0 0 .458.658 1.433 1.433 0 0 0 .844.231 3.3 3.3 0 0 0 1.251-.245 1.116 1.116 0 0 1 .283-.051.771.771 0 0 1 .774.774.767.767 0 0 1-.142.457.735.735 0 0 1-.374.278 5.363 5.363 0 0 1-1.857.335 3.11 3.11 0 0 1-1.574-.393zm2.592-3.464a1.151 1.151 0 0 0-.411-.67 1.093 1.093 0 0 0-.7-.258 1.169 1.169 0 0 0-.717.258 1.116 1.116 0 0 0-.432.67z" class="cls-9" transform="translate(3.378 1.5)"/>
            <path id="Path_5276" d="M2220.218 1182.037a.823.823 0 0 1-.251-.6v-4.513a.851.851 0 0 1 1.7 0v4.513a.849.849 0 0 1-1.452.6zm.13-6.893a.552.552 0 0 1-.2-.463.761.761 0 0 1 .155-.439l.838-1.147a.887.887 0 0 1 .722-.426.721.721 0 0 1 .536.232.821.821 0 0 1 .226.594.794.794 0 0 1-.284.605l-1.1 1.006a.706.706 0 0 1-.477.193.674.674 0 0 1-.416-.154z" class="cls-9" transform="translate(3.524 1.432)"/>
            <path id="Path_5277" d="M2224.547 1181.885a3.07 3.07 0 0 1-1.148-1.14 3.34 3.34 0 0 1 0-3.264 3.093 3.093 0 0 1 1.148-1.14 3.159 3.159 0 0 1 1.6-.412 3.2 3.2 0 0 1 1.9.605.684.684 0 0 1 .238.278.833.833 0 0 1 .085.367.793.793 0 0 1-.787.786.729.729 0 0 1-.477-.167 1.58 1.58 0 0 0-.955-.322 1.333 1.333 0 0 0-1.025.463 1.855 1.855 0 0 0 0 2.347 1.326 1.326 0 0 0 1.025.463 1.574 1.574 0 0 0 .955-.322.734.734 0 0 1 .477-.167.795.795 0 0 1 .787.787.825.825 0 0 1-.085.366.67.67 0 0 1-.238.278 3.28 3.28 0 0 1-3.494.193z" class="cls-9" transform="translate(3.586 1.5)"/>
            <path id="Path_5278" d="M2235.125 1176.248a.81.81 0 0 1 .245.594v4.539a.841.841 0 0 1-1.393.632.8.8 0 0 1-.27-.516 2.283 2.283 0 0 1-1.845.8 2.217 2.217 0 0 1-1.7-.665 2.594 2.594 0 0 1-.626-1.85v-2.94a.839.839 0 1 1 1.677 0v2.655a1.232 1.232 0 0 0 2.115.877 1.284 1.284 0 0 0 .36-.928v-2.6a.839.839 0 0 1 1.432-.594z" class="cls-9" transform="translate(3.723 1.501)"/>
            <path id="Path_5279" d="M2237.018 1182.027a.819.819 0 0 1-.251-.6v-7.4a.851.851 0 0 1 1.7 0v7.4a.859.859 0 0 1-.851.851.826.826 0 0 1-.598-.251z" class="cls-9" transform="translate(3.874 1.442)"/>
            <path id="Path_5280" d="M2241.4 1181.885a3.079 3.079 0 0 1-1.149-1.14 3.347 3.347 0 0 1 0-3.264 3.1 3.1 0 0 1 1.149-1.14 3.306 3.306 0 0 1 3.2 0 3.1 3.1 0 0 1 1.147 1.14 3.34 3.34 0 0 1 0 3.264 3.072 3.072 0 0 1-1.147 1.14 3.3 3.3 0 0 1-3.2 0zm2.624-1.6a1.852 1.852 0 0 0 0-2.347 1.365 1.365 0 0 0-2.05 0 1.856 1.856 0 0 0 0 2.347 1.365 1.365 0 0 0 2.05 0z" class="cls-9" transform="translate(3.938 1.5)"/>
        </g>
    </g>
</svg>
