<svg xmlns="http://www.w3.org/2000/svg" width="468" height="368" viewBox="0 0 468 368">
    <defs>
        <style>
            .cls-1{fill:#fff}.cls-3{fill:#f2f2f2}.cls-4{fill:#ccc}.cls-5{fill:#fe0060}.cls-6{fill:#991451}.cls-9{fill:#8dc9b4}.cls-11{fill:#666}
        </style>
    </defs>
    <g id="ilustration_step_03" transform="translate(-2534.753 -1076.36)">
        <path id="Rectangle_719" d="M0 0H468V368H0z" class="cls-1" transform="translate(2534.753 1076.36)"/>
        <g id="Group_598">
            <path id="Path_5281" fill="#f06" d="M2555.293 1293.772c12.17-42.281 63.143-74.553 100.313-98.687 37.376-23.935 60.749-39.527 92.906-61.345 32.363-21.62 73.1-49.459 99.559-40.236 26.257 9.429 38.226 55.92 64.706 99.72 26.273 43.6 67.46 84.5 71.917 129.312 4.664 45.006-27.2 94.117-69.881 104.2-42.676 10.485-96.175-18.061-150.848-22.321-55.077-4.252-110.925 15.774-152.47-.453-41.34-16.032-68.371-67.91-56.202-110.19z" opacity="0.1"/>
            <rect id="Rectangle_720" width="386.75" height="249.776" class="cls-3" rx="6.043" transform="translate(2574.864 1137.623)"/>
            <rect id="Rectangle_721" width="198.382" height="126.757" class="cls-1" rx="3.255" transform="translate(2660.974 1222.9)"/>
            <rect id="Rectangle_722" width="71.673" height="215.734" class="cls-1" rx="4.439" transform="translate(2582.113 1162.766)"/>
            <rect id="Rectangle_723" width="22.74" height="5.076" class="cls-3" rx="2.538" transform="translate(2613.579 1174.55)"/>
            <rect id="Rectangle_724" width="27.634" height="5.076" class="cls-3" rx="2.538" transform="translate(2613.579 1183.614)"/>
            <rect id="Rectangle_725" width="57.648" height="5.076" class="cls-3" rx="2.538" transform="translate(2589.366 1237.123)"/>
            <rect id="Rectangle_726" width="38.03" height="5.076" class="cls-3" rx="2.061" transform="translate(2589.366 1250.643)"/>
            <rect id="Rectangle_727" width="38.03" height="5.076" class="cls-3" rx="2.061" transform="translate(2589.366 1223.603)"/>
            <rect id="Rectangle_728" width="57.648" height="5.076" class="cls-3" rx="2.538" transform="translate(2589.366 1210.083)"/>
            <rect id="Rectangle_729" width="19.64" height="19.64" class="cls-4" rx="2.014" transform="translate(2587.733 1170.259)"/>
            <g id="Group_562">
                <path id="Rectangle_730" d="M6.043 0h374.664a6.043 6.043 0 0 1 6.043 6.043v10.072H0V6.043A6.043 6.043 0 0 1 6.043 0z" class="cls-5" transform="translate(2574.864 1137.623)"/>
                <path id="Path_5282" d="M2707.758 1142.659h-70.908a4.34 4.34 0 0 0-4.339 4.339v7.791h79.589V1147a4.339 4.339 0 0 0-4.342-4.341z" class="cls-3"/>
                <rect id="Rectangle_731" width="26.103" height="2.735" class="cls-4" rx="1.368" transform="translate(2645.869 1147.357)"/>
                <rect id="Rectangle_732" width="6.708" height="6.708" class="cls-5" rx="1.911" transform="translate(2635.865 1145.37)"/>
                <path id="Path_5283" d="M2638.988 1149.814h1.643a.545.545 0 1 1 .006 1.088h-2.784a.587.587 0 0 1-.447-1.006l1.966-2.173.063-.071c-.032-.036-.072-.019-.106-.019h-1.4a.544.544 0 0 1-.318-.989.549.549 0 0 1 .323-.1c.886 0 1.772-.005 2.658 0a.575.575 0 0 1 .617.6.633.633 0 0 1-.184.407q-.984 1.085-1.966 2.172z" class="cls-1"/>
                <g id="Group_560">
                    <path id="Path_5284" d="M2606.086 1146.818l.324-.735.927-2.113a.648.648 0 0 1 1.228.059.7.7 0 0 1-.053.494q-.72 1.572-1.436 3.148c-.321.7-.64 1.407-.963 2.109a.65.65 0 0 1-.954.308.644.644 0 0 1-.242-.807c.131-.3.269-.6.41-.9a.207.207 0 0 0 0-.195q-.838-1.827-1.671-3.655a.655.655 0 0 1 .228-.872.644.644 0 0 1 .937.3c.245.543.482 1.089.723 1.633z" class="cls-1"/>
                    <path id="Path_5285" d="M2585.4 1147.136h1.784a.592.592 0 1 1 .007 1.182c-.456.005-.913 0-1.369 0h-1.655a.637.637 0 0 1-.486-1.093l2.136-2.36.069-.078c-.035-.038-.078-.02-.115-.02h-1.519a.59.59 0 0 1-.345-1.074.6.6 0 0 1 .351-.108c.962 0 1.925-.005 2.887 0a.624.624 0 0 1 .671.655.7.7 0 0 1-.2.443q-1.07 1.177-2.137 2.359c-.023.025-.043.05-.079.094z" class="cls-1"/>
                    <path id="Path_5286" d="M2597.828 1144.408a1.98 1.98 0 0 0-2.971-.373c-.018.015-.032.038-.062.034l-.018-.045a.649.649 0 0 0-1.262.239v5.207a.648.648 0 1 0 1.3 0v-1.633l.08.066a1.967 1.967 0 0 0 2.686-.108 2.756 2.756 0 0 0 .247-3.387zm-1.036 2.235a.989.989 0 0 1-.973.548 1.049 1.049 0 0 1-.956-.732 1.288 1.288 0 0 1-.088-.471 1.393 1.393 0 0 1 .2-.772 1.039 1.039 0 0 1 1.789 0 1.351 1.351 0 0 1 .028 1.427z" class="cls-1"/>
                    <path id="Path_5287" d="M2592.888 1144.259a.65.65 0 0 0-1.265-.231l-.024.051-.08-.067a1.973 1.973 0 0 0-2.789.2 2.781 2.781 0 0 0-.278 3.094 1.992 1.992 0 0 0 3.108.55c.012-.01.022-.027.052-.011a.679.679 0 0 0 .112.222.65.65 0 0 0 1.163-.4c.005-.389 0-.778 0-1.168.002-.749.003-1.499.001-2.24zm-1.5 2.485a1.039 1.039 0 0 1-1.661.072 1.405 1.405 0 0 1 0-1.725 1 1 0 0 1 1.024-.359 1.083 1.083 0 0 1 .823.813 1.167 1.167 0 0 1 .057.365 1.39 1.39 0 0 1-.244.834z" class="cls-1"/>
                    <path id="Path_5288" d="M2603.374 1144.213a.606.606 0 0 0-.366-.562.656.656 0 0 0-.916.432l-.076-.065a1.967 1.967 0 0 0-2.694.086 2.76 2.76 0 0 0-.314 3.309 1.985 1.985 0 0 0 3.035.448.5.5 0 0 1 .05-.034c.019.044.033.083.05.12a.649.649 0 0 0 .736.352.637.637 0 0 0 .5-.608q0-1.739-.005-3.478zm-1.52 2.564a1.039 1.039 0 0 1-1.685-.022 1.417 1.417 0 0 1-.006-1.6 1.041 1.041 0 0 1 1.722.012 1.33 1.33 0 0 1 .232.785 1.314 1.314 0 0 1-.263.825z" class="cls-1"/>
                </g>
                <g id="Group_561">
                    <circle id="Ellipse_314" cx="3.021" cy="3.021" r="3.021" class="cls-6" transform="translate(2928.057 1142.659)"/>
                    <circle id="Ellipse_315" cx="3.021" cy="3.021" r="3.021" class="cls-6" transform="translate(2939.025 1142.659)"/>
                    <circle id="Ellipse_316" cx="3.021" cy="3.021" r="3.021" class="cls-6" transform="translate(2949.993 1142.659)"/>
                </g>
            </g>
            <rect id="Rectangle_733" width="198.383" height="22.737" class="cls-1" rx="2.764" transform="translate(2660.973 1191.206)"/>
            <g id="Group_563">
                <rect id="Rectangle_734" width="11.368" height="11.368" class="cls-3" rx="5.684" transform="translate(2666.62 1196.89)"/>
                <rect id="Rectangle_735" width="25.681" height="5.076" class="cls-3" rx="2.538" transform="translate(2683.273 1200.036)"/>
            </g>
            <g id="Group_564">
                <rect id="Rectangle_736" width="11.368" height="11.368" class="cls-3" rx="5.684" transform="translate(2738.039 1196.89)"/>
                <rect id="Rectangle_737" width="25.681" height="5.076" class="cls-3" rx="2.538" transform="translate(2754.692 1200.036)"/>
            </g>
            <rect id="Rectangle_738" width="60.703" height="5.076" class="cls-4" rx="2.538" transform="translate(2668.823 1232.047)"/>
            <g id="Group_565">
                <rect id="Rectangle_739" width="11.368" height="11.368" class="cls-3" rx="5.684" transform="translate(2809.458 1196.89)"/>
                <rect id="Rectangle_740" width="25.681" height="5.076" class="cls-3" rx="2.538" transform="translate(2826.111 1200.036)"/>
            </g>
            <path id="Rectangle_741" d="M2.618 0h83.24a2.618 2.618 0 0 1 2.618 2.618v153.4a2.43 2.43 0 0 1-2.43 2.43H2.43A2.43 2.43 0 0 1 0 156.02V2.618A2.618 2.618 0 0 1 2.618 0z" class="cls-1" transform="translate(2864.668 1191.206)"/>
            <g id="Group_566">
                <rect id="Rectangle_742" width="71.5" height="17.15" class="cls-5" rx="8.575" transform="translate(2873.155 1323.022)"/>
                <rect id="Rectangle_743" width="31.158" height="3.517" fill="#f2f2f2" opacity="0.8" rx="1.729" transform="translate(2893.326 1329.838)"/>
            </g>
            <rect id="Rectangle_744" width="53.269" height="5.076" class="cls-4" rx="2.538" transform="translate(2872.504 1201.464)"/>
            <rect id="Rectangle_745" width="72.151" height="5.076" class="cls-3" rx="2.538" transform="translate(2872.504 1213.625)"/>
            <rect id="Rectangle_746" width="44.873" height="5.076" class="cls-3" rx="2.538" transform="translate(2872.504 1236.386)"/>
            <rect id="Rectangle_747" width="72.151" height="5.076" class="cls-3" rx="2.538" transform="translate(2872.504 1249.021)"/>
            <rect id="Rectangle_748" width="44.873" height="5.076" class="cls-3" rx="2.538" transform="translate(2872.504 1292.824)"/>
            <rect id="Rectangle_749" width="26.634" height="5.076" class="cls-3" rx="2.538" transform="translate(2872.504 1279.489)"/>
            <rect id="Rectangle_750" width="41.286" height="5.076" class="cls-3" rx="2.538" transform="translate(2903.369 1279.489)"/>
            <g id="Group_596">
                <rect id="Rectangle_751" width="87.453" height="54.168" fill="#4e9c82" rx="3.144" transform="translate(2668.823 1252.079)"/>
                <rect id="Rectangle_752" width="24.927" height="5.076" class="cls-4" rx="2.538" transform="translate(2680.061 1316.417)"/>
                <rect id="Rectangle_753" width="41.302" height="5.076" class="cls-9" rx="2.538" transform="translate(2677.229 1261.735)"/>
                <rect id="Rectangle_754" width="19.987" height="5.076" class="cls-9" rx="2.538" transform="translate(2728.131 1293.443)"/>
                <rect id="Rectangle_755" width="10.641" height="10.641" class="cls-9" rx="5.32" transform="translate(2676.753 1289.937)"/>
                <rect id="Rectangle_756" width="10.641" height="10.641" class="cls-9" rx="5.32" transform="translate(2683.813 1289.937)"/>
                <rect id="Rectangle_757" width="87.453" height="54.168" class="cls-3" rx="3.144" transform="translate(2764.705 1252.606)"/>
                <g id="Group_595" opacity="0.2">
                    <g id="Group_568">
                        <g id="Group_567">
                            <path id="Path_5289" d="M2820.75 1288.3a1.026 1.026 0 1 0 1.027 1.026 1.026 1.026 0 0 0-1.027-1.026z"/>
                        </g>
                    </g>
                    <g id="Group_570">
                        <g id="Group_569">
                            <path id="Path_5290" d="M2816.644 1288.3a1.026 1.026 0 1 0 1.027 1.026 1.026 1.026 0 0 0-1.027-1.026z"/>
                        </g>
                    </g>
                    <g id="Group_572">
                        <g id="Group_571">
                            <path id="Path_5291" d="M2804.325 1288.3a1.026 1.026 0 1 0 1.026 1.026 1.026 1.026 0 0 0-1.026-1.026z"/>
                        </g>
                    </g>
                    <g id="Group_574">
                        <g id="Group_573">
                            <path id="Path_5292" d="M2800.218 1288.3a1.026 1.026 0 1 0 1.027 1.026 1.026 1.026 0 0 0-1.027-1.026z"/>
                        </g>
                    </g>
                    <g id="Group_576">
                        <g id="Group_575">
                            <path id="Path_5293" d="M2796.112 1288.3a1.026 1.026 0 1 0 1.027 1.026 1.026 1.026 0 0 0-1.027-1.026z"/>
                        </g>
                    </g>
                    <g id="Group_578">
                        <g id="Group_577">
                            <path id="Path_5294" d="M2789.645 1267.764a1.026 1.026 0 0 0-1.027 1.026v20.532a1.026 1.026 0 1 0 2.053 0v-20.532a1.026 1.026 0 0 0-1.026-1.026z"/>
                        </g>
                    </g>
                    <g id="Group_580">
                        <g id="Group_579">
                            <path id="Path_5295" d="M2810.484 1267.764a1.026 1.026 0 0 0-1.026 1.026v20.532a1.026 1.026 0 1 0 2.053 0v-20.532a1.026 1.026 0 0 0-1.027-1.026z"/>
                        </g>
                    </g>
                    <g id="Group_582">
                        <g id="Group_581">
                            <path id="Path_5296" d="M2827.218 1267.764a1.026 1.026 0 0 0-1.027 1.026v20.532a1.026 1.026 0 1 0 2.053 0v-20.532a1.025 1.025 0 0 0-1.026-1.026z"/>
                        </g>
                    </g>
                    <g id="Group_584">
                        <g id="Group_583">
                            <path id="Path_5297" d="M2831.632 1261.6h-46.4a3.084 3.084 0 0 0-3.08 3.08v28.744a3.083 3.083 0 0 0 3.08 3.08h46.4a3.083 3.083 0 0 0 3.08-3.08v-28.744a3.084 3.084 0 0 0-3.08-3.08zm1.027 31.824a1.028 1.028 0 0 1-1.027 1.027h-46.4a1.027 1.027 0 0 1-1.026-1.027v-28.744a1.028 1.028 0 0 1 1.026-1.027h46.4a1.028 1.028 0 0 1 1.027 1.027z"/>
                        </g>
                    </g>
                    <g id="Group_586">
                        <g id="Group_585">
                            <path id="Path_5298" d="M2796.112 1267.764a1.026 1.026 0 0 0-1.026 1.026v16.426a1.026 1.026 0 0 0 2.053 0v-16.426a1.026 1.026 0 0 0-1.027-1.026z"/>
                        </g>
                    </g>
                    <g id="Group_588">
                        <g id="Group_587">
                            <path id="Path_5299" d="M2800.218 1267.764a1.026 1.026 0 0 0-1.026 1.026v16.426a1.027 1.027 0 0 0 2.053 0v-16.426a1.027 1.027 0 0 0-1.027-1.026z"/>
                        </g>
                    </g>
                    <g id="Group_590">
                        <g id="Group_589">
                            <path id="Path_5300" d="M2804.325 1267.764a1.026 1.026 0 0 0-1.027 1.026v16.426a1.026 1.026 0 0 0 2.053 0v-16.426a1.026 1.026 0 0 0-1.026-1.026z"/>
                        </g>
                    </g>
                    <g id="Group_592">
                        <g id="Group_591">
                            <path id="Path_5301" d="M2816.644 1267.764a1.026 1.026 0 0 0-1.027 1.026v16.426a1.027 1.027 0 0 0 2.054 0v-16.426a1.026 1.026 0 0 0-1.027-1.026z"/>
                        </g>
                    </g>
                    <g id="Group_594">
                        <g id="Group_593">
                            <path id="Path_5302" d="M2820.75 1267.764a1.025 1.025 0 0 0-1.026 1.026v16.426a1.026 1.026 0 0 0 2.053 0v-16.426a1.027 1.027 0 0 0-1.027-1.026z"/>
                        </g>
                    </g>
                </g>
                <rect id="Rectangle_758" width="6.975" height="6.975" class="cls-4" rx="1.263" transform="translate(2668.823 1315.045)"/>
                <rect id="Rectangle_759" width="24.927" height="5.076" class="cls-3" rx="2.538" transform="translate(2776.504 1316.417)"/>
                <rect id="Rectangle_760" width="6.975" height="6.975" class="cls-3" rx="1.263" transform="translate(2765.266 1315.045)"/>
            </g>
            <g id="Group_597">
                <path id="Path_5303" d="M2663.575 1173.612v2h2.046a.783.783 0 0 1 0 1.566h-2.046v2.552a.837.837 0 0 1-.246.606.863.863 0 0 1-1.472-.606v-6.821a.821.821 0 0 1 .253-.612.834.834 0 0 1 .606-.246h3.411a.781.781 0 0 1 .555 1.332.743.743 0 0 1-.555.233z" class="cls-11"/>
                <path id="Path_5304" d="M2669.007 1180.256a3 3 0 0 1-1.125-1.117 3.271 3.271 0 0 1 0-3.2 3.023 3.023 0 0 1 1.125-1.118 3.239 3.239 0 0 1 3.133 0 3.025 3.025 0 0 1 1.123 1.118 3.271 3.271 0 0 1 0 3.2 3.007 3.007 0 0 1-1.123 1.117 3.231 3.231 0 0 1-3.133 0zm2.57-1.566a1.812 1.812 0 0 0 0-2.3 1.337 1.337 0 0 0-2.008 0 1.816 1.816 0 0 0 0 2.3 1.335 1.335 0 0 0 2.008 0z" class="cls-11"/>
                <path id="Path_5305" d="M2679.036 1174.661a.821.821 0 0 1-.58 1.4 1.762 1.762 0 0 0-1.365.473 2.459 2.459 0 0 0-.429 1.649v1.579a.794.794 0 0 1-.241.575.779.779 0 0 1-.58.246.819.819 0 0 1-.822-.821v-4.446a.824.824 0 0 1 1.365-.619.782.782 0 0 1 .265.505 2.231 2.231 0 0 1 1.807-.783.789.789 0 0 1 .58.242z" class="cls-11"/>
                <path id="Path_5306" d="M2689.557 1175.053a2.554 2.554 0 0 1 .632 1.831v2.88a.821.821 0 1 1-1.642 0v-2.6a1.168 1.168 0 0 0-1.2-1.225 1.164 1.164 0 0 0-.872.366 1.257 1.257 0 0 0-.354.909v2.552a.821.821 0 1 1-1.642 0v-2.6a1.166 1.166 0 0 0-1.2-1.225 1.165 1.165 0 0 0-.872.366 1.258 1.258 0 0 0-.353.909v2.552a.821.821 0 1 1-1.643 0v-4.459a.8.8 0 0 1 .24-.574.78.78 0 0 1 .581-.247.8.8 0 0 1 .537.2.781.781 0 0 1 .272.505 2.271 2.271 0 0 1 1.806-.77 2.455 2.455 0 0 1 1.137.253 1.848 1.848 0 0 1 .77.732 2.312 2.312 0 0 1 .878-.726 2.809 2.809 0 0 1 1.232-.259 2.258 2.258 0 0 1 1.693.63z" class="cls-11"/>
                <path id="Path_5307" d="M2697.37 1174.743a.8.8 0 0 1 .246.587v4.421a.832.832 0 0 1-1.642.19 2.761 2.761 0 0 1-.821.531 2.525 2.525 0 0 1-2.33-.216 2.791 2.791 0 0 1-.985-1.117 3.719 3.719 0 0 1 0-3.2 2.808 2.808 0 0 1 .985-1.118 2.524 2.524 0 0 1 2.33-.214 2.7 2.7 0 0 1 .821.53.828.828 0 0 1 1.4-.4zm-1.781 3.947a1.813 1.813 0 0 0 0-2.3 1.337 1.337 0 0 0-2.008 0 1.812 1.812 0 0 0 0 2.3 1.335 1.335 0 0 0 2.008 0z" class="cls-11"/>
                <path id="Path_5308" d="M2699.347 1180.143a.8.8 0 0 1-.246-.259.672.672 0 0 1 .106-.827.671.671 0 0 1 .493-.2.624.624 0 0 1 .278.051 3.537 3.537 0 0 0 1.465.366 1.1 1.1 0 0 0 .543-.113.38.38 0 0 0 .216-.316.4.4 0 0 0-.253-.366 5.96 5.96 0 0 0-.834-.3 8.414 8.414 0 0 1-1.042-.354 1.878 1.878 0 0 1-.707-.53 1.4 1.4 0 0 1-.3-.934 1.713 1.713 0 0 1 .656-1.4 2.673 2.673 0 0 1 1.731-.531 3.78 3.78 0 0 1 .947.114 4.508 4.508 0 0 1 .9.341.7.7 0 0 1 .284.258.686.686 0 0 1 .108.373.675.675 0 0 1-.2.486.655.655 0 0 1-.492.209.756.756 0 0 1-.291-.063 4.474 4.474 0 0 0-.675-.24 2.312 2.312 0 0 0-.575-.089.918.918 0 0 0-.531.139.415.415 0 0 0-.2.354.384.384 0 0 0 .252.353 4.29 4.29 0 0 0 .809.266 8.454 8.454 0 0 1 1.054.353 1.94 1.94 0 0 1 .714.531 1.408 1.408 0 0 1 .3.947 1.664 1.664 0 0 1-.65 1.383 2.931 2.931 0 0 1-1.85.512 3.884 3.884 0 0 1-2.01-.514z" class="cls-11"/>
                <path id="Path_5309" d="M2715 1171.914a.8.8 0 0 1 .246.587v7.25a.831.831 0 0 1-1.641.19 2.772 2.772 0 0 1-.822.531 2.525 2.525 0 0 1-2.33-.216 2.791 2.791 0 0 1-.985-1.117 3.719 3.719 0 0 1 0-3.2 2.808 2.808 0 0 1 .985-1.118 2.546 2.546 0 0 1 2.324-.221 2.522 2.522 0 0 1 .8.525v-2.625a.83.83 0 0 1 1.421-.587zm-1.781 6.776a1.812 1.812 0 0 0 0-2.3 1.337 1.337 0 0 0-2.008 0 1.816 1.816 0 0 0 0 2.3 1.335 1.335 0 0 0 2.008 0z" class="cls-11"/>
                <path id="Path_5310" d="M2717.99 1180.251a2.651 2.651 0 0 1-1.035-1.075 3.308 3.308 0 0 1-.367-1.584 3.477 3.477 0 0 1 .379-1.636 2.835 2.835 0 0 1 1.036-1.131 2.812 2.812 0 0 1 2.924.012 2.842 2.842 0 0 1 1.01 1.131 3.476 3.476 0 0 1 .361 1.585.673.673 0 0 1-.2.486.654.654 0 0 1-.492.209h-3.285a1.189 1.189 0 0 0 .449.645 1.4 1.4 0 0 0 .827.226 3.244 3.244 0 0 0 1.226-.239 1.063 1.063 0 0 1 .277-.051.755.755 0 0 1 .759.759.751.751 0 0 1-.14.447.717.717 0 0 1-.366.272 5.254 5.254 0 0 1-1.819.329 3.044 3.044 0 0 1-1.544-.385zm2.539-3.393a1.13 1.13 0 0 0-.4-.656 1.068 1.068 0 0 0-.682-.253 1.144 1.144 0 0 0-.7.253 1.1 1.1 0 0 0-.424.656z" class="cls-11"/>
                <path id="Path_5311" d="M2732.472 1174.825a2.818 2.818 0 0 1 .986 1.118 3.737 3.737 0 0 1 0 3.2 2.8 2.8 0 0 1-.986 1.117 2.538 2.538 0 0 1-2.324.221 2.528 2.528 0 0 1-.8-.523v2.146a.834.834 0 0 1-1.667 0v-6.77a.831.831 0 0 1 1.352-.65.813.813 0 0 1 .291.461 2.687 2.687 0 0 1 .82-.53 2.525 2.525 0 0 1 2.331.214zm-.758 3.865a1.813 1.813 0 0 0 0-2.3 1.337 1.337 0 0 0-2.008 0 1.816 1.816 0 0 0 0 2.3 1.335 1.335 0 0 0 2.008 0z" class="cls-11"/>
                <path id="Path_5312" d="M2740.871 1174.743a.8.8 0 0 1 .247.587v4.421a.832.832 0 0 1-1.642.19 2.778 2.778 0 0 1-.822.531 2.525 2.525 0 0 1-2.33-.216 2.8 2.8 0 0 1-.985-1.117 3.726 3.726 0 0 1 0-3.2 2.815 2.815 0 0 1 .985-1.118 2.524 2.524 0 0 1 2.33-.214 2.714 2.714 0 0 1 .822.53.827.827 0 0 1 1.4-.4zm-1.781 3.947a1.813 1.813 0 0 0 0-2.3 1.337 1.337 0 0 0-2.008 0 1.817 1.817 0 0 0 0 2.3 1.335 1.335 0 0 0 2.008 0z" class="cls-11"/>
                <path id="Path_5313" d="M2748.374 1174.743a.8.8 0 0 1 .246.587v4.5a4.278 4.278 0 0 1-.132 1.163 2.592 2.592 0 0 1-.448.858 2.739 2.739 0 0 1-1.1.866 3.592 3.592 0 0 1-1.439.283 4.761 4.761 0 0 1-2.438-.631.665.665 0 0 1-.265-.259.7.7 0 0 1-.1-.373.73.73 0 0 1 .732-.732.676.676 0 0 1 .366.1 3.025 3.025 0 0 0 1.529.4 1.67 1.67 0 0 0 1.4-.581.975.975 0 0 0 .163-.366 3.17 3.17 0 0 0 .064-.606 2.528 2.528 0 0 1-3.126.3 2.783 2.783 0 0 1-.985-1.117 3.717 3.717 0 0 1 0-3.2 2.8 2.8 0 0 1 .985-1.118 2.524 2.524 0 0 1 2.33-.214 2.7 2.7 0 0 1 .821.53.828.828 0 0 1 1.4-.4zm-1.781 3.947a1.813 1.813 0 0 0 0-2.3 1.337 1.337 0 0 0-2.008 0 1.813 1.813 0 0 0 0 2.3 1.335 1.335 0 0 0 2.008 0z" class="cls-11"/>
                <path id="Path_5314" d="M2755.8 1174.743a.8.8 0 0 1 .246.587v4.421a.832.832 0 0 1-1.642.19 2.771 2.771 0 0 1-.821.531 2.5 2.5 0 0 1-.96.189 2.466 2.466 0 0 1-1.37-.405 2.793 2.793 0 0 1-.986-1.117 3.726 3.726 0 0 1 0-3.2 2.81 2.81 0 0 1 .986-1.118 2.524 2.524 0 0 1 2.33-.214 2.706 2.706 0 0 1 .821.53.828.828 0 0 1 1.4-.4zm-1.782 3.947a1.813 1.813 0 0 0 0-2.3 1.337 1.337 0 0 0-2.008 0 1.817 1.817 0 0 0 0 2.3 1.335 1.335 0 0 0 2.008 0z" class="cls-11"/>
                <path id="Path_5315" d="M2766.708 1175.053a2.549 2.549 0 0 1 .632 1.831v2.88a.821.821 0 1 1-1.642 0v-2.6a1.166 1.166 0 0 0-1.2-1.225 1.166 1.166 0 0 0-.872.366 1.257 1.257 0 0 0-.354.909v2.552a.82.82 0 1 1-1.641 0v-2.6a1.168 1.168 0 0 0-1.2-1.225 1.164 1.164 0 0 0-.872.366 1.257 1.257 0 0 0-.353.909v2.552a.822.822 0 1 1-1.643 0v-4.459a.8.8 0 0 1 .24-.574.78.78 0 0 1 .582-.247.8.8 0 0 1 .536.2.778.778 0 0 1 .272.505 2.272 2.272 0 0 1 1.806-.77 2.451 2.451 0 0 1 1.137.253 1.849 1.849 0 0 1 .77.732 2.309 2.309 0 0 1 .879-.726 2.806 2.806 0 0 1 1.231-.259 2.257 2.257 0 0 1 1.692.63z" class="cls-11"/>
                <path id="Path_5316" d="M2770.03 1180.251a2.655 2.655 0 0 1-1.034-1.075 3.309 3.309 0 0 1-.368-1.584 3.475 3.475 0 0 1 .38-1.636 2.828 2.828 0 0 1 1.036-1.131 2.81 2.81 0 0 1 2.923.012 2.839 2.839 0 0 1 1.011 1.131 3.475 3.475 0 0 1 .36 1.585.672.672 0 0 1-.2.486.657.657 0 0 1-.492.209h-3.285a1.181 1.181 0 0 0 .449.645 1.4 1.4 0 0 0 .827.226 3.248 3.248 0 0 0 1.226-.239 1.056 1.056 0 0 1 .277-.051.755.755 0 0 1 .758.759.75.75 0 0 1-.139.447.721.721 0 0 1-.366.272 5.258 5.258 0 0 1-1.819.329 3.048 3.048 0 0 1-1.544-.385zm2.539-3.393a1.134 1.134 0 0 0-.4-.656 1.071 1.071 0 0 0-.682-.253 1.144 1.144 0 0 0-.7.253 1.1 1.1 0 0 0-.423.656z" class="cls-11"/>
                <path id="Path_5317" d="M2780.723 1175.072a2.537 2.537 0 0 1 .612 1.812v2.88a.82.82 0 1 1-1.641 0v-2.6a1.168 1.168 0 0 0-1.2-1.225 1.164 1.164 0 0 0-.872.366 1.257 1.257 0 0 0-.353.909v2.552a.822.822 0 1 1-1.643 0v-4.446a.824.824 0 0 1 1.365-.619.787.787 0 0 1 .265.505 2.228 2.228 0 0 1 1.806-.783 2.17 2.17 0 0 1 1.661.649z" class="cls-11"/>
                <path id="Path_5318" d="M2787.443 1180.2a.869.869 0 0 1-.386.272 2.817 2.817 0 0 1-1.011.189 2.375 2.375 0 0 1-1.13-.272 1.918 1.918 0 0 1-.8-.815 2.438 2.438 0 0 1-.272-.808 8.017 8.017 0 0 1-.057-1.074v-1.6h-.606a.758.758 0 1 1 0-1.517h.606v-1.238a.836.836 0 0 1 1.428-.587.815.815 0 0 1 .24.587v1.238h1.136a.758.758 0 1 1 0 1.517h-1.136v2.021a1.3 1.3 0 0 0 .227.82.631.631 0 0 0 .543.24 1.527 1.527 0 0 0 .455-.075 1.052 1.052 0 0 1 .189-.025.7.7 0 0 1 .506.208.685.685 0 0 1 .215.511.651.651 0 0 1-.147.408z" class="cls-11"/>
                <path id="Path_5319" d="M2789.963 1180.256a3.008 3.008 0 0 1-1.125-1.117 3.271 3.271 0 0 1 0-3.2 3.026 3.026 0 0 1 1.125-1.118 3.238 3.238 0 0 1 3.132 0 3.024 3.024 0 0 1 1.124 1.118 3.271 3.271 0 0 1 0 3.2 3.006 3.006 0 0 1-1.124 1.117 3.23 3.23 0 0 1-3.132 0zm2.57-1.566a1.812 1.812 0 0 0 0-2.3 1.337 1.337 0 0 0-2.008 0 1.813 1.813 0 0 0 0 2.3 1.335 1.335 0 0 0 2.008 0z" class="cls-11"/>
            </g>
        </g>
    </g>
</svg>
