<svg xmlns="http://www.w3.org/2000/svg" width="200" height="160" viewBox="0 0 200 160">
    <defs>
        <style>
            .cls-1{fill:#fff}.cls-4{fill:#fe0060}.cls-3{fill:#e6e6e6}.cls-5{fill:#263238}.cls-6{fill:#3f3d56}.cls-7{fill:#ffa748}.cls-10{fill:#fafafa}.cls-11{fill:#93278f}.cls-13{fill:#455a64}
        </style>
    </defs>
    <g id="ilustration_DPVAT" transform="translate(-1955.979 -461.12)">
        <path id="Rectangle_454" d="M0 0H200V160H0z" class="cls-1" transform="translate(1955.979 461.12)"/>
        <g id="Group_397" transform="translate(1968.213 473.333)">
            <path id="Path_4972" fill="#fe0060" d="M1966.53 556.448l-.2 1.925c-1.676 16.2 5.32 31.886 18.61 40.4a39.855 39.855 0 0 0 5.364 2.883c6.671 2.96 22.264 2.261 49.721-2.3 11.892-1.978 23.833 4.859 39.472 1.219 17.736-4.13 33.582 6.828 36.833 6.074 7.005-1.63 12.816-7.009 16.853-13.129 10.7-16.186 10.436-37.913 2.146-54.718s-23.6-29.036-40.534-36.8c-23.7-10.865-51.878-13.514-76.978-4.031s-46.258 31.975-51.287 58.477z" opacity="0.1" transform="translate(-1966.087 -470.705)"/>
            <g id="Group_393" transform="translate(39.036)">
                <path id="Path_4973" d="M2109.458 566.635h-98.547a4.36 4.36 0 0 1-4.36-4.361v-67.15a4.36 4.36 0 0 1 4.36-4.361h98.547a4.36 4.36 0 0 1 4.361 4.361v67.151a4.36 4.36 0 0 1-4.361 4.36z" class="cls-1" transform="translate(-2005.127 -470.705)"/>
                <path id="Path_4974" d="M2109.458 568.059h-98.547a5.792 5.792 0 0 1-5.784-5.784v-67.152a5.792 5.792 0 0 1 5.784-5.784h98.547a5.791 5.791 0 0 1 5.785 5.784v67.151a5.791 5.791 0 0 1-5.785 5.785zm-98.547-75.872a2.94 2.94 0 0 0-2.937 2.937v67.151a2.94 2.94 0 0 0 2.937 2.937h98.547a2.94 2.94 0 0 0 2.938-2.937v-67.152a2.94 2.94 0 0 0-2.938-2.937z" class="cls-3" transform="translate(-2005.127 -470.705)"/>
                <path id="Path_4975" d="M2036.206 475.063v9.157h6.54v-5.9a1.079 1.079 0 0 1 1.08-1.079h32.724a1.079 1.079 0 0 1 1.08 1.079v5.9h6.54v-9.157a4.36 4.36 0 0 0-4.361-4.36h-39.244a4.36 4.36 0 0 0-4.359 4.36z" class="cls-4" transform="translate(-2005.13 -470.703)"/>
                <path id="Path_4976" d="M2087.445 490.762h-13.082v-4.382a2.159 2.159 0 0 1 2.158-2.159h8.765a2.159 2.159 0 0 1 2.158 2.159z" class="cls-4" transform="translate(-2005.134 -470.704)"/>
                <g id="Group_391" transform="translate(11.453 18.943)">
                    <path id="Path_4977" d="M2101.641 498.369h-6.585a2.158 2.158 0 0 1-2.158-2.159v-6.562h10.9v6.562a2.158 2.158 0 0 1-2.157 2.159z" class="cls-3" transform="translate(-2016.589 -489.648)"/>
                    <path id="Path_4978" d="M2018.74 498.369h6.584a2.159 2.159 0 0 0 2.159-2.159v-6.562h-10.9v6.562a2.159 2.159 0 0 0 2.157 2.159z" class="cls-3" transform="translate(-2016.581 -489.648)"/>
                </g>
                <path id="Path_4979" d="M2032.935 490.762h13.082v-4.382a2.159 2.159 0 0 0-2.159-2.159h-8.764a2.159 2.159 0 0 0-2.159 2.159z" class="cls-4" transform="translate(-2005.13 -470.704)"/>
                <g id="Group_392" transform="translate(34.974 32.336)">
                    <circle id="Ellipse_289" cx="20.084" cy="20.084" r="20.084" class="cls-3"/>
                    <path id="Path_4980" d="M2072.564 518.493h-6.21a1.53 1.53 0 0 1-1.53-1.53v-6.21a1.529 1.529 0 0 0-1.528-1.53h-6.212a1.529 1.529 0 0 0-1.529 1.53v6.21a1.53 1.53 0 0 1-1.53 1.53h-6.21a1.529 1.529 0 0 0-1.53 1.529v6.21a1.53 1.53 0 0 0 1.53 1.53h6.21a1.53 1.53 0 0 1 1.53 1.53v6.21a1.529 1.529 0 0 0 1.529 1.53h6.212a1.529 1.529 0 0 0 1.528-1.53v-6.21a1.53 1.53 0 0 1 1.53-1.53h6.21a1.53 1.53 0 0 0 1.53-1.53v-6.21a1.529 1.529 0 0 0-1.53-1.529z" class="cls-4" transform="translate(-2040.105 -503.043)"/>
                </g>
            </g>
            <g id="Group_396" transform="translate(2.758 74.027)">
                <path id="Rectangle_455" d="M0 0H2.922V9.832H0z" class="cls-5" transform="translate(99.207 29.672)"/>
                <path id="Rectangle_456" d="M0 0H25.422V9.935H0z" class="cls-6" transform="translate(134.358 31.175)"/>
                <path id="Rectangle_457" d="M0 0H125.358V11.104H0z" class="cls-5" transform="translate(32.085 39.942)"/>
                <path id="Path_4981" d="M2105.7 590.232h-30.1v-37.841h22.5l7.6 19.085z" class="cls-7" transform="translate(-1968.857 -544.738)"/>
                <path id="Rectangle_458" d="M0 0H12.857V12.857H0z" class="cls-1" transform="translate(111.42 9.99)"/>
                <path id="Path_4982" d="M2102.779 567.732h-8.179v-12.857h3.507z" class="cls-1" transform="translate(-1968.859 -544.739)"/>
                <path id="Rectangle_459" d="M0 0H2.922V5.552H0z" class="cls-6" transform="translate(112.004 30.153)"/>
                <path id="Path_4983" d="M2097.081 563.058h.146a2.776 2.776 0 0 1 2.776 2.776 2.776 2.776 0 0 1-2.776 2.776h-.146v-5.551z" class="cls-6" transform="translate(-1968.859 -544.74)"/>
                <path id="Path_4984" d="M1988.368 584.683h.146a2.776 2.776 0 0 1 2.776 2.777 2.776 2.776 0 0 1-2.776 2.776h-.146v-5.552z" class="cls-6" transform="translate(-1968.847 -544.742)"/>
                <path id="Path_4985" d="M2117.389 584.639a14.458 14.458 0 0 1 11.238 5.594h5.71l-5.551-15.465-25.861-5.1.73 20.566h2.5a14.457 14.457 0 0 1 11.234-5.595z" class="cls-7" transform="translate(-1968.859 -544.74)"/>
                <circle id="Ellipse_290" cx="12.711" cy="12.711" r="12.711" class="cls-5" transform="translate(136.112 36.435)"/>
                <circle id="Ellipse_291" cx="6.69" cy="6.69" r="6.69" class="cls-1" transform="translate(142.133 42.456)"/>
                <circle id="Ellipse_292" cx="11.104" cy="11.104" r="11.104" class="cls-5" transform="translate(22.88 39.503)"/>
                <circle id="Ellipse_293" cx="5.844" cy="5.844" r="5.844" class="cls-1" transform="translate(28.14 44.763)"/>
                <path id="Rectangle_460" d="M0 0H6.136V44.27H0z" class="cls-5" transform="translate(101.485 2.393)"/>
                <path id="Rectangle_461" d="M0 0H88.247V2.63H0z" class="cls-5" transform="translate(19.374 38.627)"/>
                <path id="Rectangle_462" d="M0 0H99.738V2.63H0z" class="cls-5" transform="translate(0 35.141)"/>
                <path id="Rectangle_463" d="M0 0H2.922V1.169H0z" class="cls-6" transform="translate(127.053 23.578)"/>
                <path id="Path_4986" d="M2130.7 580.187l-.136.051a2.775 2.775 0 0 1-3.579-1.614 2.775 2.775 0 0 1 1.614-3.579l.137-.052 1.964 5.193z" class="cls-6" transform="translate(-1968.862 -544.741)"/>
                <circle id="Ellipse_294" cx="4.091" cy="4.091" r="4.091" class="cls-5" transform="translate(96.577 27.961)"/>
                <g id="freepik--Car--inject-2" transform="translate(6.518)">
                    <path id="Rectangle_464" fill="#540d54" d="M0 0H80.659V11.835H0z" transform="translate(3.551 20.258) rotate(-3.811)"/>
                    <g id="Group_394" opacity="0.5" transform="translate(3.551 14.897)">
                        <path id="Rectangle_465" d="M0 0H80.659V11.835H0z" transform="translate(0 5.361) rotate(-3.811)"/>
                    </g>
                    <path id="Path_4987" d="M1989.868 566.711a7.667 7.667 0 0 1 8.283 6.917c.288 4.1-2.953 5.941-7.238 6.217s-7.994-1.124-8.283-5.219a7.557 7.557 0 0 1 7.238-7.915z" class="cls-5" transform="translate(-1975.365 -544.74)"/>
                    <path id="Path_4988" d="M1998.281 575.6v-.02l-15.536.809v.021" class="cls-5" transform="translate(-1975.365 -544.741)"/>
                    <path id="Path_4989" d="M1984.93 573.993a5.477 5.477 0 1 0 5.542-4.978 5.284 5.284 0 0 0-5.542 4.978z" class="cls-10" transform="translate(-1975.365 -544.74)"/>
                    <circle id="Ellipse_295" cx="7.778" cy="7.778" r="7.778" class="cls-5" transform="translate(67.277 20.143)"/>
                    <path id="Path_4990" d="M2042.654 573.012v.021a7.779 7.779 0 0 0 15.54-.727v-.02z" class="cls-5" transform="translate(-1975.371 -544.74)"/>
                    <path id="Path_4991" d="M2044.969 572.923a5.461 5.461 0 1 0 5.2-5.707 5.461 5.461 0 0 0-5.2 5.707z" class="cls-10" transform="translate(-1975.37 -544.74)"/>
                    <path id="Path_4992" d="M1999.458 556.954s-11.953.157-16.128 1.389c-1.337 3.974-6.256 4-2.686 5.275a.709.709 0 0 1 .2 1.23l-4.609 3.532s1.15.809 1.316 3.3-2.82 5.642 2.175 5.465c.823-.03 3.915 1.716 3.915 1.716s-3.694-11.377 6.036-12.337c9.9-.977 9.983 10.212 9.983 10.212l41.4-2.758s-2.423-10.745 8.254-11.478 9.784 10.347 9.784 10.347 3.951.078 5.559-3.346a9.032 9.032 0 0 0 .977-5.747l-.2-2.083a1.355 1.355 0 0 0-1.392-1.219s.363-5.3-.793-6.138-7.522-5.923-7.522-5.923l.279-.2a.675.675 0 0 0-.226-1.2c-2.331-.631-6.939-1.882-8.023-2.181a1.923 1.923 0 0 0-.5-.072c-.636-.006-2.433 0-5.721.184-4 .224-19.891 1.326-19.891 1.326s-5.439.814-8.4 2.357c-3.096 1.623-13.787 8.349-13.787 8.349z" class="cls-11" transform="translate(-1975.364 -544.738)"/>
                    <g id="Group_395" opacity="0.4" transform="translate(2.237 28.274)">
                        <path id="Path_4993" d="M1978.546 573.049a.7.7 0 0 0-.8.239 1.875 1.875 0 0 0-.144.871 6.083 6.083 0 0 0 .1 1.286 1.8 1.8 0 0 0 .492 1 .431.431 0 0 0 .7-.189 2.393 2.393 0 0 0 .1-1.123 15.041 15.041 0 0 0-.137-1.583 1.07 1.07 0 0 0-.106-.315.277.277 0 0 0-.208-.187" transform="translate(-1977.601 -573.015)"/>
                    </g>
                    <path id="Path_4994" d="M1977.369 569.252c1.213-.08 2.385-.225 3.591-.384a.442.442 0 0 0 .459-.58 2.316 2.316 0 0 0-.641-1.779 1.956 1.956 0 0 0-1.136-.3c-.991-.041-1.591 1.7-2.514 2.063z" class="cls-10" transform="translate(-1975.364 -544.74)"/>
                    <path id="Path_4995" d="M2002.065 576.241a.844.844 0 0 0-.016-.1c-.013-.069-.023-.172-.04-.3l-.142-1.166c-.061-.506-.138-1.126-.258-1.841a14.684 14.684 0 0 0-.589-2.384 11 11 0 0 0-1.349-2.642 8.565 8.565 0 0 0-2.427-2.368 13.184 13.184 0 0 0-7.514-1.723 11.938 11.938 0 0 0-7.168 2.791 10.751 10.751 0 0 0-2.213 2.583 11.393 11.393 0 0 0-1.216 2.7 10.582 10.582 0 0 0-.429 2.414 9.987 9.987 0 0 0 .052 1.851 9.212 9.212 0 0 0 .222 1.151c.032.128.057.226.074.3l.022.1-.029-.1-.082-.286a8.394 8.394 0 0 1-.234-1.15 9.775 9.775 0 0 1-.066-1.858 10.573 10.573 0 0 1 .422-2.427 11.446 11.446 0 0 1 1.214-2.726 10.744 10.744 0 0 1 2.222-2.6 11.992 11.992 0 0 1 7.2-2.812 13.219 13.219 0 0 1 7.558 1.739 8.638 8.638 0 0 1 2.44 2.391 11.008 11.008 0 0 1 1.343 2.663 14.369 14.369 0 0 1 .58 2.395c.117.721.188 1.336.245 1.843l.129 1.168c.009.133.025.233.032.3a.964.964 0 0 0 .017.094z" class="cls-1" transform="translate(-1975.364 -544.74)"/>
                    <path id="Path_4996" d="M2002.515 576.39l-.006-.088-.026-.256c-.022-.228-.055-.563-.1-1l-.361-3.8-.556-5.893-.165-1.759a5.927 5.927 0 0 1-.021-.924l.034-.472.065-.475a9.778 9.778 0 0 1 1.463-3.733l6.869-4.994 1.856-1.348a15.329 15.329 0 0 1 1.974-1.281 21.259 21.259 0 0 1 2.177-1.05c.371-.158.754-.293 1.136-.435s.774-.265 1.172-.37a27.344 27.344 0 0 1 4.581-.888 43.744 43.744 0 0 1 4.476-.283h.042l-.007.043-1.352 8.746a9.485 9.485 0 0 0-.747 1.91 5.051 5.051 0 0 0-.163 1.934c.092.634.151 1.257.207 1.861s.1 1.189.152 1.758c.185 2.276.326 4.261.441 5.9s.195 2.924.253 3.8l.067 1 .017.257.006.087-.006-.087-.017-.257-.067-1c-.058-.879-.157-2.165-.276-3.8s-.266-3.625-.457-5.9l-.155-1.757c-.058-.6-.117-1.224-.21-1.857a5.143 5.143 0 0 1 .161-1.959 9.471 9.471 0 0 1 .746-1.925v.01l1.345-8.747.036.041a43.873 43.873 0 0 0-4.466.286 26.927 26.927 0 0 0-4.569.887c-.4.107-.781.245-1.167.37s-.763.276-1.137.434a21 21 0 0 0-2.177 1.051 15.155 15.155 0 0 0-1.964 1.273l-1.857 1.348-6.87 4.984v-.007a9.232 9.232 0 0 0-.94 1.821 9.391 9.391 0 0 0-.521 1.888 13.441 13.441 0 0 0 .081 3.616l.538 5.894.343 3.8.089 1 .017.257a.858.858 0 0 1 .016.089z" class="cls-5" transform="translate(-1975.367 -544.738)"/>
                    <path id="Path_4997" d="M2027.051 547.586h.068l.2-.021.769-.07 2.852-.245 9.618-.807h.019l.013.013 1.459 1.563c1.478 1.587 2.887 3.1 4.168 4.468l.471.508a3.194 3.194 0 0 1 .4.556 3.027 3.027 0 0 1 .217 2.446l-.368 1.044-1.127 3.17-.309.86-.083.224-.03.075.022-.077c.015-.05.044-.13.076-.227.069-.2.168-.492.3-.865l1.1-3.177a5.482 5.482 0 0 0 .513-2.231 2.955 2.955 0 0 0-.373-1.215 3.015 3.015 0 0 0-.391-.541l-.471-.508-4.172-4.464-1.458-1.562.03.012-9.621.787-2.854.224-.77.051-.2.013z" class="cls-5" transform="translate(-1975.369 -544.738)"/>
                    <path id="Path_4998" d="M2023.036 560.718a.576.576 0 0 0 .113-.025.8.8 0 0 0 .3-.143.77.77 0 0 0 .284-.424.864.864 0 0 0 .019-.321.8.8 0 0 0-.113-.34.775.775 0 0 0-.7-.363l-.978.065-2.241.15a.754.754 0 0 0-.5.234.767.767 0 0 0-.213.491.87.87 0 0 0 .127.5.773.773 0 0 0 .394.3 1.177 1.177 0 0 0 .487.027l.474-.031.853-.057 1.236-.071.335-.015a.668.668 0 0 1 .118 0 1.176 1.176 0 0 1-.117.015l-.335.022-1.234.094-.853.057-.474.032-.251.016a.777.777 0 0 1-.262-.042.838.838 0 0 1-.432-.331.925.925 0 0 1-.14-.549.836.836 0 0 1 .778-.8l2.241-.149.979-.066a.827.827 0 0 1 .744.4.863.863 0 0 1 .116.363.93.93 0 0 1-.026.336.809.809 0 0 1-.307.438.753.753 0 0 1-.311.132.468.468 0 0 1-.111.055z" class="cls-5" transform="translate(-1975.369 -544.739)"/>
                    <path id="Path_4999" d="M2044.508 559.288a.569.569 0 0 0 .113-.026.785.785 0 0 0 .3-.142.763.763 0 0 0 .283-.424.871.871 0 0 0 .02-.322.8.8 0 0 0-.113-.339.771.771 0 0 0-.7-.363l-.978.065-2.241.15a.751.751 0 0 0-.5.234.764.764 0 0 0-.212.49.871.871 0 0 0 .127.506.776.776 0 0 0 .393.3 1.182 1.182 0 0 0 .488.027l.474-.031.853-.057 1.235-.071.336-.015a.65.65 0 0 1 .118 0 1.158 1.158 0 0 1-.117.015l-.335.022-1.234.094-.853.057-.474.032-.251.016a.809.809 0 0 1-.263-.042.839.839 0 0 1-.431-.331.925.925 0 0 1-.14-.549.836.836 0 0 1 .777-.8l2.242-.15.979-.065a.823.823 0 0 1 .743.4.833.833 0 0 1 .116.362.907.907 0 0 1-.025.337.8.8 0 0 1-.308.437.738.738 0 0 1-.31.133.526.526 0 0 1-.112.05z" class="cls-5" transform="translate(-1975.371 -544.739)"/>
                    <path id="Path_5000" d="M2063.089 554.532l-4.294.286a1.59 1.59 0 0 0-1.347.939 1.591 1.591 0 0 0 .046 1.38l1.937 3.714 4.3-.329s.589-4.91-.642-5.99z" class="cls-10" transform="translate(-1975.372 -544.739)"/>
                    <path id="Path_5001" d="M2003.415 557.963l22.128-1.885 14.4-1.225 4.572-3.063a.739.739 0 0 0 .2-1.027.644.644 0 0 0-.055-.073l-3.22-3.69a1.651 1.651 0 0 0-1.341-.563l-16.135.944s-6.1.05-10.7 3.044a103.232 103.232 0 0 0-9.849 7.538z" class="cls-5" transform="translate(-1975.367 -544.738)"/>
                    <path id="Path_5002" d="M2012.982 548.515s1.145.432.454.949-11.445 8.338-11.445 8.338l-2.658-1c4.401-2.843 8.853-5.623 13.649-8.287z" class="cls-13" transform="translate(-1975.367 -544.738)"/>
                    <path id="Path_5003" d="M2002.364 557.959l-.069.022-.2.059-.777.215c-.676.182-1.655.439-2.866.733-2.438.587-5.817 1.308-9.591 1.889-.944.146-1.876.27-2.759.393s-1.754.232-2.57.361a22.552 22.552 0 0 0-4.26 1.026 12.114 12.114 0 0 0-2.648 1.31c-.3.183-.508.357-.657.463l-.169.124-.06.04a.623.623 0 0 1 .055-.046l.165-.13c.147-.111.353-.289.65-.481a11.876 11.876 0 0 1 2.638-1.341 21.976 21.976 0 0 1 4.268-1.044c.818-.133 1.679-.246 2.571-.365s1.815-.251 2.759-.4c3.772-.581 7.156-1.293 9.591-1.868 1.218-.286 2.2-.535 2.875-.709l.781-.2.2-.052z" class="cls-5" transform="translate(-1975.364 -544.739)"/>
                    <path id="Path_5004" d="M2065.424 563.724c0 .022-1.474.136-3.295.258s-3.3.2-3.3.182 1.474-.136 3.3-.258 3.294-.206 3.295-.182z" class="cls-5" transform="translate(-1975.372 -544.74)"/>
                    <path id="Path_5005" d="M2038.655 569.293c0 .022-8.332.593-18.612 1.278s-18.618 1.224-18.62 1.2 8.331-.593 18.614-1.278 18.617-1.22 18.618-1.2z" class="cls-5" transform="translate(-1975.367 -544.74)"/>
                    <path id="Path_5006" d="M1980.631 569.779c0 .022-1.177.11-2.631.2s-2.635.146-2.637.124 1.178-.11 2.632-.2 2.635-.144 2.636-.124z" class="cls-5" transform="translate(-1975.364 -544.74)"/>
                    <path id="Path_5007" d="M2055.615 548.244s-.916 1.173-.473 1.959 4.651 3.365 4.651 3.365l2.954.353z" class="cls-13" transform="translate(-1975.372 -544.738)"/>
                    <path id="Path_5008" d="M2027.744 548.108l-.184 7.128 11.716-1.117 4.547-3.065-3.329-3.8z" class="cls-13" transform="translate(-1975.369 -544.738)"/>
                    <path id="Path_5009" d="M2006.145 557.027s6.74-5.586 9.467-6.789a18.031 18.031 0 0 1 6.547-1.747c2.417-.231 3.9-.26 3.9-.26l-1.392 7.327z" class="cls-13" transform="translate(-1975.367 -544.738)"/>
                    <path id="Path_5010" d="M2005.11 557.115a1.245 1.245 0 0 1 .56-1.125l1.567-1.022a3.1 3.1 0 0 1 1.493-.5 3.143 3.143 0 0 1 .975.09A1.766 1.766 0 0 1 2011 556.1a1.8 1.8 0 0 1-1.6 1.974l-.07.005-2.9.194a1.243 1.243 0 0 1-1.32-1.158z" class="cls-11" transform="translate(-1975.367 -544.739)"/>
                    <path id="Path_5011" d="M2005.11 557.115a1.023 1.023 0 0 0 .029.155 1.24 1.24 0 0 0 .174.416 1.281 1.281 0 0 0 .531.458 1.213 1.213 0 0 0 .427.1 4.938 4.938 0 0 0 .5-.023l2.482-.174a1.9 1.9 0 0 0 .683-.159 1.768 1.768 0 0 0 .959-1.084 1.817 1.817 0 0 0 .058-.775 1.761 1.761 0 0 0-.819-1.25 1.876 1.876 0 0 0-.691-.245 3.087 3.087 0 0 0-1.963.322c-.182.1-.346.213-.51.316l-.466.3-.8.517a1.253 1.253 0 0 0-.466.525 1.266 1.266 0 0 0-.117.435c-.008.1 0 .158-.007.158a.805.805 0 0 1-.01-.16 1.2 1.2 0 0 1 .1-.444 1.266 1.266 0 0 1 .469-.547l.8-.527.464-.306c.162-.1.326-.223.511-.325a3.125 3.125 0 0 1 2-.338 1.928 1.928 0 0 1 .717.244 1.83 1.83 0 0 1 .856 1.3 1.873 1.873 0 0 1-.06.809 1.836 1.836 0 0 1-1 1.13 1.943 1.943 0 0 1-.707.162l-2.483.158a4.8 4.8 0 0 1-.508.018 1.244 1.244 0 0 1-.444-.116 1.283 1.283 0 0 1-.539-.48 1.21 1.21 0 0 1-.161-.426.95.95 0 0 1-.009-.144z" class="cls-5" transform="translate(-1975.367 -544.739)"/>
                    <path id="Path_5012" d="M2060.932 572.385l-.007-.1v-.291-.481c0-.189-.012-.41-.021-.656s-.035-.521-.055-.82a8.461 8.461 0 0 0-.127-.969 12.635 12.635 0 0 0-.575-2.3 10.637 10.637 0 0 0-.55-1.275 8.455 8.455 0 0 0-.787-1.27 8.987 8.987 0 0 0-2.426-2.214 10.757 10.757 0 0 0-3.36-1.388 13.679 13.679 0 0 0-3.9-.257 12.77 12.77 0 0 0-3.822.818 10.932 10.932 0 0 0-1.67.824 9.883 9.883 0 0 0-1.427 1.074 12.434 12.434 0 0 0-2.141 2.509 9.07 9.07 0 0 0-.678 1.334 12.767 12.767 0 0 0-.443 1.31 15.283 15.283 0 0 0-.568 4.118c.01.493.038.872.069 1.135l.035.289c.007.065.007.1.007.1a.763.763 0 0 0-.019-.1c-.016-.066-.025-.166-.044-.289a11.349 11.349 0 0 1-.075-1.136 14.973 14.973 0 0 1 .544-4.141 13.223 13.223 0 0 1 .44-1.317 9.481 9.481 0 0 1 .68-1.345 12.476 12.476 0 0 1 2.147-2.527 10.06 10.06 0 0 1 1.434-1.084 10.988 10.988 0 0 1 1.682-.83 12.767 12.767 0 0 1 3.844-.826 13.706 13.706 0 0 1 3.923.26 10.836 10.836 0 0 1 3.381 1.4 9.992 9.992 0 0 1 1.358 1.041 7.851 7.851 0 0 1 1.08 1.2 8.477 8.477 0 0 1 .79 1.282 10.3 10.3 0 0 1 .546 1.275 12.425 12.425 0 0 1 .567 2.317c.063.346.084.672.12.971s.039.581.055.821.009.468.013.658 0 .35-.007.482 0 .226-.007.291-.006.107-.006.107z" class="cls-1" transform="translate(-1975.37 -544.739)"/>
                    <path id="Path_5013" d="M2024.42 556.564h-.033l-.1.006-.378.034-1.389.117c-1.174.1-2.793.252-4.583.421s-3.411.31-4.584.4l-1.393.093-.378.025-.1.006a.1.1 0 0 1-.034 0 .1.1 0 0 1 .034 0l.1-.006.378-.034 1.389-.117c1.174-.1 2.794-.252 4.583-.419s3.411-.312 4.586-.4l1.391-.093.378-.025.1-.006z" class="cls-1" transform="translate(-1975.368 -544.739)"/>
                    <path id="Path_5014" d="M2022.643 558.873a10.549 10.549 0 0 1-1.268.122 10.393 10.393 0 0 1-1.274.047 11.017 11.017 0 0 1 1.269-.122 10.817 10.817 0 0 1 1.273-.047z" class="cls-1" transform="translate(-1975.369 -544.739)"/>
                    <path id="Path_5015" d="M2022.592 551.079c.009.018-1.525.781-3.426 1.7s-3.45 1.654-3.46 1.634 1.525-.781 3.426-1.7 3.45-1.652 3.46-1.634z" class="cls-1" transform="translate(-1975.368 -544.738)"/>
                    <path id="Path_5016" d="M2019.428 551.79c.01.019-1.449.781-3.257 1.7s-3.281 1.653-3.291 1.634 1.449-.779 3.257-1.7 3.281-1.656 3.291-1.634z" class="cls-1" transform="translate(-1975.368 -544.738)"/>
                    <path id="Path_5017" d="M2039.652 549.667c.01.018-1.525.781-3.426 1.7s-3.45 1.652-3.46 1.633 1.525-.78 3.427-1.7 3.446-1.652 3.459-1.633z" class="cls-1" transform="translate(-1975.37 -544.738)"/>
                    <path id="Path_5018" d="M2036.482 550.375c.01.02-1.449.782-3.256 1.7s-3.282 1.652-3.292 1.634 1.449-.78 3.257-1.7 3.29-1.647 3.291-1.634z" class="cls-1" transform="translate(-1975.37 -544.738)"/>
                    <path id="Path_5019" d="M2040.349 555.5c0 .02-3.134.266-7 .547s-7.006.491-7.007.466 3.133-.265 7-.545 7.007-.488 7.007-.468z" class="cls-1" transform="translate(-1975.369 -544.739)"/>
                    <path id="Path_5020" d="M2043.964 557.332c0 .02-.877.1-1.962.186s-1.966.131-1.967.112.876-.105 1.962-.188 1.964-.132 1.967-.11z" class="cls-1" transform="translate(-1975.371 -544.739)"/>
                    <path id="Path_5021" d="M1983.808 560.26a.359.359 0 0 1-.085.024l-.243.048c-.106.019-.236.043-.385.079s-.32.067-.507.117c-.374.092-.815.221-1.3.378a16.208 16.208 0 0 0-1.534.624c-.531.252-1.022.523-1.459.786a12.2 12.2 0 0 0-1.115.757c-.157.111-.293.222-.416.319s-.224.176-.307.246l-.192.158a.442.442 0 0 1-.071.052.384.384 0 0 1 .06-.062l.184-.169c.08-.072.179-.157.3-.257a4.329 4.329 0 0 1 .416-.319c.305-.238.684-.5 1.114-.772a14.193 14.193 0 0 1 3.007-1.417c.484-.161.929-.285 1.307-.37.188-.048.359-.077.51-.107s.288-.053.388-.067l.246-.035a.731.731 0 0 1 .082-.013z" class="cls-1" transform="translate(-1975.364 -544.739)"/>
                    <path id="Path_5022" d="M2009.488 555.112a.823.823 0 0 0-.154-.125.968.968 0 0 0-.492-.161 2.085 2.085 0 0 0-.769.134 5.973 5.973 0 0 0-2.316 1.395c-.326.313-.494.538-.505.529a.9.9 0 0 1 .112-.162 5.048 5.048 0 0 1 .354-.4 5.534 5.534 0 0 1 1.428-1.051 5.416 5.416 0 0 1 .907-.371 2.057 2.057 0 0 1 .793-.123.937.937 0 0 1 .5.192.637.637 0 0 1 .105.1c.029.026.04.042.037.043z" class="cls-1" transform="translate(-1975.367 -544.739)"/>
                    <path id="Path_5023" d="M2055.938 548.17a2.323 2.323 0 0 1-.613.1 3.886 3.886 0 0 1-.732-.042 6.647 6.647 0 0 1-.943-.228c-.344-.1-.712-.244-1.108-.38l-.618-.2c-.213-.069-.437-.125-.663-.192a25.45 25.45 0 0 0-3.01-.608 34.019 34.019 0 0 0-5.569-.317c-.358.005-.68.027-.965.038l-.726.049-.457.04-.161.011a.136.136 0 0 1 .04 0l.119-.016.458-.056.724-.061c.29-.019.607-.04.965-.047a32.077 32.077 0 0 1 5.583.3 24.15 24.15 0 0 1 3.015.609c.226.067.445.125.664.195l.619.208c.4.141.763.28 1.1.387a6.465 6.465 0 0 0 .932.229 3.8 3.8 0 0 0 .723.054 3.318 3.318 0 0 0 .456-.047l.116-.022z" class="cls-5" transform="translate(-1975.371 -544.738)"/>
                </g>
            </g>
        </g>
    </g>
</svg>
