<svg xmlns="http://www.w3.org/2000/svg" width="200" height="160" viewBox="0 0 200 160">
    <defs>
        <style>
            .cls-1{fill:#fff}.cls-11{fill:#fe0060}.cls-3{fill:#fafafa}.cls-4{fill:#f0f0f0}.cls-5{fill:#f5f5f5}.cls-8{fill:#e0e0e0}.cls-7{fill:#e6e6e6}.cls-9{fill:#ebebeb}.cls-13{fill:#455a64}.cls-14{opacity:.2}.cls-15{fill:#263238}
        </style>
    </defs>
    <g id="ilustration_multas" transform="translate(-57 -2608)">
        <path id="Rectangle_466" d="M0 0H200V160H0z" class="cls-1" transform="translate(57 2608)"/>
        <g id="Group_407" transform="translate(71.516 2618.696)">
            <path id="Path_5024" fill="#fe0060" d="M2277.589 600.669c-116.762 30.125-10-150.347 33.857-97.919 31.164 37.25 108.64 53.836 76.469 78.65-59.951 46.244-43.772 8.95-76.061 19.206-7.948 2.524-17.344-4.306-34.265.063z" opacity="0.1" transform="translate(-2224.724 -468.896)"/>
            <g id="Group_399" transform="translate(5.84)">
                <path id="Rectangle_467" d="M0 0H9.172V31.747H0z" class="cls-3" transform="translate(0 93.459)"/>
                <path id="Rectangle_468" d="M0 0H9.172V24.782H0z" class="cls-3" transform="translate(8.03 100.425)"/>
                <path id="Rectangle_469" d="M0 0H9.172V45.202H0z" class="cls-3" transform="translate(13.896 80.004)"/>
                <path id="Rectangle_470" d="M0 0H9.172V81.856H0z" class="cls-3" transform="translate(19.992 43.351)"/>
                <path id="Rectangle_471" d="M0 0H24.613V75.483H0z" class="cls-3" transform="translate(27.239 49.724)"/>
                <path id="Rectangle_472" d="M0 0H10.479V56.023H0z" class="cls-3" transform="translate(124.705 69.184)"/>
                <path id="Rectangle_473" d="M0 0H32.158V68.44H0z" class="cls-4" transform="translate(98.18 56.767)"/>
                <path id="Rectangle_474" d="M0 0H1.532V8.328H0z" class="cls-5" transform="translate(125.743 59.635)"/>
                <path id="Rectangle_475" d="M0 0H1.532V8.328H0z" class="cls-5" transform="translate(125.743 72.662)"/>
                <path id="Rectangle_476" d="M0 0H1.532V8.328H0z" class="cls-5" transform="translate(125.743 85.685)"/>
                <path id="Rectangle_477" d="M0 0H1.532V8.328H0z" class="cls-5" transform="translate(125.743 98.707)"/>
                <path id="Rectangle_478" d="M0 0H1.532V8.328H0z" class="cls-5" transform="translate(125.743 111.734)"/>
                <path id="Rectangle_479" d="M0 0H1.532V8.328H0z" class="cls-5" transform="translate(120.318 59.635)"/>
                <path id="Rectangle_480" d="M0 0H1.532V8.328H0z" class="cls-5" transform="translate(120.318 72.662)"/>
                <path id="Rectangle_481" d="M0 0H1.532V8.328H0z" class="cls-5" transform="translate(120.318 85.685)"/>
                <path id="Rectangle_482" d="M0 0H1.532V8.328H0z" class="cls-5" transform="translate(120.318 98.707)"/>
                <path id="Rectangle_483" d="M0 0H1.532V8.328H0z" class="cls-5" transform="translate(120.318 111.734)"/>
                <path id="Rectangle_484" d="M0 0H1.532V8.328H0z" class="cls-5" transform="translate(114.893 59.635)"/>
                <path id="Rectangle_485" d="M0 0H1.532V8.328H0z" class="cls-5" transform="translate(114.893 72.662)"/>
                <path id="Rectangle_486" d="M0 0H1.532V8.328H0z" class="cls-5" transform="translate(114.893 85.685)"/>
                <path id="Rectangle_487" d="M0 0H1.532V8.328H0z" class="cls-5" transform="translate(114.893 98.707)"/>
                <path id="Rectangle_488" d="M0 0H1.532V8.328H0z" class="cls-5" transform="translate(114.893 111.734)"/>
                <path id="Rectangle_489" d="M0 0H1.532V8.328H0z" class="cls-5" transform="translate(109.467 59.635)"/>
                <path id="Rectangle_490" d="M0 0H1.532V8.328H0z" class="cls-5" transform="translate(109.467 72.662)"/>
                <path id="Rectangle_491" d="M0 0H1.532V8.328H0z" class="cls-5" transform="translate(109.467 85.685)"/>
                <path id="Rectangle_492" d="M0 0H1.532V8.328H0z" class="cls-5" transform="translate(109.467 98.707)"/>
                <path id="Rectangle_493" d="M0 0H1.532V8.328H0z" class="cls-5" transform="translate(109.467 111.734)"/>
                <path id="Rectangle_494" d="M0 0H1.532V8.328H0z" class="cls-5" transform="translate(104.037 59.635)"/>
                <path id="Rectangle_495" d="M0 0H1.532V8.328H0z" class="cls-5" transform="translate(104.037 72.662)"/>
                <path id="Rectangle_496" d="M0 0H1.532V8.328H0z" class="cls-5" transform="translate(104.037 85.685)"/>
                <path id="Rectangle_497" d="M0 0H1.532V8.328H0z" class="cls-5" transform="translate(104.037 98.707)"/>
                <path id="Rectangle_498" d="M0 0H1.532V8.328H0z" class="cls-5" transform="translate(104.037 111.734)"/>
                <path id="Path_5025" fill="#e0e0e0" d="M2328.658 525.636h6.624l2.882 68.44h-9.505z" transform="translate(-2230.478 -468.869)" style="isolation:isolate" opacity="0.5"/>
                <path id="Path_5026" d="M2312.862 499.215l19.071 3.608V594.1h-19.071z" class="cls-4" transform="translate(-2230.491 -468.891)"/>
                <path id="Rectangle_499" d="M0 0H15.259V94.883H0z" class="cls-7" transform="translate(67.111 30.324)"/>
                <path id="Rectangle_500" d="M0 0H34.33V0.485H0z" class="cls-8" transform="translate(67.111 38.189)"/>
                <path id="Rectangle_501" d="M0 0H34.33V0.485H0z" class="cls-8" transform="translate(67.111 43.355)"/>
                <path id="Rectangle_502" d="M0 0H34.33V0.485H0z" class="cls-8" transform="translate(67.111 48.521)"/>
                <path id="Rectangle_503" d="M0 0H34.33V0.485H0z" class="cls-8" transform="translate(67.111 53.682)"/>
                <path id="Rectangle_504" d="M0 0H34.33V0.485H0z" class="cls-8" transform="translate(67.111 58.852)"/>
                <path id="Rectangle_505" d="M0 0H34.33V0.485H0z" class="cls-8" transform="translate(67.111 64.018)"/>
                <path id="Rectangle_506" d="M0 0H34.33V0.485H0z" class="cls-8" transform="translate(67.111 69.184)"/>
                <path id="Rectangle_507" d="M0 0H34.33V0.485H0z" class="cls-8" transform="translate(67.111 74.35)"/>
                <path id="Rectangle_508" d="M0 0H34.33V0.485H0z" class="cls-8" transform="translate(67.111 79.52)"/>
                <path id="Rectangle_509" d="M0 0H34.33V0.485H0z" class="cls-8" transform="translate(67.111 84.685)"/>
                <path id="Rectangle_510" d="M0 0H34.33V0.485H0z" class="cls-8" transform="translate(67.111 89.851)"/>
                <path id="Rectangle_511" d="M0 0H34.33V0.485H0z" class="cls-8" transform="translate(67.111 95.013)"/>
                <path id="Rectangle_512" d="M0 0H34.33V0.485H0z" class="cls-8" transform="translate(67.111 100.183)"/>
                <path id="Rectangle_513" d="M0 0H34.33V0.485H0z" class="cls-8" transform="translate(67.111 105.348)"/>
                <path id="Rectangle_514" d="M0 0H34.33V0.485H0z" class="cls-8" transform="translate(67.111 110.514)"/>
                <path id="Rectangle_515" d="M0 0H15.952V115.048H0z" class="cls-4" transform="translate(42.814 10.158)"/>
                <path id="Path_5027" d="M2289.29 479.074h-15.952l5.871-10.158h22.843z" class="cls-3" transform="translate(-2230.524 -468.916)"/>
                <path id="Path_5028" d="M2289.277 479.074l12.762-10.158v125.207h-12.762z" class="cls-9" transform="translate(-2230.511 -468.916)"/>
                <path id="Rectangle_516" d="M0 0H28.714V0.614H0z" class="cls-8" transform="translate(42.814 15.519)"/>
                <path id="Rectangle_517" d="M0 0H28.714V0.614H0z" class="cls-8" transform="translate(42.814 22.03)"/>
                <path id="Rectangle_518" d="M0 0H28.714V0.614H0z" class="cls-8" transform="translate(42.814 28.541)"/>
                <path id="Rectangle_519" d="M0 0H28.714V0.614H0z" class="cls-8" transform="translate(42.814 35.057)"/>
                <path id="Rectangle_520" d="M0 0H28.714V0.614H0z" class="cls-8" transform="translate(42.814 41.568)"/>
                <path id="Rectangle_521" d="M0 0H28.714V0.614H0z" class="cls-8" transform="translate(42.814 48.08)"/>
                <path id="Rectangle_522" d="M0 0H28.714V0.614H0z" class="cls-8" transform="translate(42.814 54.591)"/>
                <path id="Rectangle_523" d="M0 0H28.714V0.614H0z" class="cls-8" transform="translate(42.814 61.102)"/>
                <path id="Rectangle_524" d="M0 0H28.714V0.614H0z" class="cls-8" transform="translate(42.814 67.613)"/>
                <path id="Rectangle_525" d="M0 0H28.714V0.614H0z" class="cls-8" transform="translate(42.814 74.129)"/>
                <path id="Rectangle_526" d="M0 0H28.714V0.614H0z" class="cls-8" transform="translate(42.814 80.64)"/>
                <path id="Rectangle_527" d="M0 0H28.714V0.614H0z" class="cls-8" transform="translate(42.814 87.151)"/>
                <path id="Rectangle_528" d="M0 0H28.714V0.614H0z" class="cls-8" transform="translate(42.814 93.663)"/>
                <path id="Rectangle_529" d="M0 0H28.714V0.614H0z" class="cls-8" transform="translate(42.814 100.174)"/>
                <path id="Rectangle_530" d="M0 0H28.714V0.614H0z" class="cls-8" transform="translate(42.814 106.685)"/>
                <path id="Rectangle_531" d="M0 0H28.714V0.614H0z" class="cls-8" transform="translate(42.814 113.201)"/>
                <path id="Rectangle_532" d="M0 0H17.414V59.376H0z" class="cls-4" transform="translate(22.631 65.831)"/>
                <path id="Rectangle_533" d="M0 0H2.795V9.531H0z" class="cls-7" transform="translate(26.058 68.898)"/>
                <path id="Rectangle_534" d="M0 0H2.795V9.531H0z" class="cls-7" transform="translate(32.915 68.898)"/>
                <path id="Rectangle_535" d="M0 0H2.795V9.531H0z" class="cls-7" transform="translate(26.058 81.242)"/>
                <path id="Rectangle_536" d="M0 0H2.795V9.531H0z" class="cls-7" transform="translate(32.915 81.242)"/>
                <path id="Rectangle_537" d="M0 0H2.795V9.531H0z" class="cls-7" transform="translate(26.058 93.581)"/>
                <path id="Rectangle_538" d="M0 0H2.795V9.531H0z" class="cls-7" transform="translate(32.915 93.581)"/>
                <path id="Rectangle_539" d="M0 0H2.795V9.531H0z" class="cls-7" transform="translate(26.058 105.924)"/>
                <path id="Rectangle_540" d="M0 0H2.795V9.531H0z" class="cls-7" transform="translate(32.915 105.924)"/>
                <path id="Path_5029" d="M2270.582 534.7h-17.409l4.084-4.114h17.414z" class="cls-1" transform="translate(-2230.541 -468.865)"/>
                <path id="Path_5030" d="M2270.567 534.7l4.089-4.114 4.084 4.114v59.376h-8.173z" class="cls-7" transform="translate(-2230.526 -468.865)"/>
            </g>
            <rect id="Rectangle_541" width="3.142" height="65.387" fill="#b3b3b3" rx="1.415" transform="translate(143.943 66.781)"/>
            <g id="freepik--Car--inject-208" transform="translate(6.01 83.56)">
                <path id="Rectangle_542" d="M0 0H120.796V16.329H0z" class="cls-11" transform="translate(14.729 25.683)"/>
                <g id="Group_400" opacity="0.4" transform="translate(14.729 25.683)">
                    <path id="Rectangle_543" d="M0 0H120.796V16.329H0z"/>
                </g>
                <path id="Path_5031" d="M2371.34 576.713a10.016 10.016 0 0 0-8.233-6.5l-27.119-3.2-9.9-7.065a40.6 40.6 0 0 0-23.58-7.545h-64.364a1.112 1.112 0 0 0-.426 2.131l4.641 1.984a8.482 8.482 0 0 0-.467.912l-2.621 6.073a11.814 11.814 0 0 0-.967 4.687 2.655 2.655 0 0 0-2.655 2.653v10.578l-2.749 1.228a3.677 3.677 0 0 0-2.174 3.351v2.744a4.475 4.475 0 0 0 3.6 4.4l14.55 2.91v-1.314a14.045 14.045 0 0 1 14.045-14.046 14.045 14.045 0 0 1 14.045 14.046v1.314h58.457v-1.314a14.045 14.045 0 0 1 14.044-14.046 14.045 14.045 0 0 1 14.046 14.046v1.314h7.178a3.507 3.507 0 0 0 3.507-3.507v-8.024z" class="cls-11" transform="translate(-2230.729 -552.407)"/>
                <path id="Path_5032" d="M2241.886 557.435l-2.621 6.072a11.814 11.814 0 0 0-.967 4.687h3.622l3.536-10.344-3.1-1.328a8.387 8.387 0 0 0-.47.913z" class="cls-13" transform="translate(-2230.723 -552.404)"/>
                <path id="Path_5033" d="M2371.228 576.694a10.024 10.024 0 0 0-.823-1.7h-3.835l3.479 8.076 4.049 2.344v-.9z" class="cls-11" transform="translate(-2230.617 -552.388)"/>
                <g id="Group_401" class="cls-14" transform="translate(135.953 22.602)">
                    <path id="Path_5034" d="M2371.228 576.694a10.024 10.024 0 0 0-.823-1.7h-3.835l3.479 8.076 4.049 2.344v-.9z" transform="translate(-2366.57 -574.99)"/>
                </g>
                <path id="Path_5035" d="M2235.924 577.841h1.992a5.594 5.594 0 0 0 3.2-1l3.315-2.3a2.164 2.164 0 0 0 .934-1.781 2.169 2.169 0 0 0-2.169-2.169h-7.244a.318.318 0 0 0-.318.317v6.605a.319.319 0 0 0 .29.328z" class="cls-9" transform="translate(-2230.725 -552.392)"/>
                <path id="Path_5036" d="M2374.3 585.037l-1.154-.667h.7a.426.426 0 0 0 0-.838h-2.158l-.727-.426h2.463a.426.426 0 0 0 0-.84h-3.271l-.181-.425h2.961a.426.426 0 1 0 0-.838h-3.322l-.181-.426h3.092a.426.426 0 1 0 0-.837h-3.458l-.181-.426h3.164a.426.426 0 0 0 0-.838h-3.519l-.179-.426h3.21a.426.426 0 1 0 0-.837h-3.573l-.181-.426h3.309a.426.426 0 0 0 0-.84h-3.669l-.251-.579h3.209a.426.426 0 1 0 0-.837h-3.835a.424.424 0 0 0-.415.435.415.415 0 0 0 .03.148l1.152 2.674.542 1.257.542 1.257.542 1.257.541 1.255.16.37a.438.438 0 0 0 .175.2l4.047 2.344a.426.426 0 0 0 .427-.727z" class="cls-11" transform="translate(-2230.617 -552.389)"/>
                <g id="Group_402" class="cls-14" transform="translate(135.538 22.135)">
                    <path id="Path_5037" d="M2374.3 585.037l-1.154-.667h.7a.426.426 0 0 0 0-.838h-2.158l-.727-.426h2.463a.426.426 0 0 0 0-.84h-3.271l-.181-.425h2.961a.426.426 0 1 0 0-.838h-3.322l-.181-.426h3.092a.426.426 0 1 0 0-.837h-3.458l-.181-.426h3.164a.426.426 0 0 0 0-.838h-3.519l-.179-.426h3.21a.426.426 0 1 0 0-.837h-3.573l-.181-.426h3.309a.426.426 0 0 0 0-.84h-3.669l-.251-.579h3.209a.426.426 0 1 0 0-.837h-3.835a.424.424 0 0 0-.415.435.415.415 0 0 0 .03.148l1.152 2.674.542 1.257.542 1.257.542 1.257.541 1.255.16.37a.438.438 0 0 0 .175.2l4.047 2.344a.426.426 0 0 0 .427-.727z" class="cls-1" transform="translate(-2366.155 -574.523)"/>
                </g>
                <circle id="Ellipse_296" cx="12.24" cy="12.24" r="12.24" class="cls-15" transform="translate(20.277 30.672)"/>
                <path id="Path_5038" d="M2250.988 595.078a.233.233 0 0 0 0 .032 12.24 12.24 0 0 0 24.472.643v-.288a.175.175 0 0 0 0-.032z" class="cls-15" transform="translate(-2230.712 -552.372)"/>
                <path id="Path_5039" d="M2254.628 595.17a8.593 8.593 0 1 0 8.716-8.469 8.593 8.593 0 0 0-8.716 8.469z" class="cls-3" transform="translate(-2230.709 -552.379)"/>
                <path id="Path_5040" d="M2263.344 586.7a8.593 8.593 0 0 0-8.716 8.468l17.185.247a8.592 8.592 0 0 0-8.467-8.716z" class="cls-8" transform="translate(-2230.709 -552.379)"/>
                <path id="Path_5041" d="M2257.983 595.214a5.235 5.235 0 1 0 5.311-5.158 5.235 5.235 0 0 0-5.311 5.158z" class="cls-15" transform="translate(-2230.706 -552.376)"/>
                <circle id="Ellipse_297" cx="12.24" cy="12.24" r="12.24" class="cls-15" transform="translate(106.557 30.678)"/>
                <path id="Path_5042" d="M2337.2 595.078v.032a12.241 12.241 0 0 0 24.479.354v-.032z" class="cls-15" transform="translate(-2230.641 -552.372)"/>
                <path id="Path_5043" d="M2340.845 595.17a8.593 8.593 0 1 0 8.716-8.469 8.592 8.592 0 0 0-8.716 8.469z" class="cls-3" transform="translate(-2230.638 -552.379)"/>
                <path id="Path_5044" d="M2349.561 586.7a8.593 8.593 0 0 0-8.716 8.468l17.185.247a8.593 8.593 0 0 0-8.467-8.716z" class="cls-8" transform="translate(-2230.638 -552.379)"/>
                <path id="Path_5045" d="M2344.2 595.214a5.235 5.235 0 1 0 5.311-5.158 5.234 5.234 0 0 0-5.31 5.155z" class="cls-15" transform="translate(-2230.635 -552.376)"/>
                <path id="Path_5046" d="M2335.921 567.021l-9.9-7.065a40.578 40.578 0 0 0-9.226-4.922h-3.263l19.8 13.161z" class="cls-13" transform="translate(-2230.661 -552.405)"/>
                <path id="Path_5047" d="M2365.086 574.215h4.811a11.7 11.7 0 0 0-2.476-2.429c-1.099-.353-2.441 1.025-2.335 2.429z" class="cls-3" transform="translate(-2230.618 -552.391)"/>
                <path id="Path_5048" d="M2267.127 568.573h63.685l-18.187-12.545a7.776 7.776 0 0 0-4.6-1.5h-39.475s-14.181-.347-17.294 3.931z" class="cls-15" transform="translate(-2230.712 -552.405)"/>
                <path id="Path_5049" d="M2262.53 568.6c-.234 0-.464 0-.695-.021a11.148 11.148 0 0 1-8.033-4.155l-2.6-3.23a2.131 2.131 0 0 1 .874-3.309l2.238-.987a23.927 23.927 0 0 1 8.322-1.587h7.408l-2.374 13.289zm10.322 0l2.367-13.289h21.818V568.6zm30.817 0l-2.557-13.289h7.54a5.367 5.367 0 0 1 3.212 1.066l16.354 12.221z" class="cls-13" transform="translate(-2230.712 -552.405)"/>
                <path id="Path_5050" d="M2301.021 592.769a.232.232 0 0 1 0-.061v-.9c0-.624.011-1.514.019-2.609.026-2.212.062-5.252.1-8.612l.071-4.741c0-.729.023-1.421.034-2.069a11.534 11.534 0 0 0-.062-1.794 12.559 12.559 0 0 0-.592-2.531c-.1-.289-.185-.513-.245-.665l-.07-.17a.346.346 0 0 1-.021-.06.35.35 0 0 1 .032.056c.019.036.044.093.079.166.068.149.159.37.268.657a12.176 12.176 0 0 1 .627 2.536 11.34 11.34 0 0 1 .076 1.8c0 .65-.015 1.342-.023 2.069l-.062 4.743c-.051 3.358-.1 6.391-.134 8.61-.021 1.095-.04 1.986-.053 2.609l-.019.71v.186a.227.227 0 0 1-.025.07z" class="cls-15" transform="translate(-2230.671 -552.394)"/>
                <path id="Path_5051" d="M2328.634 569.517a.2.2 0 0 1 .049.034c.038.028.085.064.142.111l.1.083.108.117a2.508 2.508 0 0 1 .258.3 8.2 8.2 0 0 1 1.1 2.285 16.9 16.9 0 0 1 .474 1.689c.073.306.136.626.2.959a4.747 4.747 0 0 1 .079 1.037c0 1.417-.045 2.983-.085 4.609-.085 3.269-.183 6.226-.262 8.367-.041 1.066-.075 1.929-.1 2.536l-.034.688-.011.179a.376.376 0 0 1 0 .062.293.293 0 0 1 0-.062v-.87c.017-.607.039-1.469.064-2.535l.23-8.369c.04-1.632.085-3.2.094-4.6a4.763 4.763 0 0 0-.073-1.022c-.057-.328-.119-.64-.189-.955-.139-.612-.294-1.176-.458-1.685a8.446 8.446 0 0 0-1.072-2.291 4.01 4.01 0 0 0-.614-.667z" class="cls-15" transform="translate(-2230.648 -552.393)"/>
                <path id="Path_5052" d="M2330.741 569.089a2.184 2.184 0 0 0-1.117-1.918l-2.865-1.61a5.481 5.481 0 0 0-2.678-.7 5.475 5.475 0 0 0-1.7.271 3.11 3.11 0 0 0-2.091 2.854 3.16 3.16 0 0 0 3.039 3.277h5.233a2.189 2.189 0 0 0 2.179-2.174z" class="cls-11" transform="translate(-2230.655 -552.397)"/>
                <path id="Path_5053" d="M2330.741 569.089a1.664 1.664 0 0 1-.034.277 2.186 2.186 0 0 1-.252.75 2.223 2.223 0 0 1-.878.865 2.144 2.144 0 0 1-.736.232c-.272.032-.572.013-.883.017l-4.374-.014a3.341 3.341 0 0 1-1.217-.2 3.106 3.106 0 0 1-.712-5.434 3.285 3.285 0 0 1 1.185-.5 5.584 5.584 0 0 1 1.238-.147 5.414 5.414 0 0 1 2.243.482c.331.147.64.334.932.5l.852.472 1.47.817a2.186 2.186 0 0 1 .88.859 2.226 2.226 0 0 1 .254.748c.027.181.023.277.032.277a1.441 1.441 0 0 0 0-.279 2.12 2.12 0 0 0-.237-.77 2.217 2.217 0 0 0-.886-.908l-1.459-.831-.853-.482c-.3-.164-.6-.354-.936-.507a5.519 5.519 0 0 0-3.558-.357 3.409 3.409 0 0 0-1.229.515 3.219 3.219 0 0 0-1.349 2.386 3.3 3.3 0 0 0 .2 1.41 3.247 3.247 0 0 0 1.891 1.867 3.361 3.361 0 0 0 1.261.2l4.375-.012a8.564 8.564 0 0 0 .892-.028 2.176 2.176 0 0 0 .76-.251 2.272 2.272 0 0 0 .89-.906 2.1 2.1 0 0 0 .232-.769 1.526 1.526 0 0 0 .006-.279z" class="cls-15" transform="translate(-2230.655 -552.397)"/>
                <path id="Path_5054" d="M2322.822 566.078a2.821 2.821 0 0 1 .247-.239 1.691 1.691 0 0 1 .852-.34 3.7 3.7 0 0 1 1.364.147 10.5 10.5 0 0 1 4.228 2.177c.608.509.929.887.948.87a1.578 1.578 0 0 0-.213-.273 8.178 8.178 0 0 0-.672-.669 9.736 9.736 0 0 0-2.626-1.679 10.068 10.068 0 0 0-1.632-.545 3.687 3.687 0 0 0-1.406-.121 1.67 1.67 0 0 0-.866.4 1.106 1.106 0 0 0-.17.2.28.28 0 0 0-.054.072z" class="cls-1" transform="translate(-2230.653 -552.396)"/>
                <path id="Path_5055" d="M2281.059 595.678v-.152c0-.1.013-.251.023-.442s.032-.426.035-.719-.011-.613-.018-.982-.068-.778-.1-1.225c-.021-.224-.073-.454-.108-.695s-.073-.492-.135-.748a18.809 18.809 0 0 0-1.1-3.384 18.115 18.115 0 0 0-2.2-3.7 17.425 17.425 0 0 0-3.522-3.454 16.583 16.583 0 0 0-4.864-2.452 19.38 19.38 0 0 0-5.789-.876 20.007 20.007 0 0 0-5.785.914 18.137 18.137 0 0 0-4.9 2.4 19.814 19.814 0 0 0-3.679 3.3 21.486 21.486 0 0 0-2.491 3.52 23.712 23.712 0 0 0-1.469 3.239c-.093.244-.161.489-.24.72s-.153.454-.213.672c-.109.426-.213.831-.3 1.193l-.192.963c-.051.279-.077.52-.106.712l-.064.439c-.015.1-.026.149-.026.149a1.156 1.156 0 0 1 .015-.151l.053-.439c.026-.194.049-.426.1-.716s.113-.6.183-.968.185-.759.292-1.195c.053-.213.134-.441.213-.676s.144-.477.236-.725a23.158 23.158 0 0 1 1.47-3.256 21.6 21.6 0 0 1 2.488-3.543 19.908 19.908 0 0 1 3.693-3.322 18.189 18.189 0 0 1 4.919-2.42 20.128 20.128 0 0 1 5.817-.921 19.427 19.427 0 0 1 5.821.883 16.706 16.706 0 0 1 4.89 2.473 17.52 17.52 0 0 1 3.539 3.48 18.259 18.259 0 0 1 2.2 3.726 18.752 18.752 0 0 1 1.085 3.409c.061.256.087.511.132.75s.085.473.1.7c.032.449.083.852.094 1.229s0 .7 0 .985-.034.523-.045.72-.026.339-.034.441-.018.144-.018.144z" class="cls-15" transform="translate(-2230.718 -552.387)"/>
                <path id="Path_5056" d="M2268.516 577.508a.7.7 0 0 1-.064-.083c-.039-.055-.094-.153-.158-.253-.134-.213-.326-.541-.551-.946a15.8 15.8 0 0 1-.734-1.453 2.7 2.7 0 0 1-.149-.456.6.6 0 0 1 .015-.259c.02-.081.045-.16.068-.241.107-.317.228-.64.36-.968.527-1.31 1.053-2.473 1.434-3.315.194-.426.351-.759.464-.991.051-.106.1-.2.132-.268a.338.338 0 0 1 .053-.09.43.43 0 0 1-.034.1l-.113.275-.425 1.006c-.365.852-.878 2.018-1.4 3.324-.13.326-.254.639-.358.961a1.013 1.013 0 0 0-.081.451 2.188 2.188 0 0 0 .139.426c.234.56.491 1.046.707 1.455l.521.961.14.262a.645.645 0 0 1 .034.102z" class="cls-15" transform="translate(-2230.699 -552.394)"/>
                <path id="Path_5057" d="M2250.83 581.6c0 .032-3.426.041-7.65.022s-7.653-.06-7.653-.09 3.426-.04 7.653-.021 7.65.055 7.65.089z" class="cls-15" transform="translate(-2230.725 -552.383)"/>
                <path id="Path_5058" d="M2330.691 592.558c0 .03-11.116.055-24.824.055s-24.823-.028-24.823-.057 11.111-.056 24.823-.056 24.824.036 24.824.058z" class="cls-15" transform="translate(-2230.688 -552.374)"/>
                <path id="Path_5059" d="M2374.085 592.69c0 .032-1.706.055-3.8.055s-3.8-.023-3.8-.055 1.7-.056 3.8-.056 3.8.026 3.8.056z" class="cls-15" transform="translate(-2230.617 -552.374)"/>
                <path id="Path_5060" d="M2364.712 572.646h-.092l-.236-.017-.916-.074c-.8-.064-1.946-.171-3.367-.311-2.841-.283-6.759-.727-11.079-1.33s-8.2-1.25-11.011-1.759c-1.4-.253-2.54-.466-3.322-.622l-.9-.181-.235-.049-.078-.021a.541.541 0 0 1 .081 0l.236.039.906.159 3.326.589c2.81.487 6.7 1.123 11.015 1.725s8.224 1.066 11.062 1.361l3.36.347.915.1.238.026z" class="cls-15" transform="translate(-2230.644 -552.394)"/>
                <path id="Path_5061" d="M2309.409 573.981a.873.873 0 0 0 .172-.025 1.21 1.21 0 0 0 .455-.181 1.162 1.162 0 0 0 .462-.6 1.281 1.281 0 0 0 .059-.474 1.175 1.175 0 0 0-.134-.516 1.14 1.14 0 0 0-.995-.6h-4.8a1.133 1.133 0 0 0-1.123 1 1.278 1.278 0 0 0 .138.764 1.149 1.149 0 0 0 .554.491 1.779 1.779 0 0 0 .718.088h1.988l1.841.019h.5a1.136 1.136 0 0 1 .174.01.78.78 0 0 1-.174.011l-.5.011-1.841.042h-2.358a1.278 1.278 0 0 1-.386-.087 1.249 1.249 0 0 1-.606-.534 1.373 1.373 0 0 1-.154-.829 1.241 1.241 0 0 1 1.232-1.1h4.8a1.227 1.227 0 0 1 1.065.663 1.25 1.25 0 0 1 .137.549 1.361 1.361 0 0 1-.073.5 1.194 1.194 0 0 1-.5.618 1.161 1.161 0 0 1-.475.166.7.7 0 0 1-.176.014z" class="cls-15" transform="translate(-2230.669 -552.391)"/>
                <path id="Path_5062" d="M2309 571.207a30.9 30.9 0 0 1-3.788 0 32.608 32.608 0 0 1 3.788 0z" class="cls-1" transform="translate(-2230.667 -552.391)"/>
                <path id="Path_5063" d="M2277.955 574.175a.838.838 0 0 0 .172-.026 1.182 1.182 0 0 0 .917-.781 1.259 1.259 0 0 0 .059-.475 1.171 1.171 0 0 0-.134-.515 1.148 1.148 0 0 0-.995-.6h-4.8a1.132 1.132 0 0 0-1.123 1 1.275 1.275 0 0 0 .138.763 1.146 1.146 0 0 0 .555.492 1.727 1.727 0 0 0 .717.087h1.986l1.841.017.5.011a1.127 1.127 0 0 1 .174.011.912.912 0 0 1-.174.012l-.5.011-1.841.017h-2.358a1.22 1.22 0 0 1-.386-.087 1.248 1.248 0 0 1-.607-.534 1.371 1.371 0 0 1-.153-.827 1.238 1.238 0 0 1 1.232-1.106h4.8a1.221 1.221 0 0 1 1.065.662 1.248 1.248 0 0 1 .137.549 1.368 1.368 0 0 1-.073.5 1.193 1.193 0 0 1-.5.617 1.145 1.145 0 0 1-.472.167.73.73 0 0 1-.177.035z" class="cls-15" transform="translate(-2230.695 -552.391)"/>
                <path id="Path_5064" d="M2277.548 571.4a30.895 30.895 0 0 1-3.788 0 32.64 32.64 0 0 1 3.788 0z" class="cls-1" transform="translate(-2230.694 -552.391)"/>
                <path id="Path_5065" d="M2366.7 596.074v-1.314c0-.291-.043-.611-.068-.978s-.1-.774-.16-1.219c-.03-.213-.089-.449-.134-.687s-.094-.489-.162-.74a20.19 20.19 0 0 0-1.184-3.352 19.211 19.211 0 0 0-2.25-3.666 18.011 18.011 0 0 0-3.529-3.442 16.829 16.829 0 0 0-4.841-2.482 18.692 18.692 0 0 0-11.544 0 16.9 16.9 0 0 0-4.843 2.48 18.119 18.119 0 0 0-3.528 3.441 19.249 19.249 0 0 0-2.25 3.669 20.305 20.305 0 0 0-1.185 3.35c-.068.253-.108.5-.162.742s-.1.466-.134.688c-.057.445-.127.853-.159 1.217s-.047.695-.068.978 0 .526 0 .721c0-.192-.013-.437 0-.721s.036-.613.057-.982.1-.774.149-1.221c.028-.213.087-.451.132-.693s.089-.49.158-.744a20.449 20.449 0 0 1 1.171-3.369 19.336 19.336 0 0 1 2.2-3.69 18.082 18.082 0 0 1 3.541-3.469 16.944 16.944 0 0 1 4.868-2.5 18.748 18.748 0 0 1 11.613 0 16.848 16.848 0 0 1 4.866 2.5 18.027 18.027 0 0 1 3.541 3.467 19.279 19.279 0 0 1 2.252 3.692 20.182 20.182 0 0 1 1.174 3.371c.068.253.107.505.158.744s.1.468.13.69c.055.447.121.852.151 1.223s.04.7.057.982 0 .524 0 .719v.442a.463.463 0 0 1-.017.153z" class="cls-15" transform="translate(-2230.646 -552.387)"/>
                <path id="Path_5066" d="M2273.854 554.524a.388.388 0 0 1-.1 0h-5.324l-13.088-.042-7.208-.036c-2.214-.017-4.21 0-5.885-.1a28.974 28.974 0 0 1-3.942-.454c-.46-.087-.815-.168-1.055-.23l-.27-.07a.561.561 0 0 1-.091-.028l.093.018.275.059c.238.055.6.128 1.065.213a30.944 30.944 0 0 0 3.938.415c1.673.087 3.667.064 5.881.075l7.208.027 13.089.075 3.967.036 1.078.015h.279a.425.425 0 0 0 .09.027z" class="cls-15" transform="translate(-2230.724 -552.406)"/>
                <path id="Path_5067" d="M2314.819 560.953a.4.4 0 0 1-.092.051l-.267.123-.988.441c-.836.372-1.984.9-3.241 1.5s-2.38 1.18-3.2 1.6l-.961.5-.264.132a.432.432 0 0 1-.094.041.6.6 0 0 1 .084-.06l.253-.151c.213-.13.543-.311.944-.53.8-.439 1.917-1.027 3.181-1.634s2.414-1.121 3.258-1.476c.427-.177.766-.318 1-.409l.275-.105a.41.41 0 0 1 .112-.023z" class="cls-3" transform="translate(-2230.667 -552.4)"/>
                <path id="Path_5068" d="M2311.785 560.657a5.1 5.1 0 0 1-.607.311c-.377.185-.9.447-1.457.761s-1.066.617-1.413.841a5.049 5.049 0 0 1-.586.354 3.511 3.511 0 0 1 .542-.426c.348-.243.839-.56 1.4-.874q.722-.4 1.481-.735a3.275 3.275 0 0 1 .64-.232z" class="cls-3" transform="translate(-2230.665 -552.4)"/>
                <path id="Path_5069" d="M2264.276 560.535c.012.03-1.523.64-3.429 1.379s-3.458 1.3-3.468 1.278 1.523-.639 3.428-1.376 3.458-1.308 3.469-1.281z" class="cls-3" transform="translate(-2230.707 -552.4)"/>
                <path id="Path_5070" d="M2262.3 559.9c.011.028-1.314.539-2.957 1.138s-2.983 1.065-3 1.035 1.315-.539 2.959-1.14 2.989-1.064 2.998-1.033z" class="cls-3" transform="translate(-2230.708 -552.401)"/>
                <path id="Path_5071" d="M2352.047 576.64a1.018 1.018 0 0 1-.174-.01l-.5-.049-.358-.039c-.132-.01-.275-.017-.427-.025-.309-.015-.658-.049-1.044-.043h-.61c-.213 0-.426.015-.658.024-.454 0-.937.063-1.448.11a21.253 21.253 0 0 0-6.392 1.755c-.462.213-.906.426-1.3.639-.2.111-.4.213-.58.317l-.52.313c-.334.194-.619.4-.875.569-.128.087-.247.166-.354.242s-.2.149-.29.213l-.4.3a.9.9 0 0 1-.145.1.914.914 0 0 1 .13-.115l.389-.313.285-.223c.106-.081.212-.16.349-.249.255-.177.537-.388.871-.586l.519-.321c.181-.111.379-.213.578-.324.4-.228.851-.426 1.3-.657a20.683 20.683 0 0 1 6.425-1.766c.513-.045 1-.1 1.458-.1.228 0 .447-.022.66-.017l.61.01c.39 0 .74.038 1.049.06.153.013.3.019.425.034l.358.049.5.07a.965.965 0 0 1 .169.032z" class="cls-3" transform="translate(-2230.642 -552.387)"/>
                <path id="Path_5072" d="M2263.819 576.07a.732.732 0 0 1-.139.01h-.394c-.17 0-.378 0-.622.017s-.521.02-.823.054l-.479.042c-.164.017-.336.045-.516.066-.356.043-.732.117-1.132.185a23.879 23.879 0 0 0-2.541.663 25.744 25.744 0 0 0-2.45.951c-.735.334-1.385.663-1.918.963-.271.143-.505.288-.716.409s-.389.228-.535.319l-.336.213a.708.708 0 0 1-.122.066.57.57 0 0 1 .109-.085c.085-.055.191-.13.326-.213s.317-.213.525-.336.441-.277.709-.426c.531-.309 1.181-.64 1.917-.989a24.541 24.541 0 0 1 2.455-.982 22.31 22.31 0 0 1 2.556-.656c.4-.066.78-.138 1.14-.174.179-.022.352-.047.519-.062l.481-.036c.3-.03.583-.03.827-.037s.453 0 .624 0l.4.015a.582.582 0 0 1 .135.023z" class="cls-3" transform="translate(-2230.712 -552.387)"/>
            </g>
            <g id="Group_403" transform="translate(130.403 49.29)">
                <circle id="Ellipse_298" cx="13.927" cy="13.927" r="13.927" class="cls-1" transform="translate(0.959 0.959)"/>
                <path id="Path_5073" d="M2369.906 547.938a14.886 14.886 0 1 1 14.885-14.886 14.9 14.9 0 0 1-14.885 14.886zm0-27.854a12.968 12.968 0 1 0 12.968 12.968 12.983 12.983 0 0 0-12.968-12.968z" class="cls-11" transform="translate(-2355.02 -518.165)"/>
            </g>
            <g id="Group_404" transform="translate(139.129 56.767)">
                <path id="Path_5074" d="M2363.738 540.453v-14.817h12.449v2.507h-9.059v3.285h8.429v2.5h-8.429v4.033h9.38v2.5z" transform="translate(-2363.738 -525.636)"/>
            </g>
            <g id="Group_405" transform="translate(135.876 52.455)">
                <path id="Line_156" d="M17.425 0L0 22.01" class="cls-1" transform="translate(0.65 0.515)"/>
                <path id="Rectangle_544" d="M0 0H28.073V1.659H0z" class="cls-11" transform="translate(0 22.01) rotate(-51.632)"/>
            </g>
            <g id="Group_406" transform="translate(135.49 52.764)">
                <path id="Line_157" d="M18.236 21.343L0 0" class="cls-1" transform="translate(0.631 0.539)"/>
                <path id="Rectangle_545" d="M0 0H1.659V28.073H0z" class="cls-11" transform="matrix(0.76, -0.65, 0.65, 0.76, 0, 1.078)"/>
            </g>
        </g>
    </g>
</svg>
