<svg xmlns="http://www.w3.org/2000/svg" width="200" height="160" viewBox="0 0 200 160">
    <defs>
        <style>
            .cls-1{fill:#fff}.cls-4{fill:#fe0060}.cls-5{fill:#8dc4a7}.cls-6{fill:#217566}.cls-7{fill:#93278f}.cls-8{fill:#263238}.cls-9{fill:#fafafa}.cls-10{fill:#e0e0e0}.cls-11{opacity:.7}.cls-13{opacity:.5}.cls-14{fill:#455a64}.cls-15{fill:#ebebeb}
        </style>
    </defs>
    <g id="ilustration_licenciamento" transform="translate(-57 -2302.272)">
        <path id="Rectangle_435" d="M0 0H200V160H0z" class="cls-1" transform="translate(57 2302.272)"/>
        <g id="Group_767" transform="translate(69.211 2315.738)">
            <path id="Path_4897" fill="#fe0060" d="M1843.384 609.07c-129.2-3.242-135.673-106.957-66.2-95.5 75.492 12.45 39.361-55.036 86.554-33.659 76.004 34.428 45.962 130.824-20.354 129.159z" opacity="0.1" transform="translate(-1733.253 -475.695)"/>
            <g id="Group_384" transform="translate(23.379 7.325)">
                <g id="Group_374">
                    <path id="Rectangle_436" fill="#e6e6e6" d="M0 0H130.891V81.507H0z" transform="translate(0 9.589)"/>
                    <path id="Rectangle_437" d="M0 0H23.973V15.582H0z" class="cls-1" transform="translate(8.777 25.291)"/>
                    <path id="Rectangle_438" d="M0 0H23.973V15.582H0z" class="cls-1" transform="translate(38.565 25.291)"/>
                    <path id="Rectangle_439" d="M0 0H23.973V15.582H0z" class="cls-1" transform="translate(68.353 25.291)"/>
                    <path id="Rectangle_440" d="M0 0H23.973V15.582H0z" class="cls-1" transform="translate(98.141 25.291)"/>
                    <path id="Rectangle_441" d="M0 0H23.973V15.582H0z" class="cls-1" transform="translate(8.777 47.346)"/>
                    <path id="Rectangle_442" d="M0 0H23.973V15.582H0z" class="cls-4" transform="translate(38.565 47.346)"/>
                    <path id="Rectangle_443" d="M0 0H23.973V15.582H0z" class="cls-1" transform="translate(68.353 47.346)"/>
                    <path id="Rectangle_444" d="M0 0H23.973V15.582H0z" class="cls-1" transform="translate(98.141 47.346)"/>
                    <path id="Rectangle_445" d="M0 0H23.973V15.582H0z" class="cls-1" transform="translate(8.777 69.401)"/>
                    <path id="Rectangle_446" d="M0 0H23.973V15.582H0z" class="cls-1" transform="translate(38.565 69.401)"/>
                    <path id="Rectangle_447" d="M0 0H23.973V15.582H0z" class="cls-1" transform="translate(68.353 69.401)"/>
                    <path id="Rectangle_448" d="M0 0H23.973V15.582H0z" class="cls-1" transform="translate(98.141 69.401)"/>
                    <circle id="Ellipse_286" cx="3.596" cy="3.596" r="3.596" class="cls-1" transform="translate(30.685 11.986)"/>
                    <circle id="Ellipse_287" cx="3.596" cy="3.596" r="3.596" class="cls-1" transform="translate(90.137 11.986)"/>
                    <path id="Path_4898" d="M1781.987 535.274l-5.336 5.336c-.336-.52-2.2-2.932-2.2-2.932a7.644 7.644 0 0 1 .765-.676l1.55 2.067 4.6-4.6a5.411 5.411 0 0 1 .621.805z" class="cls-1" transform="translate(-1756.641 -483.033)"/>
                    <path id="Rectangle_449" d="M1.343 0h128.178a1.343 1.343 0 0 1 1.343 1.343v4.573H0V1.343A1.343 1.343 0 0 1 1.343 0z" class="cls-4" transform="translate(0 3.673)"/>
                    <path id="Rectangle_450" d="M0 0H2.877V16.541H0z" class="cls-4" transform="translate(32.843)"/>
                    <path id="Rectangle_451" d="M0 0H2.877V16.541H0z" class="cls-4" transform="translate(92.295)"/>
                    <g id="Group_373" transform="translate(44.91 50.946)">
                        <path id="Path_4899" d="M1805.162 542.22h-1.573v-5.929a5.437 5.437 0 0 1-2.034 1.193v-1.428a4.575 4.575 0 0 0 1.339-.765 2.9 2.9 0 0 0 .992-1.313h1.276z" class="cls-1" transform="translate(-1801.556 -533.979)"/>
                        <path id="Path_4900" d="M1810.175 533.979a2.246 2.246 0 0 1 1.865.851 7.37 7.37 0 0 1-.006 6.691 2.238 2.238 0 0 1-1.859.84 2.35 2.35 0 0 1-1.932-.921 7.509 7.509 0 0 1 .073-6.621 2.24 2.24 0 0 1 1.859-.84zm0 1.3a.787.787 0 0 0-.51.182 1.217 1.217 0 0 0-.347.652 13.383 13.383 0 0 0-.017 4.04 1.4 1.4 0 0 0 .367.72.805.805 0 0 0 1.016 0 1.226 1.226 0 0 0 .347-.653 13.338 13.338 0 0 0 .017-4.034 1.409 1.409 0 0 0-.367-.722.775.775 0 0 0-.506-.18z" class="cls-1" transform="translate(-1801.557 -533.979)"/>
                    </g>
                </g>
                <g id="Group_383" transform="translate(58.123 37.699)">
                    <rect id="Rectangle_452" width="12.025" height="16.213" class="cls-5" rx=".594"/>
                    <path id="Rectangle_453" d="M.486 0h11.053a.486.486 0 0 1 .486.486v2.8H0v-2.8A.486.486 0 0 1 .486 0z" class="cls-6"/>
                    <path id="Path_4901" d="M1821.318 525.991h-4.592a.312.312 0 1 1 0-.624h4.592a.312.312 0 0 1 0 .624z" class="cls-6" transform="translate(-1814.773 -520.73)"/>
                    <path id="Path_4902" d="M1825.074 529.227h-3.409a.312.312 0 1 1 0-.624h3.409a.312.312 0 1 1 0 .624z" class="cls-6" transform="translate(-1814.774 -520.73)"/>
                    <path id="Path_4903" d="M1824.237 527.174h-7.511a.312.312 0 1 1 0-.624h7.511a.312.312 0 0 1 0 .624z" class="cls-6" transform="translate(-1814.773 -520.73)"/>
                    <path id="Path_4904" d="M1825.19 530.975h-8.464a.312.312 0 1 1 0-.624h8.464a.312.312 0 0 1 0 .624z" class="cls-6" transform="translate(-1814.773 -520.731)"/>
                    <path id="Path_4905" d="M1825.19 532.159h-8.464a.312.312 0 1 1 0-.624h8.464a.312.312 0 0 1 0 .624z" class="cls-6" transform="translate(-1814.773 -520.731)"/>
                    <path id="Path_4906" d="M1825.171 535.157h-8.266a.312.312 0 1 1 0-.624h8.266a.312.312 0 1 1 0 .624z" class="cls-6" transform="translate(-1814.773 -520.732)"/>
                    <g id="Group_375" transform="translate(1.894 7.692)">
                        <path id="Path_4907" d="M1816.973 529.408l-.213-.165c.067-.076.138-.149.211-.219l.055-.054c-.023 0-.09-.019-.2-.046a1.619 1.619 0 0 1-.158-.044l.083-.248a2.207 2.207 0 0 1 .33.165 2.638 2.638 0 0 1-.034-.375h.251a3.428 3.428 0 0 1-.038.378l.121-.055c.085-.039.163-.072.235-.1l.074.255c-.1.024-.225.047-.362.069l.169.191c.034.038.061.07.08.094l-.215.143-.191-.315c-.058.103-.124.211-.198.326z" class="cls-6" transform="translate(-1816.667 -528.422)"/>
                        <path id="Path_4908" d="M1818.1 529.408l-.213-.165c.068-.076.138-.149.212-.219l.055-.054c-.024 0-.091-.019-.2-.046a1.6 1.6 0 0 1-.158-.044l.083-.248a2.209 2.209 0 0 1 .33.165 2.791 2.791 0 0 1-.034-.375h.251a3.159 3.159 0 0 1-.038.378l.122-.055q.126-.058.234-.1l.075.255q-.157.036-.363.069l.169.191.081.094-.216.143-.191-.315-.199.326z" class="cls-6" transform="translate(-1816.667 -528.422)"/>
                        <path id="Path_4909" d="M1819.221 529.408l-.213-.165c.068-.076.138-.149.212-.219l.055-.054c-.024 0-.091-.019-.2-.046a1.581 1.581 0 0 1-.158-.044l.083-.248a2.164 2.164 0 0 1 .33.165 2.746 2.746 0 0 1-.033-.375h.251a3.472 3.472 0 0 1-.038.378l.121-.055c.084-.039.163-.072.234-.1l.075.255c-.105.024-.225.047-.363.069l.17.191.08.094-.216.143-.19-.315q-.089.154-.2.326z" class="cls-6" transform="translate(-1816.667 -528.422)"/>
                        <path id="Path_4910" d="M1820.345 529.408l-.213-.165c.068-.076.139-.149.212-.219l.055-.054c-.023 0-.091-.019-.2-.046-.08-.02-.132-.034-.158-.044l.084-.248a2.233 2.233 0 0 1 .33.165 2.626 2.626 0 0 1-.034-.375h.251a3.407 3.407 0 0 1-.038.378l.121-.055q.127-.058.234-.1l.075.255q-.156.036-.363.069l.17.191c.034.038.06.07.08.094l-.216.143-.19-.315q-.088.154-.2.326z" class="cls-6" transform="translate(-1816.668 -528.422)"/>
                    </g>
                    <g id="Group_380" transform="translate(1.871 12.068)">
                        <g id="Group_377">
                            <g id="Group_376">
                                <path id="Path_4911" d="M1816.95 533.785l-.213-.165c.067-.076.138-.149.211-.219l.055-.053c-.023 0-.09-.02-.2-.047-.08-.02-.133-.034-.158-.044l.083-.248a2.221 2.221 0 0 1 .33.165 2.627 2.627 0 0 1-.034-.375h.251a3.132 3.132 0 0 1-.038.378c.019-.007.059-.026.121-.055.085-.039.163-.071.235-.1l.074.256q-.156.034-.362.069l.169.19c.034.039.061.07.081.095l-.216.142-.191-.314q-.087.152-.198.325z" class="cls-6" transform="translate(-1816.644 -532.799)"/>
                                <path id="Path_4912" d="M1818.074 533.785l-.213-.165c.068-.076.138-.149.212-.219l.055-.053c-.024 0-.091-.02-.2-.047a1.623 1.623 0 0 1-.158-.044l.083-.248a2.2 2.2 0 0 1 .33.165 2.769 2.769 0 0 1-.034-.375h.251a3.15 3.15 0 0 1-.038.378c.019-.007.06-.026.122-.055.084-.039.162-.071.234-.1l.075.256q-.157.034-.363.069l.169.19c.034.039.061.07.081.095l-.216.142-.19-.314q-.089.152-.2.325z" class="cls-6" transform="translate(-1816.644 -532.799)"/>
                                <path id="Path_4913" d="M1819.2 533.785l-.213-.165c.068-.076.139-.149.212-.219l.055-.053c-.024 0-.091-.02-.2-.047-.08-.02-.132-.034-.158-.044l.083-.248a2.134 2.134 0 0 1 .33.165 2.714 2.714 0 0 1-.033-.375h.251a3.407 3.407 0 0 1-.038.378c.018-.007.059-.026.121-.055.085-.039.163-.071.234-.1l.075.256c-.105.023-.225.046-.363.069l.17.19.08.095-.216.142-.19-.314c-.062.102-.127.21-.2.325z" class="cls-6" transform="translate(-1816.645 -532.799)"/>
                                <path id="Path_4914" d="M1820.323 533.785l-.213-.165c.067-.076.138-.149.211-.219l.055-.053c-.023 0-.091-.02-.2-.047-.08-.02-.132-.034-.158-.044l.084-.248a2.224 2.224 0 0 1 .33.165 2.591 2.591 0 0 1-.034-.375h.251a3.356 3.356 0 0 1-.038.378c.019-.007.059-.026.121-.055.085-.039.163-.071.234-.1l.075.256c-.1.023-.225.046-.362.069l.169.19c.034.039.061.07.08.095l-.216.142-.19-.314c-.059.102-.122.21-.199.325z" class="cls-6" transform="translate(-1816.645 -532.799)"/>
                            </g>
                        </g>
                        <g id="Group_379" transform="translate(4.477)">
                            <g id="Group_378">
                                <path id="Path_4915" d="M1821.428 533.785l-.213-.165c.068-.076.138-.149.211-.219l.055-.053c-.023 0-.09-.02-.2-.047a1.623 1.623 0 0 1-.158-.044l.083-.248a2.221 2.221 0 0 1 .33.165 2.772 2.772 0 0 1-.034-.375h.251a3.132 3.132 0 0 1-.038.378c.019-.007.059-.026.122-.055.084-.039.162-.071.234-.1l.074.256c-.1.023-.225.046-.362.069l.169.19c.034.039.061.07.081.095l-.216.142-.191-.314q-.087.152-.198.325z" class="cls-6" transform="translate(-1821.122 -532.799)"/>
                                <path id="Path_4916" d="M1822.552 533.785l-.213-.165c.068-.076.138-.149.212-.219l.055-.053c-.024 0-.091-.02-.2-.047a1.634 1.634 0 0 1-.158-.044l.083-.248a2.212 2.212 0 0 1 .33.165 2.752 2.752 0 0 1-.034-.375h.252a3.218 3.218 0 0 1-.039.378c.019-.007.06-.026.122-.055.084-.039.162-.071.234-.1l.075.256q-.157.034-.363.069l.169.19c.034.039.061.07.081.095l-.216.142-.19-.314q-.089.152-.2.325z" class="cls-6" transform="translate(-1821.122 -532.799)"/>
                                <path id="Path_4917" d="M1823.676 533.785l-.213-.165q.1-.114.212-.219l.055-.053c-.024 0-.091-.02-.2-.047-.08-.02-.132-.034-.158-.044l.083-.248a2.179 2.179 0 0 1 .331.165 2.606 2.606 0 0 1-.034-.375h.248a3.407 3.407 0 0 1-.038.378c.019-.007.059-.026.121-.055.085-.039.163-.071.234-.1l.075.256q-.156.034-.363.069l.17.19.08.095-.216.142-.19-.314c-.057.102-.122.21-.197.325z" class="cls-6" transform="translate(-1821.122 -532.799)"/>
                                <path id="Path_4918" d="M1824.8 533.785l-.213-.165c.067-.076.138-.149.211-.219l.055-.053c-.023 0-.091-.02-.2-.047-.079-.02-.132-.034-.157-.044l.083-.248a2.209 2.209 0 0 1 .33.165 2.621 2.621 0 0 1-.034-.375h.251a3.347 3.347 0 0 1-.038.378c.019-.007.059-.026.121-.055.085-.039.163-.071.234-.1l.075.256c-.1.023-.225.046-.362.069l.169.19c.034.039.061.07.08.095l-.215.142-.191-.314q-.086.152-.199.325z" class="cls-6" transform="translate(-1821.123 -532.799)"/>
                            </g>
                        </g>
                    </g>
                    <g id="Group_382" transform="translate(1.07 1.194)">
                        <g id="Group_381">
                            <path id="Path_4919" d="M1816.117 522.8l-.191-.148c.061-.068.124-.133.19-.195l.049-.048-.181-.042q-.107-.027-.141-.039l.075-.222a1.994 1.994 0 0 1 .295.147 2.445 2.445 0 0 1-.031-.335h.225a2.9 2.9 0 0 1-.034.338l.108-.049c.076-.035.146-.064.21-.088l.067.228c-.094.021-.2.041-.325.062l.152.17.072.084-.193.128-.171-.281c-.051.09-.11.19-.176.29z" class="cls-5" transform="translate(-1815.843 -521.923)"/>
                            <path id="Path_4920" d="M1817.122 522.8l-.19-.148c.06-.068.123-.133.189-.195l.049-.048-.18-.042c-.072-.018-.119-.031-.142-.039l.075-.222a2 2 0 0 1 .295.147 2.4 2.4 0 0 1-.03-.335h.224a2.9 2.9 0 0 1-.034.338l.109-.049c.075-.035.145-.064.209-.088l.067.228c-.093.021-.2.041-.324.062l.151.17.072.084-.193.128-.17-.281c-.052.09-.11.19-.177.29z" class="cls-5" transform="translate(-1815.843 -521.923)"/>
                            <path id="Path_4921" d="M1818.127 522.8l-.19-.148c.06-.068.124-.133.189-.195l.049-.048-.18-.042c-.072-.018-.119-.031-.141-.039l.074-.222a1.939 1.939 0 0 1 .3.147 2.389 2.389 0 0 1-.03-.335h.224a2.9 2.9 0 0 1-.034.338l.109-.049c.076-.035.145-.064.209-.088l.067.228c-.093.021-.2.041-.324.062l.151.17c.031.034.055.063.072.084l-.193.128-.17-.281c-.056.09-.115.19-.182.29z" class="cls-5" transform="translate(-1815.844 -521.923)"/>
                            <path id="Path_4922" d="M1819.133 522.8l-.191-.148q.091-.1.189-.195l.05-.048-.181-.042q-.107-.027-.141-.039l.074-.222a1.947 1.947 0 0 1 .295.147 2.4 2.4 0 0 1-.03-.335h.225a3.135 3.135 0 0 1-.034.338l.108-.049c.076-.035.146-.064.209-.088l.067.228c-.093.021-.2.041-.324.062l.152.17.071.084-.193.128-.17-.281c-.051.09-.109.19-.176.29z" class="cls-5" transform="translate(-1815.844 -521.923)"/>
                            <path id="Path_4923" d="M1820.138 522.8l-.191-.148c.061-.068.124-.133.19-.195l.049-.048-.181-.042q-.107-.027-.141-.039l.075-.222a1.994 1.994 0 0 1 .295.147 2.448 2.448 0 0 1-.031-.335h.225a2.9 2.9 0 0 1-.034.338l.108-.049c.076-.035.146-.064.21-.088l.067.228c-.094.021-.2.041-.325.062l.152.17.072.084-.193.128-.171-.281c-.051.09-.114.19-.176.29z" class="cls-5" transform="translate(-1815.844 -521.923)"/>
                            <path id="Path_4924" d="M1821.143 522.8l-.19-.148q.09-.1.189-.195l.049-.048-.18-.042c-.072-.018-.119-.031-.142-.039l.075-.222a1.994 1.994 0 0 1 .295.147 2.386 2.386 0 0 1-.03-.335h.224a2.865 2.865 0 0 1-.034.338l.109-.049c.075-.035.145-.064.209-.088l.067.228c-.094.021-.2.041-.324.062l.151.17.072.084-.193.128-.17-.281c-.052.09-.11.19-.177.29z" class="cls-5" transform="translate(-1815.844 -521.923)"/>
                        </g>
                    </g>
                </g>
            </g>
            <g id="freepik--Car--inject-381" transform="translate(10.38 76.708)">
                <path id="Path_4925" d="M1899.855 576.723a7.45 7.45 0 0 1 .3 9.794 10.732 10.732 0 0 1-3.831 2.908l-12.718 5.731-8.984 1.39-117.572-.745-7.368-1.442a7.486 7.486 0 0 1-6.047-7.451l.075-5.12a1.812 1.812 0 0 1 1.294-1.706l.517-.16s.435-5.019 3.463-6.156c11.037-4.754 18.34-6.281 36.813-7.053l15.6-9.317s6.3-4.025 12.166-4.553a241.869 241.869 0 0 1 25.238-.184c7.146.412 16.212 3.662 21.27 6.171 3.96 1.965 13.492 6.818 13.492 6.818l5.391.9c.813.039 15.7.948 17.414 1.209a3.423 3.423 0 0 1 2.709 2.329 55.449 55.449 0 0 1 .777 6.6" class="cls-7" transform="translate(-1743.635 -552.419)"/>
                <path id="Path_4926" d="M1854.355 559.1c-2.542-1.271-9.359-3.023-13.172-3.737s-11.562-.813-14.657-.736-11.7.228-16.233 1.515a31.652 31.652 0 0 0-8.282 4.229c-.777.564-4.1 3.175-4.843 3.768l-5.772 5.389 70.917-2.239s.409-2.472-.867-3.9-7.091-4.289-7.091-4.289z" class="cls-8" transform="translate(-1743.645 -552.42)"/>
                <path id="Path_4927" d="M1749.141 579.624l-3.587-.052c.14-.968.614-3.541 2.148-4.982l4.75.069a1.115 1.115 0 0 1 .934 1.7l-.865 1.406a3.9 3.9 0 0 1-3.38 1.859z" class="cls-9" transform="translate(-1743.636 -552.424)"/>
                <path id="Path_4928" d="M1749.577 579.406c.373-1.579.844-3.654 2.177-4.757h.7a1.115 1.115 0 0 1 .934 1.7l-.865 1.406a3.881 3.881 0 0 1-3 1.84z" class="cls-10" transform="translate(-1743.636 -552.424)"/>
                <g id="Group_385" class="cls-11" transform="translate(13.092 24.178)">
                    <path id="Path_4929" d="M1784.388 596.023a17.653 17.653 0 0 0 .243-5.611c-.927-7.964-6.142-13.694-14.02-13.808-6.857-.1-12.519 4.185-13.676 12.117a20.4 20.4 0 0 0 .238 7.118z" transform="translate(-1756.729 -576.602)"/>
                </g>
                <g id="Group_386" class="cls-11" transform="translate(111.488 24.737)">
                    <path id="Path_4930" d="M1883.614 595.2c0-.293-.033-.593-.038-.9-.14-10.05-6.883-17.013-14.9-17.128a13.3 13.3 0 0 0-13.479 13.1 41.9 41.9 0 0 0 .124 6.2l19.311.13z" transform="translate(-1855.146 -577.162)"/>
                </g>
                <path id="Path_4931" d="M1856.915 590.283a11.577 11.577 0 1 0 11.743-11.409 11.577 11.577 0 0 0-11.743 11.409z" class="cls-8" transform="translate(-1743.659 -552.425)"/>
                <path id="Path_4932" d="M1856.915 590.257v.028a11.578 11.578 0 1 0 23.154.334v-.028z" class="cls-8" transform="translate(-1743.659 -552.427)"/>
                <path id="Path_4933" d="M1860.363 590.335a8.021 8.021 0 1 0 0-.012z" class="cls-9" transform="translate(-1743.66 -552.425)"/>
                <path id="Path_4934" d="M1868.6 582.322a8.133 8.133 0 0 0-8.246 8.017v.006l16.257.233a8.13 8.13 0 0 0-8-8.256z" class="cls-10" transform="translate(-1743.659 -552.425)"/>
                <path id="Path_4935" d="M1863.542 590.38a4.952 4.952 0 1 0 5.023-4.879 4.952 4.952 0 0 0-5.023 4.879z" class="cls-8" transform="translate(-1743.66 -552.426)"/>
                <circle id="Ellipse_288" cx="11.58" cy="11.58" r="11.58" class="cls-8" transform="translate(15.618 26.749)"/>
                <path id="Path_4936" d="M1759.27 590.554v.031a11.578 11.578 0 1 0 23.154.334v-.031z" class="cls-8" transform="translate(-1743.638 -552.427)"/>
                <path id="Path_4937" d="M1762.726 590.633a8.13 8.13 0 1 0 8.246-8.011 8.13 8.13 0 0 0-8.246 8.011z" class="cls-9" transform="translate(-1743.639 -552.426)"/>
                <path id="Path_4938" d="M1770.961 582.622a8.13 8.13 0 0 0-8.235 8.011l16.257.235a8.13 8.13 0 0 0-8.012-8.245z" class="cls-10" transform="translate(-1743.639 -552.426)"/>
                <path id="Path_4939" d="M1765.894 590.68a4.952 4.952 0 1 0 5.031-4.871h-.007a4.952 4.952 0 0 0-5.024 4.871z" class="cls-8" transform="translate(-1743.64 -552.426)"/>
                <g id="Group_387" opacity="0.4" transform="translate(1.942 33.3)">
                    <path id="Path_4940" d="M1748.443 588.1c-.019 1.294-.676 2.329-1.466 2.329s-1.418-1.075-1.4-2.371.675-2.33 1.468-2.33 1.416 1.072 1.398 2.372z" transform="translate(-1745.578 -585.726)"/>
                </g>
                <path id="Path_4941" d="M1899.884 576.728a1.039 1.039 0 0 1-.222.018l-.642.023c-.557.013-1.362.031-2.354.073s-2.176.093-3.486.2a29.709 29.709 0 0 0-4.216.621 10.754 10.754 0 0 0-2.07.717 8.77 8.77 0 0 0-1.706 1.121 28.293 28.293 0 0 0-2.528 2.4 10.439 10.439 0 0 1-1.812 1.509 4.7 4.7 0 0 1-.567.306.979.979 0 0 1-.207.085c0-.015.277-.139.738-.445a11.2 11.2 0 0 0 1.768-1.538 25.676 25.676 0 0 1 2.515-2.436 8.708 8.708 0 0 1 1.732-1.147 10.644 10.644 0 0 1 2.1-.732 28.812 28.812 0 0 1 4.244-.614c1.315-.095 2.5-.145 3.494-.165s1.812-.024 2.358-.018h.642a1.183 1.183 0 0 1 .219.022z" class="cls-8" transform="translate(-1743.664 -552.424)"/>
                <g id="Group_388" class="cls-13" transform="translate(108.247 22.06)">
                    <path id="Path_4942" d="M1883.252 595.4a1.6 1.6 0 0 1 .14-.091 4.366 4.366 0 0 0 .391-.29 3.967 3.967 0 0 0 1.069-1.506 6.112 6.112 0 0 0 .375-2.9 21.2 21.2 0 0 0-2.64-8.205 16.684 16.684 0 0 0-3.445-4.2 14.193 14.193 0 0 0-5.2-2.924 16.244 16.244 0 0 0-6.4-.547 21.755 21.755 0 0 0-6.24 1.623 13.539 13.539 0 0 0-7.764 7.985 22.615 22.615 0 0 0-1.207 4.591c-.114.72-.2 1.408-.259 2.071a13.1 13.1 0 0 0-.077 1.846 3.919 3.919 0 0 0 1 2.694 2.593 2.593 0 0 0 1.632.808 2.824 2.824 0 0 0 .648-.06l-.161.047a2.062 2.062 0 0 1-.489.046 2.609 2.609 0 0 1-1.675-.795 3.916 3.916 0 0 1-1.036-2.735 13.283 13.283 0 0 1 .065-1.861q.082-.982.246-2.071a22.583 22.583 0 0 1 1.2-4.623 16.719 16.719 0 0 1 1.149-2.4 13.415 13.415 0 0 1 1.688-2.27 14.443 14.443 0 0 1 4.99-3.4 21.746 21.746 0 0 1 6.288-1.639 16.3 16.3 0 0 1 6.47.554 14.318 14.318 0 0 1 5.26 2.966 16.789 16.789 0 0 1 3.463 4.239 20.946 20.946 0 0 1 2.6 8.267 6.16 6.16 0 0 1-.422 2.919 3.947 3.947 0 0 1-1.108 1.509 2.541 2.541 0 0 1-.551.352z" class="cls-1" transform="translate(-1851.905 -574.484)"/>
                </g>
                <path id="Path_4943" d="M1757.175 588.721a4.914 4.914 0 0 1-.375-.443 8.531 8.531 0 0 0-1.124-1.093 10.961 10.961 0 0 0-4.659-2.13 21.388 21.388 0 0 0-5.176-.331c-.665.023-1.2.056-1.577.075a3.727 3.727 0 0 1-.58.015.536.536 0 0 1 .148-.028l.427-.052c.37-.039.909-.088 1.577-.127a19.979 19.979 0 0 1 5.207.285 10.624 10.624 0 0 1 4.708 2.211 7.333 7.333 0 0 1 1.1 1.144 3.854 3.854 0 0 1 .259.352.681.681 0 0 1 .065.122z" class="cls-8" transform="translate(-1743.635 -552.426)"/>
                <path id="Path_4944" d="M1757.1 580.114c0 .047-2.764.044-6.174 0s-6.17-.127-6.17-.174 2.764-.041 6.173 0 6.176.114 6.171.174z" class="cls-8" transform="translate(-1743.635 -552.425)"/>
                <g id="Group_389" class="cls-13" transform="translate(10.069 20.542)">
                    <path id="Path_4945" d="M1788.435 594.826a1.311 1.311 0 0 1 0-.158v-.463a6.938 6.938 0 0 0-.031-.756c-.031-.3-.036-.642-.075-1.036a26.479 26.479 0 0 0-1.4-6.393 27.855 27.855 0 0 0-1.841-4.141 21.861 21.861 0 0 0-2.948-4.252 12.677 12.677 0 0 0-4.633-3.277 16.417 16.417 0 0 0-5.994-1.227 19.348 19.348 0 0 0-3.106.223 19.7 19.7 0 0 0-2.937.738 18.147 18.147 0 0 0-2.678 1.172l-.316.169-.3.184-.609.362-.572.4-.285.2-.259.215a16.268 16.268 0 0 0-3.54 3.757 17.929 17.929 0 0 0-2.05 4.02 18.673 18.673 0 0 0-.9 3.623c-.059.546-.126 1.054-.137 1.525s-.023.9-.021 1.294.042.73.055 1.036.054.549.08.75.042.35.057.461a.378.378 0 0 1 0 .158.611.611 0 0 0-.031-.155c-.031-.1-.041-.259-.073-.458s-.077-.453-.095-.751-.073-.642-.07-1.036-.026-.823 0-1.294.07-.986.127-1.535a18.212 18.212 0 0 1 .88-3.644 17.83 17.83 0 0 1 2.045-4.058 16.415 16.415 0 0 1 3.561-3.8l.272-.215.287-.2.578-.4.608-.37.3-.187.319-.168a17.823 17.823 0 0 1 2.7-1.188 19.68 19.68 0 0 1 2.966-.748 19.3 19.3 0 0 1 3.14-.226 16.539 16.539 0 0 1 6.046 1.248 12.865 12.865 0 0 1 4.692 3.31 22.119 22.119 0 0 1 2.944 4.307 27.584 27.584 0 0 1 1.828 4.159 25.879 25.879 0 0 1 1.361 6.427 19.169 19.169 0 0 1 .055 2.398z" class="cls-1" transform="translate(-1753.706 -572.965)"/>
                </g>
                <path id="Path_4946" d="M1878.994 566.707a.691.691 0 0 1 0 .168c-.015.129-.036.287-.062.482-.057.416-.142 1.02-.2 1.768a9.682 9.682 0 0 0 .119 2.616 5.5 5.5 0 0 0 1.457 2.792 7.823 7.823 0 0 0 2.66 1.748 14.065 14.065 0 0 0 2.51.724c.738.148 1.341.239 1.756.306l.478.08a.783.783 0 0 1 .166.039.547.547 0 0 1-.171 0l-.481-.049c-.42-.049-1.036-.122-1.768-.259a13.232 13.232 0 0 1-2.561-.707 7.8 7.8 0 0 1-2.725-1.773 5.623 5.623 0 0 1-1.475-2.873 9.544 9.544 0 0 1-.088-2.652 17.471 17.471 0 0 1 .259-1.771c.039-.207.072-.367.095-.476a.684.684 0 0 1 .031-.163z" class="cls-8" transform="translate(-1743.663 -552.422)"/>
                <path id="Path_4947" d="M1820.159 573.044a.488.488 0 0 1 .142-.013 2.025 2.025 0 0 1 .412.021.793.793 0 0 1 .562.342.86.86 0 0 1 .067.864 1.293 1.293 0 0 1-.836.65 3.748 3.748 0 0 1-1.2.06l-2.722-.156a2.159 2.159 0 0 1-.73-.137.9.9 0 0 1-.518-.518.793.793 0 0 1 .137-.707 1.124 1.124 0 0 1 .549-.4 3.814 3.814 0 0 1 1.2-.121c.372 0 .722 0 1.035.025l1.5.065a3.753 3.753 0 0 1 .551.029.486.486 0 0 1-.142.018c-.093 0-.23.013-.409.015h-2.537a3.732 3.732 0 0 0-1.152.13.935.935 0 0 0-.471.347.629.629 0 0 0-.112.564.751.751 0 0 0 .435.425 2.054 2.054 0 0 0 .676.121l2.72.168a3.741 3.741 0 0 0 1.162-.038 1.182 1.182 0 0 0 .777-.57.762.762 0 0 0-.042-.761.739.739 0 0 0-.5-.342c-.355-.073-.557-.063-.554-.081z" class="cls-8" transform="translate(-1743.65 -552.424)"/>
                <path id="Path_4948" d="M1856.782 572.741a.483.483 0 0 1 .142 0 2.027 2.027 0 0 1 .412.021.8.8 0 0 1 .562.342.861.861 0 0 1 .067.864 1.293 1.293 0 0 1-.836.65 3.717 3.717 0 0 1-1.209.06l-2.723-.156a2.251 2.251 0 0 1-.73-.134.911.911 0 0 1-.517-.518.774.774 0 0 1 .134-.707 1.129 1.129 0 0 1 .549-.4 3.911 3.911 0 0 1 1.2-.122c.373 0 .722.013 1.035.026l1.5.065a5.041 5.041 0 0 1 .549.028.438.438 0 0 1-.143.018c-.093 0-.23.013-.409.019h-2.536a3.732 3.732 0 0 0-1.152.129.934.934 0 0 0-.471.349.624.624 0 0 0-.111.562.746.746 0 0 0 .435.425 2.1 2.1 0 0 0 .675.124l2.721.166a3.666 3.666 0 0 0 1.163-.039 1.186 1.186 0 0 0 .776-.567.778.778 0 0 0-.041-.764.733.733 0 0 0-.5-.328c-.343-.105-.545-.095-.542-.113z" class="cls-8" transform="translate(-1743.658 -552.424)"/>
                <path id="Path_4949" d="M1862.287 567.287a.471.471 0 0 1-.036.145c-.036.095-.065.243-.117.432l-.463 1.672c-.412 1.468-1.012 3.624-1.778 6.342v.015h-.016a14.248 14.248 0 0 0-3.561 2.377 14.966 14.966 0 0 0-1.66 1.765 17.365 17.365 0 0 0-1.449 2.152 21.22 21.22 0 0 0-2.071 5.264 25.361 25.361 0 0 0-.8 6.191v.062h-26.026l-33.491-.012h-.049v-.047c-.862-6.854-1.38-12.5-1.709-16.443-.16-1.968-.259-3.505-.342-4.55l-.077-1.194c-.018-.272-.029-.4-.029-.4s.016.138.036.407.055.67.094 1.191l.372 4.547c.34 3.931.886 9.576 1.737 16.446l-.051-.047h59.457l-.06.062a25.559 25.559 0 0 1 .813-6.212 21.394 21.394 0 0 1 2.1-5.287 17.278 17.278 0 0 1 1.463-2.162 14.886 14.886 0 0 1 1.672-1.771 14.338 14.338 0 0 1 3.59-2.375l-.021.023 1.812-6.331c.21-.727.37-1.294.481-1.67.055-.186.1-.328.127-.427s.052-.165.052-.165z" class="cls-8" transform="translate(-1743.645 -552.422)"/>
                <path id="Path_4950" d="M1824.97 568.6a.34.34 0 0 1 0 .065c0 .049-.013.111-.021.189-.021.176-.052.419-.091.725s-.09.7-.137 1.149-.111.958-.158 1.525-.106 1.183-.145 1.848-.077 1.38-.114 2.128c-.049 1.5-.062 3.15 0 4.879s.187 3.377.34 4.868c.082.746.157 1.455.258 2.115s.182 1.277.272 1.839.184 1.063.259 1.509.15.826.215 1.136.1.544.137.717l.034.189a.241.241 0 0 1 0 .065.17.17 0 0 1-.021-.062c-.014-.048-.029-.111-.047-.187-.038-.173-.093-.411-.163-.711s-.155-.689-.238-1.134-.191-.945-.279-1.507-.2-1.175-.288-1.838-.181-1.369-.259-2.118c-.157-1.493-.287-3.141-.349-4.876s-.036-3.385.018-4.889c.039-.751.07-1.463.127-2.13s.1-1.295.163-1.851.122-1.075.176-1.523.111-.833.161-1.146l.116-.723.034-.189a.22.22 0 0 1 0-.062z" class="cls-8" transform="translate(-1743.652 -552.423)"/>
                <path id="Path_4951" d="M1788.925 567.861a4 4 0 0 1-3.08.567 3.274 3.274 0 0 1-2.329-1.576l2.278-.1z" class="cls-8" transform="translate(-1743.644 -552.422)"/>
                <path id="Path_4952" d="M1785.789 566.749s2.3 1.4 2.966 1.209 11.388-8.66 17.845-11.929a7.647 7.647 0 0 0-1.965-.445s-3.007 1.522-6.76 3.779c-2.846 1.718-5.759 3.519-7.118 4.348z" class="cls-14" transform="translate(-1743.644 -552.42)"/>
                <path id="Path_4953" d="M1793.131 568.547l-.075.047-.225.132-.881.5-3.317 1.861c-2.07-.075-4.75-.129-7.811 0-1.53.067-3.156.176-4.848.349s-3.455.415-5.259.7c-3.16.492-6.14 1.116-8.867 1.615a60.508 60.508 0 0 1-7.312.878c-2.094.119-3.794.088-4.964.054-.587-.018-1.035-.041-1.349-.059l-.352-.024a.775.775 0 0 1-.119 0h.471c.309 0 .777.026 1.349.037 1.173.018 2.869.033 4.959-.1a61.693 61.693 0 0 0 7.271-.9c2.722-.518 5.707-1.134 8.87-1.628q2.717-.432 5.267-.7c1.7-.181 3.325-.277 4.858-.337 3.065-.119 5.738-.049 7.819.039h-.024l3.339-1.812.89-.482.231-.121a.371.371 0 0 1 .079-.049z" class="cls-8" transform="translate(-1743.636 -552.423)"/>
                <path id="Path_4954" d="M1795.581 568.811c16.275-.727 49.1-1.333 65.378-2.071a2.744 2.744 0 0 0-1-2.906 35.114 35.114 0 0 0-7.883-4.467 60.6 60.6 0 0 0-15.032-3.512c-2.9-.236-8.2-.451-8.2-.451s-9.709.389-12.423.632a28.039 28.039 0 0 0-9.835 2.676c-3.378 1.693-9.282 6.644-9.282 6.644l-4.141 3.463z" class="cls-14" transform="translate(-1743.645 -552.42)"/>
                <path id="Path_4955" d="M1825.538 554.936l-3.142 13.43 5.7-.181 1.131-13.249z" class="cls-8" transform="translate(-1743.651 -552.42)"/>
                <path id="Path_4956" d="M1850.166 558.187l-.551 9.1h.789l.536-8.813z" class="cls-8" transform="translate(-1743.657 -552.42)"/>
                <path id="Path_4957" d="M1796.2 565.733c.259.334 1.7 3.585 1.7 3.585l-5.5-.36z" class="cls-8" transform="translate(-1743.645 -552.422)"/>
                <path id="Path_4958" d="M1801.354 568.994l-4.2.117c-.551 0-.986-.989-.968-2.193.015-1.077.388-1.986.88-2.143l3.978-1.261z" class="cls-7" transform="translate(-1743.646 -552.422)"/>
                <path id="Path_4959" d="M1827.323 554.783c.036 0-.409 3.064-.992 6.836s-1.089 6.823-1.126 6.815.407-3.064.992-6.836 1.087-6.823 1.126-6.815z" class="cls-14" transform="translate(-1743.652 -552.42)"/>
                <path id="Path_4960" d="M1796.361 565.534a4.9 4.9 0 0 1-.642 1.382 4.821 4.821 0 0 1-.934 1.2c-.031-.026.388-.559.82-1.273s.72-1.324.756-1.309z" class="cls-14" transform="translate(-1743.646 -552.422)"/>
                <path id="Path_4961" d="M1819.594 557.38a.516.516 0 0 1-.062.108l-.194.3c-.184.28-.432.652-.732 1.1-.624.929-1.481 2.213-2.416 3.641s-1.764 2.728-2.365 3.67l-.717 1.113c-.078.122-.145.22-.2.3a.571.571 0 0 1-.075.1.741.741 0 0 1 .051-.114l.179-.314c.158-.271.388-.66.678-1.136.583-.958 1.4-2.268 2.33-3.7s1.812-2.7 2.446-3.623c.321-.456.585-.826.776-1.077.088-.114.158-.21.218-.29s.078-.081.083-.078z" class="cls-15" transform="translate(-1743.65 -552.42)"/>
                <path id="Path_4962" d="M1817.205 559.4a19.99 19.99 0 0 1-1.281 1.91 18.928 18.928 0 0 1-1.391 1.833 19.787 19.787 0 0 1 1.282-1.91 19.283 19.283 0 0 1 1.39-1.833z" class="cls-15" transform="translate(-1743.65 -552.421)"/>
                <path id="Path_4963" fill="#f5f5f5" d="M1899.838 576.01a6.079 6.079 0 0 1-2.371-.352 3.127 3.127 0 0 1-1.667-4.1c.014-.034.029-.068.045-.1l.015-.031a2.929 2.929 0 0 1 2.565-1.657h.564a3.613 3.613 0 0 1 .368 1.347c.152 1.23.383 3.112.481 4.893z" transform="translate(-1743.667 -552.423)"/>
                <path id="Path_4964" d="M1840.04 557.814c.031.021-1.211 2.033-2.774 4.493s-2.847 4.439-2.888 4.419 1.209-2.03 2.774-4.491 2.857-4.441 2.888-4.421z" class="cls-15" transform="translate(-1743.654 -552.42)"/>
                <path id="Path_4965" d="M1839.612 560.354a25.942 25.942 0 0 1-1.963 3.041 12.321 12.321 0 0 1 .93-1.553 12.084 12.084 0 0 1 1.033-1.488z" class="cls-15" transform="translate(-1743.655 -552.421)"/>
                <path id="Path_4966" d="M1800.394 564.294a10.713 10.713 0 0 1-3.238.945c0-.039.725-.212 1.615-.474s1.61-.507 1.623-.471z" class="cls-15" transform="translate(-1743.646 -552.422)"/>
                <path id="Path_4967" d="M1822.924 569.982c0 .038-6.831.067-15.253.067s-15.255-.029-15.255-.067 6.828-.068 15.255-.068 15.253.031 15.253.068z" class="cls-15" transform="translate(-1743.645 -552.423)"/>
                <path id="Path_4968" d="M1820.687 572.7a36.706 36.706 0 0 1-4.434 0 36.179 36.179 0 0 1 4.434 0z" class="cls-15" transform="translate(-1743.65 -552.424)"/>
                <path id="Path_4969" d="M1771.079 575.77a.976.976 0 0 1-.171 0h-.484a14.525 14.525 0 0 0-1.77.109 13.616 13.616 0 0 0-9.683 5.911 14.507 14.507 0 0 0-.906 1.525c-.1.187-.166.334-.218.433a.678.678 0 0 1-.082.147 1.022 1.022 0 0 1 .059-.158c.044-.1.1-.259.194-.445a12.429 12.429 0 0 1 .873-1.553 13.315 13.315 0 0 1 9.752-5.953 12.069 12.069 0 0 1 1.784-.068c.21 0 .373.024.484.031a.678.678 0 0 1 .168.021z" class="cls-15" transform="translate(-1743.638 -552.424)"/>
                <path id="Path_4970" d="M1849.108 569.264c0 .037-4.521.068-10.094.068s-10.094-.031-10.094-.068 4.519-.067 10.094-.067 10.094.029 10.094.067z" class="cls-15" transform="translate(-1743.653 -552.423)"/>
                <path id="Path_4971" d="M1857.97 572.3a4.235 4.235 0 0 1-.73 0c-.45 0-1.072-.023-1.758-.028s-1.307 0-1.757 0a4.145 4.145 0 0 1-.73-.013 3.773 3.773 0 0 1 .727-.083c.45-.028 1.072-.052 1.76-.049s1.313.034 1.763.07a3.536 3.536 0 0 1 .725.103z" class="cls-15" transform="translate(-1743.658 -552.423)"/>
            </g>
        </g>
    </g>
</svg>
