<svg xmlns="http://www.w3.org/2000/svg" width="200" height="160" viewBox="0 0 200 160">
    <defs>
        <style>
            .cls-1{fill:#fff}.cls-13{fill:#fe0060}.cls-15{opacity:.1}.cls-3{fill:#8dc4a7}.cls-4{fill:#217566}.cls-5{fill:none;stroke:#217566;stroke-linecap:round;stroke-miterlimit:10;stroke-width:3px}.cls-6{fill:#2e353a}.cls-7{fill:#93278f}.cls-8{opacity:.2}.cls-15,.cls-8{isolation:isolate}.cls-9{fill:#540d54}.cls-12{fill:#263238}
        </style>
    </defs>
    <g id="ilustration_IPVA" transform="translate(-57 -1996.468)">
        <path id="Rectangle_429" d="M0 0H200V160H0z" class="cls-1" transform="translate(57 1996.468)"/>
        <g id="Group_768" transform="translate(67.698 2014.339)">
            <path id="Path_4836" fill="#fe0060" d="M1548.733 593.844c-112 37.946-5.591-155.024 41.1-99.86 33.176 39.194 109.813 51.773 80.713 82.3-46.039 48.3-35.848 2.506-85.571 20.718-11.255 4.126-23.975-7.315-36.242-3.158z" opacity="0.1" transform="translate(-1499.193 -475.826)"/>
            <g id="Group_370" transform="translate(52.953)">
                <rect id="Rectangle_430" width="76.792" height="103.534" class="cls-3" rx="3.787"/>
                <path id="Rectangle_431" d="M3.45 0a.9.9 0 0 1 .9.9v101.73a.9.9 0 0 1-.9.9A3.45 3.45 0 0 1 0 100.084V3.45A3.45 3.45 0 0 1 3.45 0z" class="cls-4"/>
                <path id="Rectangle_432" d="M3.1 0h70.593a3.1 3.1 0 0 1 3.1 3.1v17.87H0V3.1A3.1 3.1 0 0 1 3.1 0z" class="cls-4"/>
                <g id="Group_361" transform="translate(8.3 6.987)">
                    <g id="Group_360">
                        <path id="Path_4837" d="M1560.384 489.81v-7h1.412v7z" class="cls-3" transform="translate(-1560.384 -482.814)"/>
                        <path id="Path_4838" d="M1563.14 489.81v-7h2.267a8.22 8.22 0 0 1 1.68.105 1.833 1.833 0 0 1 1.007.685 2.174 2.174 0 0 1 .405 1.362 2.286 2.286 0 0 1-.233 1.083 1.921 1.921 0 0 1-.594.69 2.066 2.066 0 0 1-.733.332 8.136 8.136 0 0 1-1.466.1h-.921v2.639zm1.412-5.813v1.985h.774a3.656 3.656 0 0 0 1.116-.109.927.927 0 0 0 .442-.343.939.939 0 0 0 .16-.545.906.906 0 0 0-.224-.63.972.972 0 0 0-.568-.31 6.754 6.754 0 0 0-1.017-.048z" class="cls-3" transform="translate(-1560.381 -482.814)"/>
                        <path id="Path_4839" d="M1571.438 489.81l-2.5-7h1.532l1.771 5.178 1.713-5.178h1.5l-2.507 7z" class="cls-3" transform="translate(-1560.375 -482.814)"/>
                        <path id="Path_4840" d="M1581.751 489.81h-1.536l-.612-1.589h-2.8l-.578 1.589h-1.5l2.726-7h1.493zm-2.6-2.768l-.964-2.6-.945 2.6z" class="cls-3" transform="translate(-1560.369 -482.814)"/>
                    </g>
                </g>
                <path id="Line_150" d="M29.329 0L0 0" class="cls-5" transform="translate(12.471 31.604)"/>
                <path id="Line_151" d="M21.775 0L0 0" class="cls-5" transform="translate(44.007 52.264)"/>
                <path id="Line_152" d="M47.971 0L0 0" class="cls-5" transform="translate(12.471 39.161)"/>
                <path id="Line_153" d="M54.056 0L0 0" class="cls-5" transform="translate(12.471 63.426)"/>
                <path id="Line_154" d="M54.056 0L0 0" class="cls-5" transform="translate(12.471 70.983)"/>
                <path id="Line_155" d="M52.786 0L0 0" class="cls-5" transform="translate(13.618 90.126)"/>
                <g id="Group_362" transform="translate(12.094 49.117)">
                    <path id="Path_4841" d="M1566.129 531.2l-1.36-1.053q.649-.73 1.352-1.4.279-.27.351-.342-.225-.036-1.288-.3-.766-.188-1.009-.278l.531-1.586a13.79 13.79 0 0 1 2.108 1.054 17.131 17.131 0 0 1-.216-2.4h1.6a21.249 21.249 0 0 1-.243 2.413q.18-.072.775-.351.811-.369 1.494-.631l.478 1.631q-1 .224-2.314.44l1.081 1.216q.324.369.514.6l-1.378.909-1.216-2.008q-.548.986-1.26 2.086z" class="cls-4" transform="translate(-1564.174 -524.901)"/>
                    <path id="Path_4842" d="M1573.3 531.2l-1.359-1.053q.649-.73 1.35-1.4.28-.27.351-.342-.225-.036-1.287-.3-.766-.188-1.009-.278l.531-1.586a13.776 13.776 0 0 1 2.107 1.054 17.159 17.159 0 0 1-.216-2.4h1.6a21.172 21.172 0 0 1-.243 2.413q.18-.072.775-.351.809-.369 1.495-.631l.478 1.631q-1 .224-2.315.44l1.08 1.216q.324.369.514.6l-1.377.909-1.216-2.008q-.549.986-1.259 2.086z" class="cls-4" transform="translate(-1564.167 -524.901)"/>
                    <path id="Path_4843" d="M1580.47 531.2l-1.36-1.053q.649-.73 1.351-1.4.279-.27.351-.342-.225-.036-1.288-.3-.764-.188-1.008-.278l.531-1.586a13.783 13.783 0 0 1 2.108 1.054 17.146 17.146 0 0 1-.216-2.4h1.6a21.17 21.17 0 0 1-.243 2.413q.18-.072.775-.351.811-.369 1.5-.631l.476 1.631q-1 .224-2.314.44l1.081 1.216q.324.369.513.6l-1.378.909-1.215-2.008q-.552.986-1.264 2.086z" class="cls-4" transform="translate(-1564.159 -524.901)"/>
                    <path id="Path_4844" d="M1587.641 531.2l-1.36-1.053q.649-.73 1.351-1.4.279-.27.351-.342-.225-.036-1.288-.3-.766-.188-1.009-.278l.531-1.586a13.731 13.731 0 0 1 2.107 1.054 17.128 17.128 0 0 1-.216-2.4h1.6a21.211 21.211 0 0 1-.243 2.413q.18-.072.775-.351.811-.369 1.495-.631l.477 1.631q-1 .224-2.314.44l1.081 1.216q.323.369.512.6l-1.377.909-1.217-2.008q-.545.986-1.256 2.086z" class="cls-4" transform="translate(-1564.152 -524.901)"/>
                </g>
                <g id="Group_367" transform="translate(11.947 77.063)">
                    <g id="Group_364">
                        <g id="Group_363">
                            <path id="Path_4845" d="M1565.983 559.114l-1.36-1.053q.649-.73 1.352-1.4.279-.27.351-.342-.225-.036-1.288-.3-.766-.189-1.009-.279l.532-1.585a13.805 13.805 0 0 1 2.108 1.054 17.146 17.146 0 0 1-.216-2.4h1.6a21.161 21.161 0 0 1-.243 2.414q.18-.072.775-.351.811-.369 1.494-.631l.478 1.63q-1 .225-2.314.441l1.081 1.216q.324.369.513.6l-1.377.909-1.216-2.008q-.55.987-1.261 2.085z" class="cls-4" transform="translate(-1564.028 -552.819)"/>
                            <path id="Path_4846" d="M1573.153 559.114l-1.359-1.053q.649-.73 1.35-1.4.279-.27.351-.342-.225-.036-1.287-.3-.766-.189-1.009-.279l.531-1.585a13.785 13.785 0 0 1 2.107 1.054 17.178 17.178 0 0 1-.216-2.4h1.6a21.171 21.171 0 0 1-.243 2.414q.18-.072.774-.351.811-.369 1.5-.631l.478 1.63q-1 .225-2.314.441l1.08 1.216q.324.369.513.6l-1.377.909-1.216-2.008q-.551.987-1.263 2.085z" class="cls-4" transform="translate(-1564.021 -552.819)"/>
                            <path id="Path_4847" d="M1580.324 559.114l-1.36-1.053q.649-.73 1.351-1.4.279-.27.351-.342-.225-.036-1.288-.3c-.511-.126-.846-.219-1.008-.279l.531-1.585a13.816 13.816 0 0 1 2.108 1.054 17.127 17.127 0 0 1-.216-2.4h1.6a21.122 21.122 0 0 1-.243 2.414q.18-.072.775-.351.811-.369 1.5-.631l.477 1.63q-1 .225-2.314.441l1.081 1.216q.324.369.513.6l-1.378.909-1.215-2.008q-.554.987-1.265 2.085z" class="cls-4" transform="translate(-1564.013 -552.819)"/>
                            <path id="Path_4848" d="M1587.495 559.114l-1.36-1.053q.649-.73 1.351-1.4l.35-.342q-.225-.036-1.287-.3-.766-.189-1.009-.279l.531-1.585a13.744 13.744 0 0 1 2.107 1.054 17.127 17.127 0 0 1-.216-2.4h1.6a21.181 21.181 0 0 1-.243 2.414q.18-.072.775-.351.811-.369 1.495-.631l.477 1.63q-1 .225-2.314.441l1.08 1.216q.324.369.514.6l-1.377.909-1.217-2.008q-.546.987-1.257 2.085z" class="cls-4" transform="translate(-1564.006 -552.819)"/>
                        </g>
                    </g>
                    <g id="Group_366" transform="translate(28.591)">
                        <g id="Group_365">
                            <path id="Path_4849" d="M1594.545 559.114l-1.36-1.053q.649-.73 1.351-1.4.279-.27.35-.342-.224-.036-1.287-.3-.766-.189-1.009-.279l.532-1.585a13.741 13.741 0 0 1 2.107 1.054 17.162 17.162 0 0 1-.216-2.4h1.6a21.142 21.142 0 0 1-.243 2.414q.18-.072.775-.351.811-.369 1.495-.631l.478 1.63q-1 .225-2.314.441l1.08 1.216q.324.369.514.6l-1.377.909-1.216-2.008q-.549.987-1.26 2.085z" class="cls-4" transform="translate(-1592.59 -552.819)"/>
                            <path id="Path_4850" d="M1601.715 559.114l-1.359-1.053q.649-.73 1.35-1.4.279-.27.351-.342-.225-.036-1.287-.3-.766-.189-1.009-.279l.532-1.585a13.838 13.838 0 0 1 2.107 1.054 17.146 17.146 0 0 1-.216-2.4h1.6a21.171 21.171 0 0 1-.243 2.414c.12-.048.377-.165.774-.351q.811-.369 1.5-.631l.478 1.63q-1 .225-2.315.441l1.081 1.216q.324.369.513.6l-1.378.909-1.215-2.008q-.552.987-1.264 2.085z" class="cls-4" transform="translate(-1592.583 -552.819)"/>
                            <path id="Path_4851" d="M1608.886 559.114l-1.36-1.053q.649-.73 1.351-1.4.279-.27.351-.342-.225-.036-1.288-.3-.766-.189-1.009-.279l.532-1.585a13.8 13.8 0 0 1 2.108 1.054 17.14 17.14 0 0 1-.216-2.4h1.6a21.151 21.151 0 0 1-.243 2.414q.18-.072.775-.351.811-.369 1.495-.631l.478 1.63q-1 .225-2.314.441l1.081 1.216q.324.369.513.6l-1.378.909-1.216-2.008q-.546.987-1.26 2.085z" class="cls-4" transform="translate(-1592.575 -552.819)"/>
                            <path id="Path_4852" d="M1616.056 559.114l-1.359-1.053q.649-.73 1.35-1.4.279-.27.351-.342-.225-.036-1.287-.3-.766-.189-1.009-.279l.532-1.585a13.793 13.793 0 0 1 2.107 1.054 17.127 17.127 0 0 1-.216-2.4h1.6a21.151 21.151 0 0 1-.243 2.414q.18-.072.775-.351.809-.369 1.495-.631l.478 1.63q-1 .225-2.314.441l1.08 1.216q.324.369.514.6l-1.377.909-1.216-2.008q-.55.987-1.261 2.085z" class="cls-4" transform="translate(-1592.568 -552.819)"/>
                        </g>
                    </g>
                </g>
                <g id="Group_369" transform="translate(34.436 7.625)">
                    <g id="Group_368">
                        <path id="Path_4853" d="M1588.241 489.08l-1.216-.942q.58-.653 1.208-1.248l.314-.306q-.2-.033-1.152-.266-.685-.168-.9-.249l.475-1.417a12.277 12.277 0 0 1 1.884.942 15.437 15.437 0 0 1-.193-2.141h1.433a18.9 18.9 0 0 1-.217 2.158q.161-.065.693-.314.725-.33 1.337-.564l.427 1.457q-.895.2-2.07.394l.967 1.087c.193.22.345.4.458.54l-1.232.813-1.087-1.8q-.492.876-1.129 1.856z" class="cls-3" transform="translate(-1586.494 -483.451)"/>
                        <path id="Path_4854" d="M1594.654 489.08l-1.216-.942q.58-.653 1.207-1.248c.167-.161.271-.263.314-.306q-.2-.033-1.151-.266-.684-.168-.9-.249l.475-1.417a12.3 12.3 0 0 1 1.885.942 15.268 15.268 0 0 1-.193-2.141h1.433a19.083 19.083 0 0 1-.217 2.158q.161-.065.692-.314.725-.33 1.338-.564l.426 1.457q-.894.2-2.069.394l.966 1.087c.193.22.346.4.459.54l-1.232.813-1.087-1.8q-.494.876-1.13 1.856z" class="cls-3" transform="translate(-1586.487 -483.451)"/>
                        <path id="Path_4855" d="M1601.065 489.08l-1.216-.942q.58-.653 1.208-1.248l.314-.306q-.2-.033-1.152-.266-.683-.168-.9-.249l.475-1.417a12.282 12.282 0 0 1 1.884.942 15.459 15.459 0 0 1-.193-2.141h1.434a18.9 18.9 0 0 1-.217 2.158c.107-.043.338-.148.693-.314q.725-.33 1.336-.564l.427 1.457q-.895.2-2.07.394l.967 1.087c.193.22.346.4.458.54l-1.232.813-1.087-1.8q-.494.876-1.129 1.856z" class="cls-3" transform="translate(-1586.481 -483.451)"/>
                        <path id="Path_4856" d="M1607.477 489.08l-1.216-.942q.58-.653 1.208-1.248.249-.242.313-.306-.2-.033-1.151-.266c-.457-.112-.757-.2-.9-.249l.476-1.417a12.341 12.341 0 0 1 1.884.942 15.274 15.274 0 0 1-.193-2.141h1.433a19.124 19.124 0 0 1-.217 2.158q.16-.065.692-.314.725-.33 1.337-.564l.426 1.457q-.893.2-2.069.394l.966 1.087c.193.22.346.4.459.54l-1.232.813-1.087-1.8q-.493.876-1.129 1.856z" class="cls-3" transform="translate(-1586.474 -483.451)"/>
                        <path id="Path_4857" d="M1613.888 489.08l-1.216-.942q.581-.653 1.208-1.248l.314-.306q-.2-.033-1.152-.266c-.455-.112-.757-.2-.9-.249l.476-1.417a12.3 12.3 0 0 1 1.884.942 15.387 15.387 0 0 1-.193-2.141h1.433a18.888 18.888 0 0 1-.217 2.158c.107-.043.338-.148.693-.314q.725-.33 1.336-.564l.427 1.457q-.895.2-2.07.394l.967 1.087c.193.22.346.4.458.54l-1.232.813-1.087-1.8q-.493.876-1.129 1.856z" class="cls-3" transform="translate(-1586.468 -483.451)"/>
                        <path id="Path_4858" d="M1620.3 489.08l-1.216-.942q.58-.653 1.208-1.248.249-.242.313-.306-.2-.033-1.151-.266-.685-.168-.9-.249l.475-1.417a12.324 12.324 0 0 1 1.884.942 15.256 15.256 0 0 1-.193-2.141h1.434a19.143 19.143 0 0 1-.217 2.158q.161-.065.693-.314.724-.33 1.336-.564l.426 1.457q-.894.2-2.069.394l.966 1.087c.193.22.346.4.459.54l-1.232.813-1.087-1.8q-.493.876-1.129 1.856z" class="cls-3" transform="translate(-1586.461 -483.451)"/>
                    </g>
                </g>
            </g>
            <g id="freepik--Motorcycle--inject-544" transform="translate(6.165 52.794)">
                <path id="Path_4859" d="M1560.7 576.789l-1.562 3.59a3.794 3.794 0 0 1-3.481 2.284h-6.538a3.272 3.272 0 0 1-2.312-.959h-12.21a2.975 2.975 0 0 1-2.415-1.235l-1.614-2.236z" class="cls-6" transform="translate(-1505.327 -528.526)"/>
                <path id="Path_4860" d="M1550.744 562.584c0 1.722-6.86 13.948-7.547 14.434s-9.643-.058-9.643-.058l.668 2.537h24.593l10.22-19.837-6.758-9.751-12.312.341s.779 10.616.779 12.334z" class="cls-7" transform="translate(-1505.324 -528.553)"/>
                <path id="Path_4861" d="M1550.744 562.584c0 1.722-6.86 13.948-7.547 14.434s-9.643-.058-9.643-.058l.668 2.537h24.593l10.22-19.837-6.758-9.751-12.312.341s.779 10.616.779 12.334z" class="cls-8" transform="translate(-1505.324 -528.553)"/>
                <ellipse id="Ellipse_274" cx="10.032" cy="12.102" class="cls-6" rx="10.032" ry="12.102" transform="translate(55.366 36.187)"/>
                <ellipse id="Ellipse_275" cx="6.327" cy="7.633" class="cls-1" rx="6.327" ry="7.633" transform="translate(60.751 40.655)"/>
                <ellipse id="Ellipse_276" cx="2.635" cy="3.178" class="cls-9" rx="2.635" ry="3.178" transform="translate(65.897 45.008)"/>
                <path id="Path_4862" d="M1514.858 558.555s7.624 5.847 11.548 17.868a4.929 4.929 0 0 0 4.688 3.387h10.772l-13.734-22.358-7.243-3.012z" class="cls-7" transform="translate(-1505.343 -528.549)"/>
                <path id="Path_4863" d="M1514.023 557.849a41.6 41.6 0 0 1 12.511 18.656 4.792 4.792 0 0 0 4.532 3.305h10.9l-13.733-22.358-7.244-3.012z" transform="translate(-1505.344 -528.549)" style="isolation:isolate" opacity="0.4"/>
                <path id="Path_4864" d="M1514.795 558.424h5.593a5.319 5.319 0 0 1 2.989.876c3.318 2.21 11.179 8.375 12 18.141a2.587 2.587 0 0 0 2.556 2.382h24.309a23.1 23.1 0 0 0 11.626-3.139l6.95-4.05a4.155 4.155 0 0 0 1.974-4.415c-.828-3.989-3.159-10.833-9.831-13.51-.105-.048.054-.09-.265-.128v-4.141h-17.426s3.494 8.332 3.494 11.769c0 3.242-3.436 15.7-7.882 16.976h-6.068a4.594 4.594 0 0 1-3.923-2.4c-2.957-5.279-9.527-18.969-7.48-31.907a2.646 2.646 0 0 0-2.457-3.066h-7.825s-7.026 8.151-9.307 15.04a1.2 1.2 0 0 0 .973 1.572z" class="cls-7" transform="translate(-1505.344 -528.561)"/>
                <path id="Path_4865" d="M1527.33 539.231h2.235a2.568 2.568 0 0 0 1.613-.569l4.6-3.721a1.022 1.022 0 0 1 .639-.23h8.834a.639.639 0 1 0 0-1.277h-8.828a2.286 2.286 0 0 0-1.444.515l-4.6 3.724a1.274 1.274 0 0 1-.808.284h-2.235a1.3 1.3 0 0 1-1.277-1.105l-.2-1.437a2.315 2.315 0 0 0-2.276-1.977h-1.683a.639.639 0 0 0 0 1.278h1.684a1.031 1.031 0 0 1 1.012.878l.2 1.437a2.578 2.578 0 0 0 2.534 2.2z" class="cls-6" transform="translate(-1505.337 -528.57)"/>
                <path id="Path_4866" d="M1531.273 536.52s-.029 1.508 1.386 1.411l.459 1.635a1.714 1.714 0 0 1-.194 1.377l-1 1.6h-9.262l-.728-1.373a1.163 1.163 0 0 1 .194-1.363l2.76-2.821a1.549 1.549 0 0 1 1.111-.469z" class="cls-9" transform="translate(-1505.336 -528.567)"/>
                <ellipse id="Ellipse_277" cx="10.032" cy="12.102" class="cls-6" rx="10.032" ry="12.102" transform="translate(0 36.187)"/>
                <ellipse id="Ellipse_278" cx="6.327" cy="7.633" class="cls-1" rx="6.327" ry="7.633" transform="translate(5.382 40.655)"/>
                <path id="Path_4867" d="M1505.512 569.025a14.377 14.377 0 0 1 8.965-6.822 9.935 9.935 0 0 1 3.97-.115l.023-.054-.023-.048h.042l.872-1.983h.993a3.723 3.723 0 0 1 2.236.747l1.744 1.31-.821 2.845a8.489 8.489 0 0 1 .664.806A14.428 14.428 0 0 1 1527.1 572a.675.675 0 0 1-.564.769.621.621 0 0 1-.1.007h-.523a.672.672 0 0 1-.639-.427 8.778 8.778 0 0 0-2.169-3.261l-2.91 7.577-2.34-.984.821-9.442s-5.385-1.514-8.911 2.843a2.2 2.2 0 0 1-1.706.821h-2.047a.585.585 0 0 1-.574-.595.593.593 0 0 1 .074-.283z" class="cls-9" transform="translate(-1505.353 -528.543)"/>
                <ellipse id="Ellipse_279" cx="2.635" cy="3.178" class="cls-9" rx="2.635" ry="3.178" transform="translate(10.527 45.008)"/>
                <path id="Path_4868" d="M1527.992 542.889s-1.658 10.438-7.132 10.508c-5.132.071-5.612-9.728-.716-11.232a11.782 11.782 0 0 1 7.848.724z" class="cls-7" transform="translate(-1505.341 -528.561)"/>
                <path id="Path_4869" d="M1527.435 542.889s-1.658 10.438-7.132 10.508c-5.133.071-5.612-9.728-.716-11.232a11.782 11.782 0 0 1 7.848.724z" class="cls-8" transform="translate(-1505.342 -528.561)"/>
                <path id="Path_4870" d="M1516.448 547.689c-.121 2.648 1.476 4.791 3.568 4.791s3.884-2.15 4.006-4.791-1.477-4.791-3.565-4.791-3.887 2.139-4.009 4.791z" class="cls-1" transform="translate(-1505.341 -528.56)"/>
                <path id="Path_4871" d="M1522.276 540.847h4.752l-.377-.613h-4.376z" class="cls-1" transform="translate(-1505.335 -528.563)"/>
                <path id="Path_4872" d="M1548.382 549.993v1.2a1.837 1.837 0 0 0 1.983 1.795h21.6a1.823 1.823 0 0 0 1.97-1.795v-1.2a1.824 1.824 0 0 0-1.97-1.8h-21.6a1.837 1.837 0 0 0-1.983 1.8z" class="cls-6" transform="translate(-1505.309 -528.555)"/>
                <path id="Path_4873" fill="#fff" d="M1555.4 549.993v1.2a1.716 1.716 0 0 0 1.629 1.8 1.623 1.623 0 0 0 .211 0h14.715a1.823 1.823 0 0 0 1.97-1.795v-1.2a1.823 1.823 0 0 0-1.97-1.8h-14.715a1.716 1.716 0 0 0-1.837 1.585 1.845 1.845 0 0 0-.003.21z" transform="translate(-1505.302 -528.555)" style="isolation:isolate" opacity="0.2"/>
                <path id="Path_4874" d="M1558.117 572.107v7.7h4.075a23.094 23.094 0 0 0 11.626-3.139l6.95-4.05a4.154 4.154 0 0 0 1.974-4.414c-.828-3.989-3.194-10.833-9.879-13.51l-.319.016h-2.7a8.187 8.187 0 0 0-7.419 4.72l-2.875 6.164a15.378 15.378 0 0 0-1.433 6.513z" class="cls-8" transform="translate(-1505.299 -528.548)"/>
                <path id="Rectangle_433" d="M0 0H5.695V0.639H0z" class="cls-6" transform="matrix(0.608, -0.794, 0.794, 0.608, 31.322, 5.07)"/>
                <path id="Path_4875" d="M1542.179 528.575h-1.629a.867.867 0 0 0-.8.524l-.217.507a.866.866 0 0 0 .458 1.135.853.853 0 0 0 .337.069h1.773a.863.863 0 0 0 .856-.741l.073-.508a.866.866 0 0 0-.736-.979.962.962 0 0 0-.115-.007z" class="cls-7" transform="translate(-1505.318 -528.575)"/>
                <path id="Rectangle_434" d="M0 0H0.639V4.133H0z" class="cls-6" transform="translate(17.904 1.395) rotate(-11.89)"/>
                <path id="Path_4876" d="M1521.638 528.575h1.753a.714.714 0 0 1 .707.613l.118.809a.715.715 0 0 1-.61.807.656.656 0 0 1-.109.007h-1.751a.712.712 0 0 1-.706-.613l-.118-.809a.714.714 0 0 1 .61-.807.633.633 0 0 1 .106-.007z" class="cls-7" transform="translate(-1505.337 -528.575)"/>
            </g>
            <g id="freepik--Car--inject-218" transform="translate(37.035 67.954)">
                <g id="Group_371" transform="translate(67.839 9.64)">
                    <path id="Path_4877" d="M1621.866 584.447v-31.1h-10.054c-4.335 0-7.851 6.962-7.851 15.55s3.516 15.549 7.851 15.549z" class="cls-12" transform="translate(-1603.961 -553.349)"/>
                    <ellipse id="Ellipse_280" cx="7.851" cy="15.549" class="cls-12" rx="7.851" ry="15.549" transform="translate(10.107 0)"/>
                </g>
                <path id="Path_4878" d="M1564.379 596.92v-31.1h-10.072c-4.349 0-7.847 6.961-7.847 15.549s3.511 15.549 7.847 15.549z" class="cls-12" transform="translate(-1536.181 -543.697)"/>
                <ellipse id="Ellipse_281" cx="7.851" cy="15.549" class="cls-12" rx="7.851" ry="15.549" transform="translate(20.385 22.126)"/>
                <path id="Path_4879" d="M1654.747 560.541l13.867.99 3.844 1.135a6.426 6.426 0 0 1 4.575 5.553l.727 7.612a6.429 6.429 0 0 1-2.125 5.415l-1.321 1.176a6.432 6.432 0 0 0-1.492 1.955 6.415 6.415 0 0 1-4.228 3.394l-5.376 1.324z" class="cls-13" transform="translate(-1536.07 -543.702)"/>
                <path id="Path_4880" d="M1661.571 596.92v-31.1H1651.5c-4.335 0-7.85 6.961-7.85 15.549s3.515 15.549 7.85 15.549z" class="cls-12" transform="translate(-1536.082 -543.697)"/>
                <ellipse id="Ellipse_282" cx="7.851" cy="15.549" class="cls-12" rx="7.851" ry="15.549" transform="translate(117.676 22.126)"/>
                <ellipse id="Ellipse_283" cx="5.508" cy="12.29" class="cls-1" rx="5.508" ry="12.29" transform="translate(120.018 25.385)"/>
                <path id="Path_4881" d="M1582.027 589.113h65.355a1.878 1.878 0 0 0 1.771-1.252c1.734-4.834 2.636-22.015 13.477-22.015l6.093-4.3c-13.957-12.207-12.525-17.829-54.235-17.829-25.735 0-46.018 15.1-46.018 15.1l13.557 30.295" class="cls-13" transform="translate(-1536.158 -543.719)"/>
                <path id="Path_4882" d="M1604.069 596.92v-31.1H1594c-4.335 0-7.847 6.961-7.847 15.549s3.512 15.549 7.847 15.549z" class="cls-12" transform="translate(-1536.14 -543.697)"/>
                <ellipse id="Ellipse_284" cx="7.851" cy="15.549" class="cls-12" rx="7.851" ry="15.549" transform="translate(60.116 22.126)"/>
                <ellipse id="Ellipse_285" cx="5.508" cy="12.29" class="cls-1" rx="5.508" ry="12.29" transform="translate(62.459 25.385)"/>
                <path id="Path_4883" d="M1586.637 589.188c-7.73-.024-28.96-.09-46.5-.09a3.386 3.386 0 0 1-3.561-3.515c.886-9.255 1.644-15.591 7.806-19.764 7.629-5.165 21.092-7.027 24.122-7.027h43.782l-7.757 7.045c-7.159 0-13.13 15.085-14.379 20.759a3.479 3.479 0 0 1-3.513 2.592z" class="cls-13" transform="translate(-1536.19 -543.704)"/>
                <path id="Path_4884" d="M1616.446 545.322a41.92 41.92 0 0 0-12.92 11.733 4.041 4.041 0 0 1-3.352 1.762h-28.541s15.957-13.495 44.813-13.495z" class="cls-12" transform="translate(-1536.155 -543.717)"/>
                <path id="Path_4885" d="M1621.43 545.322c3.149-.013 8.844-.006 11.286.2 25.918.928 27.566 13.286 22.6 13.286h-46.775a1.218 1.218 0 0 1-1.038-1.83 36.169 36.169 0 0 1 9.609-10.245 7.41 7.41 0 0 1 4.318-1.411z" class="cls-12" transform="translate(-1536.119 -543.717)"/>
                <path id="Path_4886" d="M1585.238 582.336a.931.931 0 0 1 .919.943v2.155a.931.931 0 0 1-.931.927h-14.982a.927.927 0 0 1-.927-.927V584.4a.927.927 0 0 1 .858-.927l14.992-1.131c.024-.006.047-.006.071-.006z" class="cls-12" transform="translate(-1536.157 -543.68)"/>
                <path id="Path_4887" d="M1537.461 582.531a.931.931 0 0 0-1.032.817l-.232 1.951a1.081 1.081 0 0 0-.006.114.926.926 0 0 0 .93.924h4.364a.927.927 0 0 0 .927-.927v-1.124a.926.926 0 0 0-.747-.91l-4.118-.831a.813.813 0 0 0-.086-.014z" class="cls-12" transform="translate(-1536.191 -543.68)"/>
                <path id="Path_4888" d="M1586.216 568.391c7.757-.789 7.542-4.5 7.542-4.5l-20.933 1.017a20.41 20.41 0 0 0 13.391 3.483z" class="cls-1" transform="translate(-1536.154 -543.698)"/>
                <path id="Path_4889" d="M1677.323 571.455a1.106 1.106 0 0 1-.169.041c-2.056.342-1.99-5.1-1.99-5.1l1.418.042a6.359 6.359 0 0 1 .432 1.772z" transform="translate(-1536.05 -543.696)" style="isolation:isolate" opacity="0.3"/>
                <path id="Path_4890" d="M1550.54 564.91s-3.376 4.29-8.023 3.492a8.521 8.521 0 0 1-.89-.2 14.86 14.86 0 0 1 2.751-2.38 23.954 23.954 0 0 1 2.059-1.242z" class="cls-1" transform="translate(-1536.185 -543.698)"/>
                <path id="Path_4891" d="M1568.134 571.6l.74.951a2.333 2.333 0 0 1 .187 2.516l-2.958 5.768a2.6 2.6 0 0 1-2.283 1.418h-15.84a2.166 2.166 0 0 1-.369-.026 2.208 2.208 0 0 1-1.842-2.521l.661-4.9a2.6 2.6 0 0 1 1.09-1.769l2.589-1.816a2.539 2.539 0 0 1 1.45-.464h14.812a2.209 2.209 0 0 1 1.763.843z" class="cls-12" transform="translate(-1536.181 -543.691)"/>
                <path id="Path_4892" d="M1645.076 583.327l.148 1.689a.6.6 0 0 1 0 .061.693.693 0 0 1-.695.69h-28.97a.692.692 0 0 1-.692-.63l-.149-1.685a.407.407 0 0 1 0-.062.691.691 0 0 1 .694-.689h28.967a.692.692 0 0 1 .697.626z" class="cls-15" transform="translate(-1536.111 -543.679)"/>
                <path id="Path_4893" d="M1638.6 560.557h-1.661l-3.546-15.57 1.733.336z" class="cls-13" transform="translate(-1536.092 -543.718)"/>
                <path id="Path_4894" d="M1628.958 562.913a1.593 1.593 0 0 0 1.461 1.17h3.588a.887.887 0 0 0 .883-1.17l-.153-.623h-5.937z" class="cls-12" transform="translate(-1536.097 -543.7)"/>
                <path id="Path_4895" d="M1649.344 562.913a1.592 1.592 0 0 0 1.46 1.17h3.588a.886.886 0 0 0 .883-1.17l-.152-.623h-5.931z" class="cls-12" transform="translate(-1536.076 -543.7)"/>
                <path id="Path_4896" d="M1637.6 580.71a.2.2 0 0 1-.194-.2l.43-20.389a.2.2 0 0 1 .2-.194.2.2 0 0 1 .193.2l-.435 20.386a.2.2 0 0 1-.2.194z" class="cls-15" transform="translate(-1536.088 -543.702)"/>
            </g>
        </g>
    </g>
</svg>
