<svg xmlns="http://www.w3.org/2000/svg" width="42" height="42" viewBox="0 0 42 42">
    <defs>
        <style>
            .cls-2{fill:#e6e6e6}
        </style>
    </defs>
    <g id="icon_min_american_express" transform="translate(-1409.935 362.794)">
        <circle id="Ellipse_8" cx="21" cy="21" r="21" fill="#666" transform="translate(1409.935 -362.794)"/>
        <g id="Group_161">
            <path id="Path_612" d="M1411.952-345.731h1.56l-.78-1.986z" class="cls-2"/>
            <path id="Path_613" d="M1446.495-349.561v.852l-.426-.852h-3.334v.852l-.425-.852h-4.54a4.33 4.33 0 0 0-1.986.426v-.426h-3.192v.426a2.049 2.049 0 0 0-1.347-.426h-11.42l-.78 1.774-.78-1.774h-3.618v.852l-.425-.852h-2.829a20.909 20.909 0 0 0-1.329 5.293l1.817-4.3h1.773l1.986 4.753v-4.753h1.915l1.561 3.4 1.418-3.4h1.987v4.966h-1.206v-3.9l-1.7 3.9h-1.063l-1.7-3.9v3.9h-2.412l-.5-1.065h-2.411l-.426 1.135h-1.11q-.039.492-.056.993h1.8l.426-1.135h.993l.426 1.135h4.113v-.851l.355.851h2.057l.355-.851v.851h9.859v-1.844h.142c.141 0 .141 0 .141.213v1.561h5.108v-.427a4.239 4.239 0 0 0 1.915.427h2.127l.426-1.136h.992l.427 1.136h4.113v-1.065l.638 1.065h3.334v-6.952zm-19.152 2.057h-2.766v.922h2.7v.993h-2.7v.993h2.766v1.064h-3.972v-5.036h3.972zm5.533 3.972h-1.206v-.638a1.693 1.693 0 0 0-.212-.993c-.213-.213-.426-.213-.852-.213h-1.276v1.844h-1.206v-5.036h2.695a2.712 2.712 0 0 1 1.418.213 1.207 1.207 0 0 1 .568 1.135 1.41 1.41 0 0 1-.851 1.347 1.354 1.354 0 0 1 .71.426 1.781 1.781 0 0 1 .212.922v.993zm1.915-.07h-1.2v-5.037h1.2zm13.831 0h-1.561l-2.269-3.76v3.76h-2.412l-.425-1.065h-2.482l-.426 1.135h-1.347a2.48 2.48 0 0 1-1.7-.567 2.492 2.492 0 0 1-.639-1.915A2.913 2.913 0 0 1 1436-348a2.238 2.238 0 0 1 1.773-.567h1.135v1.064h-1.135a1.308 1.308 0 0 0-.922.284 1.662 1.662 0 0 0-.355 1.135 1.539 1.539 0 0 0 .355 1.2 1.131 1.131 0 0 0 .851.284h.5l1.631-3.9h1.773l1.986 4.751v-4.751h1.774l2.056 3.475v-3.475h1.206v4.894z" class="cls-2"/>
            <path id="Path_614" d="M1420.251-339.063v.922h2.624v.993h-2.624v1.064h2.908l1.348-1.489-1.277-1.49z" class="cls-2"/>
            <path id="Path_615" d="M1449.545-338.992a1.051 1.051 0 0 0-.5.071c-.142.071-.142.212-.142.354 0 .213.071.284.283.355a.9.9 0 0 0 .427.071h.638a1.856 1.856 0 0 1 1.3.384 20.991 20.991 0 0 0 .379-3.292h-2.462a2.325 2.325 0 0 0-1.489.425v-.425h-3.263a2.25 2.25 0 0 0-1.419.425v-.425h-5.745v.425a2.743 2.743 0 0 0-1.56-.425h-3.83v.425a2.7 2.7 0 0 0-1.631-.425h-4.256l-.993 1.063-.923-1.063h-6.383v6.951h6.242l.992-1.064.922 1.064h3.831v-1.632h.5a4.333 4.333 0 0 0 1.632-.212v1.915h3.191v-1.844h.143c.212 0 .212 0 .212.212v1.632h9.647a2.777 2.777 0 0 0 1.631-.426v.426h3.05c.166 0 .331-.005.492-.017q.231-.577.427-1.169a2.747 2.747 0 0 1-.848.122h-2.27v-1.064h2.27a.6.6 0 0 0 .5-.142.544.544 0 0 0 .141-.355.544.544 0 0 0-.141-.354.6.6 0 0 0-.426-.142c-1.135-.071-2.483 0-2.483-1.56 0-.71.426-1.49 1.7-1.49h2.341v1.206zm-19.081 2.27h-1.418v1.7h-2.27l-1.418-1.632-1.49 1.632h-4.681v-5.036h4.752l1.419 1.631 1.489-1.631h3.759c.922 0 1.986.284 1.986 1.631-.071 1.421-1.064 1.705-2.128 1.705zm7.093-.284a1.61 1.61 0 0 1 .213.922v.993h-1.206v-.639a1.587 1.587 0 0 0-.212-.992c-.142-.214-.426-.214-.851-.214h-1.277v1.845h-1.206v-5.036h2.7a2.856 2.856 0 0 1 1.419.213 1.254 1.254 0 0 1 .638 1.134 1.414 1.414 0 0 1-.851 1.349 1.2 1.2 0 0 1 .633.425zm4.894-2.058h-2.766v.923h2.695v.993h-2.695v.993h2.766v1.064h-3.971v-5.036h3.971zm2.979 3.973h-2.269v-1.064h2.269a.6.6 0 0 0 .5-.142.54.54 0 0 0 .142-.355.539.539 0 0 0-.142-.354.6.6 0 0 0-.426-.142c-1.134-.071-2.482 0-2.482-1.561 0-.709.426-1.489 1.7-1.489h2.34v1.2h-2.2a1.036 1.036 0 0 0-.5.072c-.143.071-.143.212-.143.354 0 .213.143.284.284.355a.9.9 0 0 0 .426.071h.639a1.8 1.8 0 0 1 1.347.426 1.463 1.463 0 0 1 .355 1.063c.005 1.07-.634 1.566-1.84 1.566z" class="cls-2"/>
            <path id="Path_616" d="M1431.316-346.44a.554.554 0 0 0 .212-.5.4.4 0 0 0-.212-.5 1.385 1.385 0 0 0-.568-.071h-1.418v1.135h1.418a1.384 1.384 0 0 0 .568-.064z" class="cls-2"/>
            <path id="Path_617" d="M1440.749-347.717l-.851 1.986h1.631z" class="cls-2"/>
            <path id="Path_618" d="M1427.84-335.517v-4.043l-1.84 1.986z" class="cls-2"/>
            <path id="Path_619" d="M1430.535-339.063h-1.489v1.277h1.56c.426 0 .71-.213.71-.639a.716.716 0 0 0-.781-.638z" class="cls-2"/>
            <path id="Path_620" d="M1436.281-338.921a1.384 1.384 0 0 0-.568-.071h-1.413v1.135h1.418a1.384 1.384 0 0 0 .568-.071.552.552 0 0 0 .212-.5.394.394 0 0 0-.217-.493z" class="cls-2"/>
        </g>
    </g>
</svg>
