<svg xmlns="http://www.w3.org/2000/svg" width="42" height="42" viewBox="0 0 42 42">
    <defs>
        <style>
            .cls-2{fill:#e6e6e6}.cls-3{fill:#999}
        </style>
    </defs>
    <g id="icon_min_elo" transform="translate(-1460.688 362.794)">
        <circle id="Ellipse_9" cx="21" cy="21" r="21" fill="#666" transform="translate(1460.688 -362.794)"/>
        <path id="Path_621" d="M1478.177-342.761a6.675 6.675 0 0 0-2.791-3.37 6.811 6.811 0 0 0-6.254-.455 6.575 6.575 0 0 0-3.538 3.863 6.584 6.584 0 0 0 .145 4.98 7.788 7.788 0 0 0 .466.9l12.206-5.322c-.075-.185-.15-.396-.234-.596zm-9.937 2.394a3.363 3.363 0 0 1 2.041-3.575 3.26 3.26 0 0 1 4.1.932z" class="cls-2"/>
        <path id="Path_622" d="M1475.143-338.192l-.128-.087a3.612 3.612 0 0 1-1.659 1.39 3.225 3.225 0 0 1-3.558-.359l-.084.127-1.557 2.331a6.745 6.745 0 0 0 1.236.677 6.451 6.451 0 0 0 5.214-.072 6.414 6.414 0 0 0 2.91-2.424z" class="cls-2"/>
        <path id="Path_623" d="M1482.676-350.014v12.954l2.015.816-1.143 2.67-2.224-.927a2.517 2.517 0 0 1-1.094-.92 2.9 2.9 0 0 1-.429-1.6v-12.989z" class="cls-2"/>
        <path id="Path_624" d="M1487.894-340.358a3.663 3.663 0 0 1 1.259-2.765l-2.067-2.305a6.745 6.745 0 0 0-2.285 5.064 6.749 6.749 0 0 0 2.279 5.07l2.064-2.3a3.66 3.66 0 0 1-1.25-2.759z" class="cls-3"/>
        <path id="Path_625" d="M1491.565-336.684a3.679 3.679 0 0 1-1.164-.191l-.987 2.933a6.74 6.74 0 0 0 2.148.35 6.774 6.774 0 0 0 6.636-5.4l-3.034-.62a3.668 3.668 0 0 1-3.6 2.93z" class="cls-3"/>
        <path id="Path_626" d="M1491.574-347.124a6.828 6.828 0 0 0-2.146.344l.979 2.936a3.711 3.711 0 0 1 1.164-.188 3.672 3.672 0 0 1 3.6 2.944l3.034-.613a6.771 6.771 0 0 0-6.627-5.423z" class="cls-2"/>
    </g>
</svg>
