<svg xmlns="http://www.w3.org/2000/svg" width="42" height="42" viewBox="0 0 42 42">
    <defs>
        <clipPath id="clip-path">
            <path id="Rectangle_150" fill="none" d="M0 0H30.194V24.297H0z" transform="translate(1466.591 -354.942)"/>
        </clipPath>
        <style>
            .cls-5{fill:#666;fill-rule:evenodd}
        </style>
    </defs>
    <g id="icon_min_hiper" transform="translate(-1460.688 362.794)">
        <circle id="Ellipse_10" cx="21" cy="21" r="21" fill="#666" transform="translate(1460.688 -362.794)"/>
        <g id="Group_167">
            <g id="Group_166">
                <g id="Group_165" clip-path="url(#clip-path)">
                    <g id="Group_164">
                        <path id="Path_627" fill="#e6e6e6" fill-rule="evenodd" d="M1470.183-350.841l16.986-3.922a4.638 4.638 0 0 1 5.546 3.466l3.922 16.986a4.615 4.615 0 0 1-.7 3.661H1470.1l-3.382-14.645a4.638 4.638 0 0 1 3.465-5.546z"/>
                    </g>
                </g>
            </g>
            <path id="Path_628" d="M1475.668-336.611h-1.4v-3.051h-2.856v3.051h-1.4v-7.045h1.4v2.751h2.856v-2.751h1.4z" class="cls-5"/>
            <path id="Path_629" fill="#999" fill-rule="evenodd" d="M1478.442-343.39a.763.763 0 0 1-.069.326.829.829 0 0 1-.184.266.844.844 0 0 1-.277.18.843.843 0 0 1-.333.067.789.789 0 0 1-.323-.067.854.854 0 0 1-.264-.18.852.852 0 0 1-.181-.266.807.807 0 0 1-.065-.326.824.824 0 0 1 .065-.329.873.873 0 0 1 .181-.268.852.852 0 0 1 .264-.179.773.773 0 0 1 .323-.067.826.826 0 0 1 .333.067.842.842 0 0 1 .277.179.849.849 0 0 1 .184.268.78.78 0 0 1 .069.329z"/>
            <path id="Path_630" d="M1479.588-334.9v-1.629h-.07a2.813 2.813 0 0 1-1.018-.181 2.224 2.224 0 0 1-.222-.1 2.843 2.843 0 0 1-1.348-2.549v-2.341h1.348c0 .657.039 1.778 0 2.654a2.129 2.129 0 0 0 .132.664 1.315 1.315 0 0 0 .28.46 1.1 1.1 0 0 0 .415.268 1.456 1.456 0 0 0 .483.088v-4.134h.828a.375.375 0 0 1 .215.058.282.282 0 0 1 .114.181l.113.461a3.374 3.374 0 0 1 .333-.324 2.032 2.032 0 0 1 .38-.255 2.011 2.011 0 0 1 .44-.165 2.121 2.121 0 0 1 .511-.058 1.657 1.657 0 0 1 .769.181 1.744 1.744 0 0 1 .6.522 2.463 2.463 0 0 1 .536 1.819 3.592 3.592 0 0 1-.16 1.094 2.693 2.693 0 0 1-.45.873 2.091 2.091 0 0 1-.7.577 1.991 1.991 0 0 1-.92.21 1.82 1.82 0 0 1-.728-.13 1.919 1.919 0 0 1-.535-.353v2.111zm2.474-6.01a1.261 1.261 0 0 0-.638.151 1.782 1.782 0 0 0-.488.438v2.334a1.139 1.139 0 0 0 .438.342 1.312 1.312 0 0 0 .507.1 1.09 1.09 0 0 0 .474-.1.98.98 0 0 0 .369-.316 1.563 1.563 0 0 0 .236-.537 3.276 3.276 0 0 0 .083-.779 3.525 3.525 0 0 0-.069-.755 1.524 1.524 0 0 0-.2-.5.774.774 0 0 0-.308-.283.918.918 0 0 0-.404-.098z" class="cls-5"/>
            <path id="Path_631" d="M1487.626-341.791a2.522 2.522 0 0 1 .918.162 2.032 2.032 0 0 1 .72.467c.2.2.36.283.473.579a2.849 2.849 0 0 1 .17 1.018 1.559 1.559 0 0 1-.016.251.457.457 0 0 1-.051.158.186.186 0 0 1-.094.081.4.4 0 0 1-.152.024h-3.15a2.452 2.452 0 0 0 .137.664 1.315 1.315 0 0 0 .281.46 1.084 1.084 0 0 0 .414.268 1.494 1.494 0 0 0 .531.089 1.564 1.564 0 0 0 .505-.073 2.589 2.589 0 0 0 .378-.154q.161-.081.288-.153a.517.517 0 0 1 .25-.071.3.3 0 0 1 .245.121l.387.5a2.122 2.122 0 0 1-.483.422 2.667 2.667 0 0 1-.549.266 3.185 3.185 0 0 1-.576.141 3.957 3.957 0 0 1-.563.042c-2.412 0-3.1-2.775-1.912-4.494a1.8 1.8 0 0 1 .793-.559 2.579 2.579 0 0 1 1.056-.209zm.027.788a1.074 1.074 0 0 0-.808.3 1.524 1.524 0 0 0-.376.846h2.229a1.474 1.474 0 0 0-.062-.434 1.008 1.008 0 0 0-.19-.366.943.943 0 0 0-.326-.254 1.106 1.106 0 0 0-.467-.089z" class="cls-5"/>
            <path id="Path_632" d="M1490.82-336.611v-5.089h.791a.44.44 0 0 1 .288.074.412.412 0 0 1 .11.259l.069.536a2.265 2.265 0 0 1 .556-.71 1.133 1.133 0 0 1 .737-.261.928.928 0 0 1 .568.165l-.1.836a.18.18 0 0 1-.064.134.234.234 0 0 1-.143.04 1.417 1.417 0 0 1-.227-.024 1.741 1.741 0 0 0-.276-.023.962.962 0 0 0-.331.053.788.788 0 0 0-.261.157 1.1 1.1 0 0 0-.2.252 2.263 2.263 0 0 0-.164.338v3.268z" class="cls-5"/>
        </g>
    </g>
</svg>
