<svg xmlns="http://www.w3.org/2000/svg" width="42" height="42" viewBox="0 0 42 42">
    <g transform="translate(-1312.532 362.794)">
        <circle cx="21" cy="21" r="21" fill="#666" transform="translate(1312.532 -362.794)"/>
        <g>
            <path fill="#f2f2f2" d="M1324.774-331.156v-1.419a.832.832 0 0 0-.9-.9.931.931 0 0 0-.8.4.826.826 0 0 0-.756-.4.763.763 0 0 0-.662.331v-.284h-.5v2.27h.5v-1.253c0-.4.213-.591.544-.591s.5.212.5.591v1.253h.5v-1.253a.523.523 0 0 1 .544-.591c.331 0 .5.212.5.591v1.253zm7.352-2.27h-.8v-.685h-.5v.685h-.449v.449h.449v1.04c0 .521.213.828.78.828a1.319 1.319 0 0 0 .615-.166l-.142-.425a.784.784 0 0 1-.426.118c-.236 0-.331-.142-.331-.378v-1.017h.8v-.449zm4.208-.047a.666.666 0 0 0-.591.331v-.284h-.5v2.27h.5v-1.277c0-.378.165-.591.473-.591a1.426 1.426 0 0 1 .307.047l.142-.472a1.545 1.545 0 0 0-.331-.024zm-6.359.236a1.629 1.629 0 0 0-.922-.236c-.567 0-.946.284-.946.733 0 .378.284.591.78.662l.237.023c.26.048.4.118.4.237 0 .165-.189.283-.52.283a1.31 1.31 0 0 1-.757-.236l-.236.378a1.671 1.671 0 0 0 .969.284c.662 0 1.04-.307 1.04-.733 0-.4-.307-.615-.78-.686l-.236-.023c-.213-.024-.379-.071-.379-.213 0-.165.166-.26.426-.26a1.7 1.7 0 0 1 .709.189l.213-.4zm13.19-.236a.668.668 0 0 0-.591.331v-.284h-.5v2.27h.5v-1.277c0-.378.166-.591.473-.591a1.427 1.427 0 0 1 .308.047l.141-.472a1.534 1.534 0 0 0-.331-.024zm-6.335 1.182a1.136 1.136 0 0 0 1.206 1.182 1.174 1.174 0 0 0 .8-.26l-.236-.4a.954.954 0 0 1-.591.213.671.671 0 0 1-.685-.733.7.7 0 0 1 .685-.733.954.954 0 0 1 .591.213l.236-.4a1.174 1.174 0 0 0-.8-.26 1.136 1.136 0 0 0-1.206 1.182zm4.586 0v-1.135h-.5v.284a.854.854 0 0 0-.709-.331 1.131 1.131 0 0 0-1.135 1.182 1.132 1.132 0 0 0 1.135 1.182.8.8 0 0 0 .709-.331v.284h.5zm-1.82 0a.683.683 0 0 1 .685-.733.684.684 0 0 1 .686.733.7.7 0 0 1-.686.733.7.7 0 0 1-.685-.733zm-5.933-1.182a1.105 1.105 0 0 0-1.135 1.182 1.111 1.111 0 0 0 1.158 1.182 1.45 1.45 0 0 0 .922-.307l-.236-.355a1.129 1.129 0 0 1-.662.236.638.638 0 0 1-.686-.543h1.679v-.189a1.045 1.045 0 0 0-1.04-1.206zm0 .425a.553.553 0 0 1 .567.544h-1.182a.6.6 0 0 1 .615-.544zm12.315.757v-2.033h-.5v1.182a.853.853 0 0 0-.709-.331 1.132 1.132 0 0 0-1.135 1.182 1.133 1.133 0 0 0 1.135 1.182.8.8 0 0 0 .709-.331v.284h.5zm-1.82 0a.683.683 0 0 1 .686-.733.683.683 0 0 1 .685.733.7.7 0 0 1-.685.733.7.7 0 0 1-.686-.733zm-16.594 0v-1.135h-.5v.284a.853.853 0 0 0-.709-.331 1.132 1.132 0 0 0-1.135 1.182 1.133 1.133 0 0 0 1.135 1.182.8.8 0 0 0 .709-.331v.284h.5zm-1.844 0a.683.683 0 0 1 .685-.733.684.684 0 0 1 .686.733.7.7 0 0 1-.686.733.7.7 0 0 1-.685-.733z"/>
            <path fill="#999" d="M0 0H7.446V13.38H0z" transform="translate(1329.809 -350.659)"/>
            <path fill="#b3b3b3" d="M1330.282-343.969a8.535 8.535 0 0 1 3.239-6.69 8.461 8.461 0 0 0-5.248-1.82 8.5 8.5 0 0 0-8.51 8.51 8.5 8.5 0 0 0 8.51 8.51 8.456 8.456 0 0 0 5.248-1.82 8.5 8.5 0 0 1-3.239-6.69z"/>
            <path fill="#e6e6e6" d="M1347.3-343.969a8.5 8.5 0 0 1-8.51 8.51 8.458 8.458 0 0 1-5.248-1.82 8.46 8.46 0 0 0 3.239-6.69 8.535 8.535 0 0 0-3.239-6.69 8.464 8.464 0 0 1 5.248-1.82 8.52 8.52 0 0 1 8.51 8.51z"/>
        </g>
    </g>
</svg>
