<svg xmlns="http://www.w3.org/2000/svg" width="42" height="42" viewBox="0 0 42 42">
    <defs>
        <style>
            .cls-2{fill:#e6e6e6}
        </style>
    </defs>
    <g id="icon_min_pix" transform="translate(-278 -10182)">
        <circle id="Elipse_9" cx="21" cy="21" r="21" fill="#666" transform="translate(278 10182)"/>
        <g id="Grupo_772" transform="translate(285 10189)">
            <g id="Grupo_677" transform="translate(0 0)">
                <path id="Caminho_5370" d="M408.7 982.073a4.052 4.052 0 0 1-2.914-1.224l-4.2-4.277a.8.8 0 0 0-1.1 0l-4.218 4.294a4.048 4.048 0 0 1-2.913 1.225h-.83l5.318 5.415a4.2 4.2 0 0 0 6.013 0l5.336-5.432z" class="cls-2" transform="translate(-386.865 -960.266)"/>
                <path id="Caminho_5371" d="M393.39 950.8a4.05 4.05 0 0 1 2.913 1.224l4.218 4.294a.767.767 0 0 0 1.1 0l4.2-4.277a4.051 4.051 0 0 1 2.914-1.224h.508l-5.336-5.432a4.2 4.2 0 0 0-6.013 0l-5.319 5.415z" class="cls-2" transform="translate(-386.892 -944.12)"/>
                <path id="Caminho_5372" d="M407.694 963.251l-3.219-3.277a.527.527 0 0 1-.237.052h-1.474a2.818 2.818 0 0 0-2.033.862l-4.2 4.277a1.979 1.979 0 0 1-2.846 0l-4.218-4.294a2.849 2.849 0 0 0-2.032-.862h-1.8a.462.462 0 0 1-.22-.052l-3.236 3.294a4.386 4.386 0 0 0 0 6.122l3.236 3.294a.463.463 0 0 1 .22-.052h1.8a2.848 2.848 0 0 0 2.032-.862l4.218-4.294a2.03 2.03 0 0 1 2.846 0l4.2 4.277a2.847 2.847 0 0 0 2.033.862h1.474a.59.59 0 0 1 .237.051l3.219-3.276a4.386 4.386 0 0 0 0-6.122z" class="cls-2" transform="translate(-380.938 -952.053)"/>
            </g>
        </g>
    </g>
</svg>
