<svg xmlns="http://www.w3.org/2000/svg" width="42" height="42" viewBox="0 0 42 42">
    <defs>
        <style>
            .cls-2{fill:#e6e6e6}
        </style>
    </defs>
    <g id="icon_min_visa" transform="translate(-1361.711 362.794)">
        <circle id="Ellipse_6" cx="21" cy="21" r="21" fill="#666" transform="translate(1361.711 -362.794)"/>
        <g id="Group_157">
            <g id="Group_156">
                <path id="Path_604" d="M1380.488-336.551h-2.728l1.7-10.478h2.728z" class="cls-2"/>
                <path id="Path_605" d="M1375.465-347.03l-2.6 7.207-.308-1.552-.918-4.712a1.168 1.168 0 0 0-1.294-.944h-4.3l-.05.178a10.17 10.17 0 0 1 2.853 1.2l2.37 9.1h2.842l4.34-10.479z" class="cls-2"/>
                <path id="Path_606" d="M1396.922-336.551h2.505l-2.184-10.479h-2.193a1.254 1.254 0 0 0-1.26.781l-4.068 9.7h2.844l.568-1.557h3.468zm-3-3.707l1.434-3.921.806 3.921z" class="cls-2"/>
                <path id="Path_607" d="M1389.936-344.51l.389-2.25a7.878 7.878 0 0 0-2.454-.457c-1.354 0-4.568.592-4.568 3.469 0 2.707 3.773 2.741 3.773 4.162s-3.384 1.167-4.5.271l-.406 2.352a7.643 7.643 0 0 0 3.08.592c1.861 0 4.67-.964 4.67-3.587 0-2.724-3.807-2.978-3.807-4.163s2.655-1.032 3.823-.389z" class="cls-2"/>
            </g>
            <path id="Path_608" fill="#999" d="M1372.557-341.374l-.918-4.712a1.168 1.168 0 0 0-1.294-.944h-4.3l-.05.178a10.57 10.57 0 0 1 4.049 2.033 8.17 8.17 0 0 1 2.513 3.445z"/>
        </g>
    </g>
</svg>
