<svg xmlns="http://www.w3.org/2000/svg" width="468" height="368" viewBox="0 0 468 368">
    <defs>
        <style>
            .cls-1{fill:#fff}.cls-3{fill:#f2f2f2}.cls-4{fill:#fe0060}.cls-5{fill:#ccc}.cls-7{fill:#991451}.cls-8{fill:#666}
        </style>
    </defs>
    <g id="ilustration_step_01" transform="translate(-1496.791 -1076.36)">
        <path id="Rectangle_664" d="M0 0H468V368H0z" class="cls-1" transform="translate(1496.791 1076.36)"/>
        <g id="Group_553">
            <path id="Path_5225" fill="#f06" d="M1819.872 1165.327c47.232 34.485 84.872 63.1 105.431 102.236 20.434 39.4 23.632 88.929.93 117.708-22.858 28.382-71.741 36.277-111.722 37.793-39.7 1.65-71.033-2.687-124.723-7.076-54.1-4.26-130.831-8.705-158.138-42.368-26.9-33.792-4.374-96.8 24.662-155.415 29.44-58.741 65.389-113.084 112.119-120.075 46.449-7.124 103.804 32.841 151.441 67.197z" opacity="0.1"/>
            <rect id="Rectangle_665" width="387.911" height="250.526" class="cls-3" rx="6.061" transform="translate(1538.958 1141.91)"/>
            <path id="Rectangle_666" d="M6.061 0H381.85a6.061 6.061 0 0 1 6.061 6.061v10.1H0v-10.1A6.061 6.061 0 0 1 6.061 0z" class="cls-4" transform="translate(1538.958 1141.91)"/>
            <rect id="Rectangle_667" width="71.888" height="216.382" class="cls-1" rx="4.452" transform="translate(1546.228 1167.128)"/>
            <rect id="Rectangle_668" width="22.808" height="5.091" class="cls-3" rx="2.546" transform="translate(1577.789 1178.947)"/>
            <rect id="Rectangle_669" width="27.717" height="5.091" class="cls-3" rx="2.546" transform="translate(1577.789 1188.039)"/>
            <rect id="Rectangle_670" width="57.821" height="5.091" class="cls-3" rx="2.546" transform="translate(1553.503 1241.708)"/>
            <rect id="Rectangle_671" width="38.144" height="5.091" class="cls-3" rx="2.068" transform="translate(1553.503 1255.269)"/>
            <rect id="Rectangle_672" width="38.144" height="5.091" class="cls-3" rx="2.068" transform="translate(1553.503 1228.147)"/>
            <rect id="Rectangle_673" width="57.821" height="5.091" class="cls-5" rx="2.546" transform="translate(1553.503 1214.586)"/>
            <rect id="Rectangle_674" width="292.812" height="164.732" class="cls-1" rx="4.508" transform="translate(1625.326 1167.755)"/>
            <rect id="Rectangle_675" width="66.066" height="17.201" class="cls-4" rx="7.845" transform="translate(1738.699 1266.8)"/>
            <rect id="Rectangle_676" width="28.79" height="3.528" fill="#f2f2f2" opacity="0.8" rx="1.709" transform="translate(1757.337 1273.637)"/>
            <rect id="Rectangle_677" width="171.893" height="18.911" class="cls-3" rx="9.106" transform="translate(1685.785 1236.216)"/>
            <path id="Path_5226" d="M1672.251 1146.961h-71.121a4.351 4.351 0 0 0-4.352 4.351v7.815h79.822v-7.815a4.352 4.352 0 0 0-4.349-4.351z" class="cls-3"/>
            <rect id="Rectangle_678" width="26.181" height="2.744" class="cls-5" rx="1.372" transform="translate(1610.176 1151.672)"/>
            <rect id="Rectangle_679" width="6.728" height="6.728" class="cls-4" rx="1.916" transform="translate(1600.142 1149.68)"/>
            <rect id="Rectangle_680" width="19.699" height="19.699" class="cls-5" rx="2.02" transform="translate(1551.865 1174.644)"/>
            <path id="Path_5227" d="M1603.275 1154.137h1.647a.546.546 0 1 1 .006 1.091h-2.792a.588.588 0 0 1-.448-1.009l1.971-2.179.064-.072c-.032-.035-.072-.018-.106-.018h-1.4a.545.545 0 0 1-.319-.992.553.553 0 0 1 .324-.1c.889 0 1.777-.005 2.666 0a.577.577 0 0 1 .619.6.637.637 0 0 1-.184.409q-.987 1.089-1.972 2.179c-.022.028-.041.054-.076.091z" class="cls-1"/>
            <g id="Group_549">
                <path id="Path_5228" d="M1570.274 1151.132l.325-.738.929-2.118a.658.658 0 0 1 .638-.414.65.65 0 0 1 .594.472.7.7 0 0 1-.053.5q-.723 1.578-1.441 3.157-.482 1.059-.966 2.116a.651.651 0 0 1-.956.308.643.643 0 0 1-.243-.809c.131-.305.27-.607.411-.906a.2.2 0 0 0 0-.2q-.84-1.831-1.675-3.666a.657.657 0 0 1 .228-.874.645.645 0 0 1 .94.3c.245.544.484 1.091.725 1.638z" class="cls-1"/>
                <path id="Path_5229" d="M1549.523 1151.45h1.789a.593.593 0 1 1 .007 1.185c-.458.005-.916 0-1.373 0h-1.66a.64.64 0 0 1-.488-1.1l2.142-2.367c.023-.024.045-.049.07-.078-.035-.038-.079-.02-.116-.02h-1.523a.585.585 0 0 1-.576-.429.591.591 0 0 1 .23-.649.6.6 0 0 1 .352-.107c.965 0 1.931-.006 2.9 0a.627.627 0 0 1 .673.657.7.7 0 0 1-.2.444q-1.072 1.182-2.143 2.366z" class="cls-1"/>
                <path id="Path_5230" d="M1561.991 1148.715a1.987 1.987 0 0 0-2.98-.375c-.018.016-.032.039-.063.035l-.017-.046a.651.651 0 0 0-1.266.241v5.222a.65.65 0 1 0 1.3 0V1152.152l.08.066a1.973 1.973 0 0 0 2.694-.108 2.763 2.763 0 0 0 .252-3.395zm-1.039 2.241a.992.992 0 0 1-.976.55 1.057 1.057 0 0 1-.96-.734 1.316 1.316 0 0 1-.088-.472 1.393 1.393 0 0 1 .2-.775 1.041 1.041 0 0 1 1.793 0 1.356 1.356 0 0 1 .031 1.431z" class="cls-1"/>
                <path id="Path_5231" d="M1557.036 1148.565a.652.652 0 0 0-1.269-.231l-.024.051-.08-.067a1.979 1.979 0 0 0-2.8.2 2.794 2.794 0 0 0-.279 3.1 2 2 0 0 0 3.118.551c.012-.01.022-.027.052-.011a.662.662 0 0 0 .113.223.652.652 0 0 0 1.166-.4c.005-.391 0-.781 0-1.172.004-.748.005-1.496.003-2.244zm-1.506 2.492a1.042 1.042 0 0 1-1.666.073 1.409 1.409 0 0 1 0-1.73 1 1 0 0 1 1.027-.36 1.088 1.088 0 0 1 .826.815 1.179 1.179 0 0 1 .057.367 1.387 1.387 0 0 1-.244.835z" class="cls-1"/>
                <path id="Path_5232" d="M1567.554 1148.519a.611.611 0 0 0-.367-.564.659.659 0 0 0-.919.433l-.077-.064a1.972 1.972 0 0 0-2.7.086 2.768 2.768 0 0 0-.315 3.318 1.991 1.991 0 0 0 3.045.45.4.4 0 0 1 .05-.034c.018.044.032.083.05.12a.652.652 0 0 0 .738.354.643.643 0 0 0 .5-.61q-.001-1.745-.005-3.489zm-1.525 2.571a1.042 1.042 0 0 1-1.69-.021 1.42 1.42 0 0 1-.006-1.6 1.044 1.044 0 0 1 1.727.012 1.329 1.329 0 0 1 .232.787 1.3 1.3 0 0 1-.263.822z" class="cls-1"/>
            </g>
            <g id="Group_550">
                <circle id="Ellipse_308" cx="3.031" cy="3.031" r="3.031" class="cls-7" transform="translate(1893.212 1146.961)"/>
                <circle id="Ellipse_309" cx="3.031" cy="3.031" r="3.031" class="cls-7" transform="translate(1904.213 1146.961)"/>
                <circle id="Ellipse_310" cx="3.031" cy="3.031" r="3.031" class="cls-7" transform="translate(1915.214 1146.961)"/>
            </g>
            <g id="Group_551">
                <path id="Path_5233" d="M1724.2 1211.48a2.624 2.624 0 0 1 1 .946 2.682 2.682 0 0 1 0 2.729 2.62 2.62 0 0 1-1 .947 2.873 2.873 0 0 1-1.389.341h-.948v2.375a.837.837 0 0 1-.246.606.861.861 0 0 1-1.219 0 .827.827 0 0 1-.253-.606V1212a.821.821 0 0 1 .253-.612.834.834 0 0 1 .606-.246h1.807a2.871 2.871 0 0 1 1.389.338zm-.663 3.087a1.1 1.1 0 0 0 0-1.552 1.1 1.1 0 0 0-.79-.31h-.884v2.172h.884a1.094 1.094 0 0 0 .791-.31z" class="cls-8"/>
                <path id="Path_5234" d="M1727.889 1219.343a2.656 2.656 0 0 1-1.035-1.074 3.317 3.317 0 0 1-.367-1.585 3.478 3.478 0 0 1 .379-1.636 2.836 2.836 0 0 1 1.036-1.131 2.808 2.808 0 0 1 2.924.013 2.834 2.834 0 0 1 1.01 1.13 3.475 3.475 0 0 1 .361 1.585.677.677 0 0 1-.2.487.657.657 0 0 1-.492.208h-3.285a1.186 1.186 0 0 0 .449.645 1.405 1.405 0 0 0 .827.226 3.246 3.246 0 0 0 1.226-.239 1.064 1.064 0 0 1 .277-.051.754.754 0 0 1 .759.759.751.751 0 0 1-.14.447.716.716 0 0 1-.366.272 5.253 5.253 0 0 1-1.819.329 3.044 3.044 0 0 1-1.544-.385zm2.539-3.392a1.13 1.13 0 0 0-.4-.657 1.069 1.069 0 0 0-.682-.253 1.145 1.145 0 0 0-.7.253 1.1 1.1 0 0 0-.424.657z" class="cls-8"/>
                <path id="Path_5235" d="M1733.7 1219.235a.791.791 0 0 1-.246-.259.673.673 0 0 1 .106-.827.671.671 0 0 1 .493-.2.625.625 0 0 1 .278.051 3.536 3.536 0 0 0 1.465.366 1.107 1.107 0 0 0 .543-.113.378.378 0 0 0 .215-.316.4.4 0 0 0-.252-.366 5.986 5.986 0 0 0-.834-.3 8.407 8.407 0 0 1-1.042-.354 1.881 1.881 0 0 1-.707-.531 1.4 1.4 0 0 1-.3-.934 1.713 1.713 0 0 1 .656-1.4 2.672 2.672 0 0 1 1.731-.531 3.784 3.784 0 0 1 .947.114 4.514 4.514 0 0 1 .9.341.7.7 0 0 1 .284.258.687.687 0 0 1 .108.373.673.673 0 0 1-.2.486.657.657 0 0 1-.492.209.757.757 0 0 1-.291-.063 4.49 4.49 0 0 0-.675-.24 2.31 2.31 0 0 0-.575-.088.918.918 0 0 0-.531.138.415.415 0 0 0-.2.354.385.385 0 0 0 .252.353 4.15 4.15 0 0 0 .809.266 8.454 8.454 0 0 1 1.054.353 1.945 1.945 0 0 1 .714.531 1.407 1.407 0 0 1 .3.947 1.663 1.663 0 0 1-.65 1.383 2.931 2.931 0 0 1-1.85.512 3.884 3.884 0 0 1-2.01-.513z" class="cls-8"/>
                <path id="Path_5236" d="M1745.314 1213.835a.8.8 0 0 1 .246.587v6.77a.834.834 0 0 1-1.667 0v-2.146a2.53 2.53 0 0 1-.8.523 2.537 2.537 0 0 1-2.324-.221 2.785 2.785 0 0 1-.985-1.117 3.718 3.718 0 0 1 0-3.2 2.808 2.808 0 0 1 .985-1.118 2.523 2.523 0 0 1 2.33-.214 2.7 2.7 0 0 1 .821.53.835.835 0 0 1 .809-.644.8.8 0 0 1 .585.25zm-1.781 3.947a1.813 1.813 0 0 0 0-2.3 1.337 1.337 0 0 0-2.008 0 1.813 1.813 0 0 0 0 2.3 1.335 1.335 0 0 0 2.008 0z" class="cls-8"/>
                <path id="Path_5237" d="M1752.494 1213.828a.79.79 0 0 1 .24.582v4.446a.818.818 0 0 1-1.629.114 2.231 2.231 0 0 1-1.806.783 2.171 2.171 0 0 1-1.662-.651 2.542 2.542 0 0 1-.612-1.812v-2.88a.821.821 0 1 1 1.643 0v2.6a1.168 1.168 0 0 0 1.2 1.225 1.163 1.163 0 0 0 .872-.367 1.256 1.256 0 0 0 .353-.909v-2.551a.822.822 0 0 1 1.4-.582z" class="cls-8"/>
                <path id="Path_5238" d="M1754.427 1212.686a.964.964 0 1 1 .67.271.922.922 0 0 1-.67-.271zm.083 6.745a.8.8 0 0 1-.247-.587v-4.422a.834.834 0 0 1 1.668 0v4.422a.831.831 0 0 1-1.421.587z" class="cls-8"/>
                <path id="Path_5239" d="M1757.725 1219.235a.791.791 0 0 1-.246-.259.673.673 0 0 1 .106-.827.671.671 0 0 1 .493-.2.625.625 0 0 1 .278.051 3.537 3.537 0 0 0 1.465.366 1.1 1.1 0 0 0 .543-.113.381.381 0 0 0 .216-.316.4.4 0 0 0-.253-.366 5.992 5.992 0 0 0-.834-.3 8.407 8.407 0 0 1-1.042-.354 1.881 1.881 0 0 1-.707-.531 1.4 1.4 0 0 1-.3-.934 1.713 1.713 0 0 1 .656-1.4 2.673 2.673 0 0 1 1.731-.531 3.784 3.784 0 0 1 .947.114 4.514 4.514 0 0 1 .9.341.7.7 0 0 1 .284.258.687.687 0 0 1 .108.373.673.673 0 0 1-.2.486.655.655 0 0 1-.492.209.757.757 0 0 1-.291-.063 4.5 4.5 0 0 0-.675-.24 2.31 2.31 0 0 0-.575-.088.918.918 0 0 0-.531.138.415.415 0 0 0-.2.354.385.385 0 0 0 .252.353 4.15 4.15 0 0 0 .809.266 8.454 8.454 0 0 1 1.054.353 1.945 1.945 0 0 1 .714.531 1.407 1.407 0 0 1 .3.947 1.663 1.663 0 0 1-.65 1.383 2.931 2.931 0 0 1-1.85.512 3.884 3.884 0 0 1-2.01-.513z" class="cls-8"/>
                <path id="Path_5240" d="M1769.338 1213.835a.8.8 0 0 1 .246.587v4.422a.831.831 0 0 1-1.641.189 2.77 2.77 0 0 1-.822.531 2.524 2.524 0 0 1-2.33-.216 2.785 2.785 0 0 1-.985-1.117 3.716 3.716 0 0 1 0-3.2 2.808 2.808 0 0 1 .985-1.118 2.522 2.522 0 0 1 2.33-.214 2.711 2.711 0 0 1 .822.53.827.827 0 0 1 1.4-.4zm-1.781 3.947a1.813 1.813 0 0 0 0-2.3 1.337 1.337 0 0 0-2.008 0 1.817 1.817 0 0 0 0 2.3 1.335 1.335 0 0 0 2.008 0z" class="cls-8"/>
                <path id="Path_5241" d="M1775.117 1213.753a.821.821 0 0 1-.58 1.4 1.762 1.762 0 0 0-1.365.473 2.465 2.465 0 0 0-.429 1.649v1.579a.8.8 0 0 1-.24.575.783.783 0 0 1-.581.246.818.818 0 0 1-.821-.821v-4.446a.816.816 0 0 1 .821-.821.8.8 0 0 1 .808.707 2.232 2.232 0 0 1 1.807-.783.789.789 0 0 1 .58.242z" class="cls-8"/>
                <path id="Path_5242" d="M1786.251 1211.006a.8.8 0 0 1 .246.587v7.251a.831.831 0 0 1-1.641.189 2.771 2.771 0 0 1-.822.531 2.524 2.524 0 0 1-2.33-.216 2.785 2.785 0 0 1-.985-1.117 3.718 3.718 0 0 1 0-3.2 2.808 2.808 0 0 1 .985-1.118 2.478 2.478 0 0 1 1.37-.4 2.491 2.491 0 0 1 1.756.708v-2.628a.83.83 0 0 1 1.421-.587zm-1.781 6.776a1.813 1.813 0 0 0 0-2.3 1.337 1.337 0 0 0-2.008 0 1.816 1.816 0 0 0 0 2.3 1.335 1.335 0 0 0 2.008 0z" class="cls-8"/>
                <path id="Path_5243" d="M1789.239 1219.343a2.656 2.656 0 0 1-1.035-1.074 3.317 3.317 0 0 1-.367-1.585 3.478 3.478 0 0 1 .379-1.636 2.836 2.836 0 0 1 1.036-1.131 2.808 2.808 0 0 1 2.924.013 2.833 2.833 0 0 1 1.01 1.13 3.475 3.475 0 0 1 .361 1.585.677.677 0 0 1-.2.487.658.658 0 0 1-.492.208h-3.285a1.181 1.181 0 0 0 .449.645 1.405 1.405 0 0 0 .827.226 3.245 3.245 0 0 0 1.226-.239 1.065 1.065 0 0 1 .277-.051.754.754 0 0 1 .759.759.751.751 0 0 1-.14.447.716.716 0 0 1-.366.272 5.257 5.257 0 0 1-1.819.329 3.042 3.042 0 0 1-1.544-.385zm2.539-3.392a1.13 1.13 0 0 0-.4-.657 1.069 1.069 0 0 0-.682-.253 1.145 1.145 0 0 0-.7.253 1.1 1.1 0 0 0-.424.657zm-1.548-3.272a.54.54 0 0 1-.195-.454.742.742 0 0 1 .151-.43l.822-1.124a.864.864 0 0 1 .707-.416.7.7 0 0 1 .524.226.8.8 0 0 1 .221.582.778.778 0 0 1-.278.594l-1.073.985a.7.7 0 0 1-.467.189.665.665 0 0 1-.412-.152z" class="cls-8"/>
                <path id="Path_5244" d="M1799.679 1213.917a2.808 2.808 0 0 1 .985 1.118 3.725 3.725 0 0 1 0 3.2 2.785 2.785 0 0 1-.985 1.117 2.526 2.526 0 0 1-2.331.216 2.751 2.751 0 0 1-.82-.531.807.807 0 0 1-.292.46.833.833 0 0 1-1.351-.649v-7.251a.834.834 0 0 1 1.667 0v2.628a2.5 2.5 0 0 1 1.756-.708 2.481 2.481 0 0 1 1.371.4zm-.758 3.865a1.813 1.813 0 0 0 0-2.3 1.337 1.337 0 0 0-2.008 0 1.813 1.813 0 0 0 0 2.3 1.335 1.335 0 0 0 2.008 0z" class="cls-8"/>
                <path id="Path_5245" d="M1802.59 1212.686a.962.962 0 1 1 .669.271.919.919 0 0 1-.669-.271zm.082 6.745a.8.8 0 0 1-.246-.587v-4.422a.834.834 0 0 1 1.667 0v4.422a.831.831 0 0 1-1.421.587z" class="cls-8"/>
                <path id="Path_5246" d="M1810.314 1219.292a.868.868 0 0 1-.386.272 2.818 2.818 0 0 1-1.011.189 2.373 2.373 0 0 1-1.13-.272 1.915 1.915 0 0 1-.8-.814 2.457 2.457 0 0 1-.272-.809 8.032 8.032 0 0 1-.057-1.074v-1.6h-.606a.759.759 0 1 1 0-1.517h.606v-1.238a.836.836 0 0 1 1.428-.587.815.815 0 0 1 .24.587v1.238h1.136a.759.759 0 1 1 0 1.517h-1.136v2.021a1.3 1.3 0 0 0 .227.82.63.63 0 0 0 .543.24 1.526 1.526 0 0 0 .455-.075 1.054 1.054 0 0 1 .189-.025.7.7 0 0 1 .506.208.685.685 0 0 1 .215.511.651.651 0 0 1-.147.408z" class="cls-8"/>
                <path id="Path_5247" d="M1812.834 1219.348a3 3 0 0 1-1.125-1.117 3.27 3.27 0 0 1 0-3.2 3.026 3.026 0 0 1 1.125-1.118 3.237 3.237 0 0 1 3.132 0 3.022 3.022 0 0 1 1.124 1.118 3.27 3.27 0 0 1 0 3.2 3 3 0 0 1-1.124 1.117 3.23 3.23 0 0 1-3.132 0zm2.57-1.566a1.813 1.813 0 0 0 0-2.3 1.337 1.337 0 0 0-2.008 0 1.813 1.813 0 0 0 0 2.3 1.335 1.335 0 0 0 2.008 0z" class="cls-8"/>
                <path id="Path_5248" d="M1819.061 1219.235a.8.8 0 0 1-.247-.259.663.663 0 0 1-.095-.347.654.654 0 0 1 .2-.48.671.671 0 0 1 .493-.2.625.625 0 0 1 .278.051 3.537 3.537 0 0 0 1.465.366 1.107 1.107 0 0 0 .543-.113.378.378 0 0 0 .215-.316.4.4 0 0 0-.253-.366 5.914 5.914 0 0 0-.833-.3 8.414 8.414 0 0 1-1.042-.354 1.881 1.881 0 0 1-.707-.531 1.4 1.4 0 0 1-.3-.934 1.713 1.713 0 0 1 .656-1.4 2.67 2.67 0 0 1 1.731-.531 3.784 3.784 0 0 1 .947.114 4.54 4.54 0 0 1 .9.341.7.7 0 0 1 .284.258.686.686 0 0 1 .107.373.672.672 0 0 1-.2.486.657.657 0 0 1-.493.209.756.756 0 0 1-.29-.063 4.5 4.5 0 0 0-.675-.24 2.31 2.31 0 0 0-.575-.088.918.918 0 0 0-.531.138.415.415 0 0 0-.2.354.385.385 0 0 0 .251.353 4.193 4.193 0 0 0 .81.266 8.451 8.451 0 0 1 1.054.353 1.952 1.952 0 0 1 .714.531 1.407 1.407 0 0 1 .3.947 1.663 1.663 0 0 1-.65 1.383 2.931 2.931 0 0 1-1.85.512 3.884 3.884 0 0 1-2.007-.513z" class="cls-8"/>
            </g>
            <g id="Group_552">
                <path id="Path_5249" d="M1700.842 1248.807a.74.74 0 0 1-.12.4.709.709 0 0 1-.323.274.59.59 0 0 1-.264.053.712.712 0 0 1-.406-.122.689.689 0 0 1-.269-.321l-.38-.94h-2.766l-.38.94a.645.645 0 0 1-.264.332.73.73 0 0 1-.391.111.687.687 0 0 1-.512-.211.7.7 0 0 1-.2-.507.887.887 0 0 1 .052-.274l2.4-5.775a.722.722 0 0 1 .274-.327.79.79 0 0 1 .824 0 .729.729 0 0 1 .274.327l2.407 5.775a.589.589 0 0 1 .044.265zm-2.29-1.963l-.855-2.1-.856 2.1z" class="cls-8"/>
                <path id="Path_5250" d="M1706.765 1246.4a1.7 1.7 0 0 1 .285.971 1.962 1.962 0 0 1-.307 1.062 2.193 2.193 0 0 1-.833.776 2.4 2.4 0 0 1-1.161.285h-2.154a.721.721 0 0 1-.718-.718v-5.7a.722.722 0 0 1 .718-.719h1.858a2.32 2.32 0 0 1 1.082.26 2.039 2.039 0 0 1 .8.717 1.843 1.843 0 0 1 .295 1.019 1.752 1.752 0 0 1-.168.771 1.9 1.9 0 0 1-.475.611 1.961 1.961 0 0 1 .778.665zm-3.452-2.733v1.477h1.14a.726.726 0 0 0 .522-.206.71.71 0 0 0 .217-.543.743.743 0 0 0-.19-.517.637.637 0 0 0-.5-.211zm2.043 4.28a.8.8 0 0 0 .258-.618.846.846 0 0 0-.248-.627.834.834 0 0 0-.617-.248h-1.436v1.73h1.436a.867.867 0 0 0 .607-.237z" class="cls-8"/>
                <path id="Path_5251" d="M1709.826 1249.093a3.433 3.433 0 0 1-1.3-1.294 3.9 3.9 0 0 1 0-3.747 3.437 3.437 0 0 1 1.3-1.293 3.622 3.622 0 0 1 1.816-.465 3.693 3.693 0 0 1 1.377.259 3.433 3.433 0 0 1 1.146.745.606.606 0 0 1 .2.474.639.639 0 0 1-.19.459.627.627 0 0 1-.465.2.691.691 0 0 1-.474-.19 2.152 2.152 0 0 0-.7-.47 2.187 2.187 0 0 0-2.76.955 2.6 2.6 0 0 0 0 2.407 2.2 2.2 0 0 0 3.463.486.687.687 0 0 1 .474-.19.649.649 0 0 1 .655.654.609.609 0 0 1-.2.475 3.443 3.443 0 0 1-1.146.744 3.674 3.674 0 0 1-1.377.259 3.633 3.633 0 0 1-1.819-.468z" class="cls-8"/>
                <path id="Path_5252" d="M1717.938 1242.733a.665.665 0 0 1 .206.491v5.573a.7.7 0 0 1-1.193.491.678.678 0 0 1-.2-.491v-4.4l-.369.211a.625.625 0 0 1-.338.084.693.693 0 0 1-.348-.089.6.6 0 0 1-.243-.259.647.647 0 0 1 0-.675.706.706 0 0 1 .253-.253l1.384-.781a.588.588 0 0 1 .358-.106.667.667 0 0 1 .49.204z" class="cls-8"/>
                <path id="Path_5253" d="M1724.144 1248.412a.634.634 0 0 1-.448 1.082h-3.653a.632.632 0 0 1-.633-.633.648.648 0 0 1 .127-.381 9.054 9.054 0 0 1 1.04-1.3q.511-.517 1.166-1.087c.275-.232.479-.414.613-.544a1.732 1.732 0 0 0 .322-.423 1.05 1.05 0 0 0 .121-.5.83.83 0 0 0-.295-.676 1.086 1.086 0 0 0-.708-.242 1.23 1.23 0 0 0-.544.126 1.145 1.145 0 0 0-.427.36.642.642 0 0 1-.232.205.685.685 0 0 1-.8-.121.673.673 0 0 1-.2-.5.722.722 0 0 1 .158-.443 2.329 2.329 0 0 1 .892-.661 2.909 2.909 0 0 1 2.322.032 2.216 2.216 0 0 1 .908.749 1.987 1.987 0 0 1 .344 1.167 1.909 1.909 0 0 1-.233.918 3.745 3.745 0 0 1-.586.808c-.236.251-.557.561-.965.934q-.656.591-.982.94h2.248a.6.6 0 0 1 .445.19z" class="cls-8"/>
                <path id="Path_5254" d="M1726.525 1249.33a2.156 2.156 0 0 1-.855-.639.659.659 0 0 1-.158-.433.647.647 0 0 1 .2-.48.672.672 0 0 1 .486-.195.653.653 0 0 1 .311.074.681.681 0 0 1 .238.2.938.938 0 0 0 .4.322 1.383 1.383 0 0 0 .56.11 1.16 1.16 0 0 0 .775-.253.862.862 0 0 0 0-1.309 1.161 1.161 0 0 0-.775-.254h-.38a.633.633 0 1 1 0-1.266h.38a.923.923 0 0 0 .627-.206.716.716 0 0 0 0-1.066.923.923 0 0 0-.627-.206 1.142 1.142 0 0 0-.444.084.742.742 0 0 0-.317.243.724.724 0 0 1-.236.19.642.642 0 0 1-.3.074.685.685 0 0 1-.686-.686.688.688 0 0 1 .179-.454 2.214 2.214 0 0 1 .777-.528 2.681 2.681 0 0 1 1.029-.19 2.639 2.639 0 0 1 1.182.254 1.99 1.99 0 0 1 .807.691 1.725 1.725 0 0 1 .29.977 1.77 1.77 0 0 1-.7 1.424 2.029 2.029 0 0 1 .67.713 1.945 1.945 0 0 1-.078 1.995 2.2 2.2 0 0 1-.883.76 2.864 2.864 0 0 1-1.292.28 2.971 2.971 0 0 1-1.18-.226z" class="cls-8"/>
                <path id="Path_5255" d="M1737.192 1247.251a.633.633 0 0 1-.448 1.081h-.613v.465a.7.7 0 0 1-1.192.491.677.677 0 0 1-.2-.491v-.465h-2.64a.632.632 0 0 1-.634-.633.674.674 0 0 1 .138-.4l3.24-4.455a.692.692 0 0 1 .249-.232.7.7 0 0 1 .342-.084.7.7 0 0 1 .7.7v3.842h.613a.6.6 0 0 1 .445.181zm-2.453-.185v-1.774l-1.3 1.774z" class="cls-8"/>
                <path id="Path_5256" d="M1739.656 1249.393a2.384 2.384 0 0 1-.791-.48.621.621 0 0 1-.222-.5.687.687 0 0 1 .676-.676.686.686 0 0 1 .5.211 1 1 0 0 0 .781.338 1.051 1.051 0 0 0 .765-.306 1.11 1.11 0 0 0 0-1.541 1.107 1.107 0 0 0-1.368-.127.712.712 0 0 1-.4.127.7.7 0 0 1-.491-.2.649.649 0 0 1-.217-.495v-2.523a.7.7 0 0 1 .7-.7h2.66a.634.634 0 0 1 .449 1.081.61.61 0 0 1-.449.185h-1.964v1.1c.142-.015.246-.022.318-.022a2.641 2.641 0 0 1 1.255.3 2.306 2.306 0 0 1 .9.834 2.359 2.359 0 0 1 0 2.417 2.32 2.32 0 0 1-.9.834 2.641 2.641 0 0 1-1.255.3 2.7 2.7 0 0 1-.947-.157z" class="cls-8"/>
            </g>
        </g>
    </g>
</svg>
